<svg width="507" height="230" viewBox="0 0 507 230" fill="none" xmlns="http://www.w3.org/2000/svg">
<path d="M17.7883 4.14V0.75H32.1883V4.14H17.7883ZM35.7766 4.14V0.75H50.1766V4.14H35.7766ZM53.7648 4.14V0.75H68.1648V4.14H53.7648ZM71.7531 4.14V0.75H86.1531V4.14H71.7531ZM89.7414 4.14V0.75H104.141V4.14H89.7414ZM107.73 4.14V0.75H122.13V4.14H107.73ZM125.718 4.14V0.75H140.118V4.14H125.718ZM143.706 4.14V0.75H158.106V4.14H143.706ZM161.695 4.14V0.75H176.095V4.14H161.695ZM179.683 4.14V0.75H194.083V4.14H179.683ZM197.671 4.14V0.75H212.071V4.14H197.671ZM215.659 4.14V0.75H230.059V4.14H215.659ZM233.648 4.14V0.75H248.048V4.14H233.648ZM251.636 4.14V0.75H266.036V4.14H251.636ZM269.624 4.14V0.75H284.024V4.14H269.624ZM287.613 4.14V0.75H302.013V4.14H287.613ZM305.601 4.14V0.75H320.001V4.14H305.601ZM13.72 40.32L0.28 33.99V30.24L13.72 23.91V27.36L5.02 31.38C4.62 31.56 4.22 31.72 3.82 31.86C3.44 31.98 3.14 32.06 2.92 32.1C3.14 32.14 3.45 32.22 3.85 32.34C4.25 32.46 4.64 32.61 5.02 32.79L13.72 36.81V40.32ZM41.7766 48.6C39.4166 48.6 37.6666 48.53 36.5266 48.39V45.45C38.4066 45.71 40.1566 45.84 41.7766 45.84C43.2566 45.84 44.3166 45.6 44.9566 45.12C45.5966 44.64 45.9166 43.84 45.9166 42.72V40.38C45.5566 40.9 45.2066 41.3 44.8666 41.58C44.5266 41.84 44.0766 42.02 43.5166 42.12C42.9766 42.24 42.2266 42.3 41.2666 42.3C39.8466 42.3 38.7166 42.17 37.8766 41.91C37.0366 41.63 36.4266 41.18 36.0466 40.56C35.6666 39.92 35.4766 39.04 35.4766 37.92V32.25C35.4766 30.91 35.6466 29.88 35.9866 29.16C36.3466 28.44 36.9466 27.93 37.7866 27.63C38.6466 27.33 39.8766 27.18 41.4766 27.18C42.5166 27.18 43.3166 27.24 43.8766 27.36C44.4166 27.48 44.8266 27.66 45.1066 27.9C45.3866 28.14 45.7066 28.55 46.0666 29.13V27.48H50.2966V42.78C50.2966 44.84 49.5866 46.32 48.1666 47.22C46.7666 48.14 44.6366 48.6 41.7766 48.6ZM42.8266 39.57C43.6866 39.57 44.3266 39.51 44.7466 39.39C45.1866 39.27 45.4866 39.08 45.6466 38.82C45.8266 38.54 45.9166 38.15 45.9166 37.65V31.8C45.9166 31.26 45.8366 30.86 45.6766 30.6C45.5166 30.32 45.2066 30.13 44.7466 30.03C44.2866 29.93 43.5666 29.88 42.5866 29.88C41.7866 29.88 41.1966 29.94 40.8166 30.06C40.4366 30.18 40.1766 30.39 40.0366 30.69C39.9166 30.97 39.8566 31.39 39.8566 31.95V37.5C39.8566 38.12 39.9166 38.57 40.0366 38.85C40.1766 39.11 40.4466 39.3 40.8466 39.42C41.2466 39.52 41.9066 39.57 42.8266 39.57ZM61.1085 42.3C60.2085 42.3 59.4685 42.27 58.8885 42.21C58.3085 42.15 57.6885 42.03 57.0285 41.85C56.3085 41.65 55.7285 41.37 55.2885 41.01C54.8485 40.63 54.4785 40.1 54.1785 39.42C53.8785 38.76 53.7285 37.96 53.7285 37.02V32.73C53.7285 31.77 53.8785 30.93 54.1785 30.21C54.4785 29.49 54.8685 28.93 55.3485 28.53C55.7685 28.19 56.3185 27.91 56.9985 27.69C57.6985 27.45 58.3785 27.3 59.0385 27.24C59.7985 27.2 60.4885 27.18 61.1085 27.18C62.0285 27.18 62.7585 27.21 63.2985 27.27C63.8585 27.31 64.4685 27.43 65.1285 27.63C65.8485 27.85 66.4285 28.15 66.8685 28.53C67.3285 28.91 67.7185 29.45 68.0385 30.15C68.3385 30.87 68.4885 31.73 68.4885 32.73V37.02C68.4885 37.92 68.3385 38.71 68.0385 39.39C67.7585 40.07 67.3885 40.6 66.9285 40.98C66.5285 41.32 65.9785 41.6 65.2785 41.82C64.5985 42.02 63.9285 42.15 63.2685 42.21C62.6685 42.27 61.9485 42.3 61.1085 42.3ZM61.1085 39.57C61.9285 39.57 62.5485 39.51 62.9685 39.39C63.3885 39.25 63.6785 39.04 63.8385 38.76C64.0185 38.48 64.1085 38.07 64.1085 37.53V32.04C64.1085 31.24 63.8985 30.68 63.4785 30.36C63.0585 30.04 62.2685 29.88 61.1085 29.88C59.9485 29.88 59.1585 30.04 58.7385 30.36C58.3185 30.68 58.1085 31.24 58.1085 32.04V37.53C58.1085 38.07 58.1885 38.48 58.3485 38.76C58.5285 39.04 58.8285 39.25 59.2485 39.39C59.6685 39.51 60.2885 39.57 61.1085 39.57ZM86.0765 42.3C85.3365 42.3 84.7165 42.27 84.2165 42.21C83.7165 42.15 83.2165 42.03 82.7165 41.85C82.1565 41.67 81.6965 41.42 81.3365 41.1C80.9965 40.78 80.7165 40.34 80.4965 39.78C80.2565 39.2 80.1365 38.53 80.1365 37.77V30.18H77.1965V27.48H80.1365V23.28H84.5165V27.48H88.5065V30.18H84.5165V37.02C84.5165 37.72 84.5765 38.25 84.6965 38.61C84.8165 38.95 85.0465 39.2 85.3865 39.36C85.7265 39.5 86.2465 39.57 86.9465 39.57C87.2265 39.57 87.7465 39.52 88.5065 39.42V42.15C87.5665 42.25 86.7565 42.3 86.0765 42.3ZM97.9933 42.3C97.0933 42.3 96.3533 42.27 95.7733 42.21C95.1933 42.15 94.5733 42.03 93.9133 41.85C93.1933 41.65 92.6133 41.37 92.1733 41.01C91.7333 40.63 91.3633 40.1 91.0633 39.42C90.7633 38.76 90.6133 37.96 90.6133 37.02V32.73C90.6133 31.77 90.7633 30.93 91.0633 30.21C91.3633 29.49 91.7533 28.93 92.2333 28.53C92.6533 28.19 93.2033 27.91 93.8833 27.69C94.5833 27.45 95.2633 27.3 95.9233 27.24C96.6833 27.2 97.3733 27.18 97.9933 27.18C98.9133 27.18 99.6433 27.21 100.183 27.27C100.743 27.31 101.353 27.43 102.013 27.63C102.733 27.85 103.313 28.15 103.753 28.53C104.213 28.91 104.603 29.45 104.923 30.15C105.223 30.87 105.373 31.73 105.373 32.73V37.02C105.373 37.92 105.223 38.71 104.923 39.39C104.643 40.07 104.273 40.6 103.813 40.98C103.413 41.32 102.863 41.6 102.163 41.82C101.483 42.02 100.813 42.15 100.153 42.21C99.5533 42.27 98.8333 42.3 97.9933 42.3ZM97.9933 39.57C98.8133 39.57 99.4333 39.51 99.8533 39.39C100.273 39.25 100.563 39.04 100.723 38.76C100.903 38.48 100.993 38.07 100.993 37.53V32.04C100.993 31.24 100.783 30.68 100.363 30.36C99.9433 30.04 99.1533 29.88 97.9933 29.88C96.8333 29.88 96.0433 30.04 95.6233 30.36C95.2033 30.68 94.9933 31.24 94.9933 32.04V37.53C94.9933 38.07 95.0733 38.48 95.2333 38.76C95.4133 39.04 95.7133 39.25 96.1333 39.39C96.5533 39.51 97.1733 39.57 97.9933 39.57ZM121.281 42.3C119.561 42.3 118.291 42.18 117.471 41.94C116.651 41.68 116.081 41.2 115.761 40.5C115.441 39.8 115.281 38.71 115.281 37.23V31.56C115.281 29.96 115.731 28.83 116.631 28.17C117.551 27.51 119.031 27.18 121.071 27.18C122.031 27.18 122.781 27.24 123.321 27.36C123.881 27.46 124.331 27.65 124.671 27.93C125.011 28.19 125.361 28.58 125.721 29.1V21H130.101V42H125.871V40.35C125.511 40.93 125.181 41.34 124.881 41.58C124.601 41.8 124.201 41.97 123.681 42.09C123.141 42.23 122.341 42.3 121.281 42.3ZM122.391 39.57C123.371 39.57 124.091 39.52 124.551 39.42C125.011 39.32 125.321 39.14 125.481 38.88C125.641 38.6 125.721 38.19 125.721 37.65V31.8C125.721 31.3 125.631 30.92 125.451 30.66C125.291 30.38 124.991 30.18 124.551 30.06C124.131 29.94 123.491 29.88 122.631 29.88C121.711 29.88 121.051 29.94 120.651 30.06C120.251 30.16 119.981 30.35 119.841 30.63C119.721 30.89 119.661 31.33 119.661 31.95V37.5C119.661 38.06 119.721 38.49 119.841 38.79C119.981 39.07 120.241 39.27 120.621 39.39C121.001 39.51 121.591 39.57 122.391 39.57ZM134.073 22.23H138.453V25.77H134.073V22.23ZM134.073 27.48H138.453V42H134.073V27.48ZM147.85 42.3C146.29 42.3 144.38 42.15 142.12 41.85V38.94C144.9 39.36 146.83 39.57 147.91 39.57C148.83 39.57 149.51 39.48 149.95 39.3C150.39 39.12 150.61 38.79 150.61 38.31V37.41C150.61 36.91 150.47 36.56 150.19 36.36C149.91 36.14 149.36 36.03 148.54 36.03H146.65C145.11 36.03 143.92 35.73 143.08 35.13C142.24 34.51 141.82 33.61 141.82 32.43V30.66C141.82 29.4 142.42 28.51 143.62 27.99C144.82 27.45 146.63 27.18 149.05 27.18C150.01 27.18 151.73 27.27 154.21 27.45V30.24C151.09 30 149.33 29.88 148.93 29.88C147.75 29.88 146.98 29.96 146.62 30.12C146.3 30.3 146.14 30.63 146.14 31.11V31.89C146.14 32.15 146.27 32.38 146.53 32.58C146.79 32.76 147.17 32.85 147.67 32.85H149.59C153.15 32.85 154.93 34.01 154.93 36.33V38.16C154.93 38.86 154.8 39.47 154.54 39.99C154.28 40.51 153.94 40.92 153.52 41.22C153.12 41.5 152.6 41.72 151.96 41.88C151.34 42.04 150.69 42.15 150.01 42.21C149.39 42.27 148.67 42.3 147.85 42.3ZM165.262 42.3C164.502 42.3 163.902 42.28 163.462 42.24C163.022 42.22 162.482 42.17 161.842 42.09C161.202 42.01 160.672 41.87 160.252 41.67C159.852 41.47 159.432 41.17 158.992 40.77C158.172 40.09 157.762 38.93 157.762 37.29V32.46C157.762 31.14 158.062 30.04 158.662 29.16C158.882 28.84 159.202 28.55 159.622 28.29C160.062 28.01 160.502 27.79 160.942 27.63C161.302 27.51 161.782 27.41 162.382 27.33C162.982 27.25 163.512 27.2 163.972 27.18H165.562C166.682 27.18 168.152 27.36 169.972 27.72V30.6C167.912 30.12 166.332 29.88 165.232 29.88C163.212 29.88 162.202 30.56 162.202 31.92V37.26C162.202 38.8 163.312 39.57 165.532 39.57C166.612 39.57 168.162 39.35 170.182 38.91V41.79C168.362 42.13 166.722 42.3 165.262 42.3ZM179.614 42.3C178.714 42.3 177.974 42.27 177.394 42.21C176.814 42.15 176.194 42.03 175.534 41.85C174.814 41.65 174.234 41.37 173.794 41.01C173.354 40.63 172.984 40.1 172.684 39.42C172.384 38.76 172.234 37.96 172.234 37.02V32.73C172.234 31.77 172.384 30.93 172.684 30.21C172.984 29.49 173.374 28.93 173.854 28.53C174.274 28.19 174.824 27.91 175.504 27.69C176.204 27.45 176.884 27.3 177.544 27.24C178.304 27.2 178.994 27.18 179.614 27.18C180.534 27.18 181.264 27.21 181.804 27.27C182.364 27.31 182.974 27.43 183.634 27.63C184.354 27.85 184.934 28.15 185.374 28.53C185.834 28.91 186.224 29.45 186.544 30.15C186.844 30.87 186.994 31.73 186.994 32.73V37.02C186.994 37.92 186.844 38.71 186.544 39.39C186.264 40.07 185.894 40.6 185.434 40.98C185.034 41.32 184.484 41.6 183.784 41.82C183.104 42.02 182.434 42.15 181.774 42.21C181.174 42.27 180.454 42.3 179.614 42.3ZM179.614 39.57C180.434 39.57 181.054 39.51 181.474 39.39C181.894 39.25 182.184 39.04 182.344 38.76C182.524 38.48 182.614 38.07 182.614 37.53V32.04C182.614 31.24 182.404 30.68 181.984 30.36C181.564 30.04 180.774 29.88 179.614 29.88C178.454 29.88 177.664 30.04 177.244 30.36C176.824 30.68 176.614 31.24 176.614 32.04V37.53C176.614 38.07 176.694 38.48 176.854 38.76C177.034 39.04 177.334 39.25 177.754 39.39C178.174 39.51 178.794 39.57 179.614 39.57ZM190.408 27.48H194.578V30.03C194.578 29.57 194.768 29.12 195.148 28.68C195.528 28.24 196.008 27.88 196.588 27.6C197.188 27.32 197.778 27.18 198.358 27.18H199.918V30.81H198.418C197.178 30.81 196.258 31 195.658 31.38C195.078 31.76 194.788 32.39 194.788 33.27V42H190.408V27.48ZM207.912 42.3C206.192 42.3 204.922 42.18 204.102 41.94C203.282 41.68 202.712 41.2 202.392 40.5C202.072 39.8 201.912 38.71 201.912 37.23V31.56C201.912 29.96 202.362 28.83 203.262 28.17C204.182 27.51 205.662 27.18 207.702 27.18C208.662 27.18 209.412 27.24 209.952 27.36C210.512 27.46 210.962 27.65 211.302 27.93C211.642 28.19 211.992 28.58 212.352 29.1V21H216.732V42H212.502V40.35C212.142 40.93 211.812 41.34 211.512 41.58C211.232 41.8 210.832 41.97 210.312 42.09C209.772 42.23 208.972 42.3 207.912 42.3ZM209.022 39.57C210.002 39.57 210.722 39.52 211.182 39.42C211.642 39.32 211.952 39.14 212.112 38.88C212.272 38.6 212.352 38.19 212.352 37.65V31.8C212.352 31.3 212.262 30.92 212.082 30.66C211.922 30.38 211.622 30.18 211.182 30.06C210.762 29.94 210.122 29.88 209.262 29.88C208.342 29.88 207.682 29.94 207.282 30.06C206.882 30.16 206.612 30.35 206.472 30.63C206.352 30.89 206.292 31.33 206.292 31.95V37.5C206.292 38.06 206.352 38.49 206.472 38.79C206.612 39.07 206.872 39.27 207.252 39.39C207.632 39.51 208.222 39.57 209.022 39.57ZM220.614 37.86H225.174L222.354 45.36H219.234L220.614 37.86ZM240.754 42.3C239.034 42.3 237.764 42.18 236.944 41.94C236.124 41.68 235.554 41.2 235.234 40.5C234.914 39.8 234.754 38.71 234.754 37.23V31.56C234.754 29.96 235.204 28.83 236.104 28.17C237.024 27.51 238.504 27.18 240.544 27.18C241.504 27.18 242.254 27.24 242.794 27.36C243.354 27.46 243.804 27.65 244.144 27.93C244.484 28.19 244.834 28.58 245.194 29.1V21H249.574V42H245.344V40.35C244.984 40.93 244.654 41.34 244.354 41.58C244.074 41.8 243.674 41.97 243.154 42.09C242.614 42.23 241.814 42.3 240.754 42.3ZM241.864 39.57C242.844 39.57 243.564 39.52 244.024 39.42C244.484 39.32 244.794 39.14 244.954 38.88C245.114 38.6 245.194 38.19 245.194 37.65V31.8C245.194 31.3 245.104 30.92 244.924 30.66C244.764 30.38 244.464 30.18 244.024 30.06C243.604 29.94 242.964 29.88 242.104 29.88C241.184 29.88 240.524 29.94 240.124 30.06C239.724 30.16 239.454 30.35 239.314 30.63C239.194 30.89 239.134 31.33 239.134 31.95V37.5C239.134 38.06 239.194 38.49 239.314 38.79C239.454 39.07 239.714 39.27 240.094 39.39C240.474 39.51 241.064 39.57 241.864 39.57ZM258.466 42.3C256.606 42.3 255.296 41.97 254.536 41.31C253.796 40.63 253.426 39.57 253.426 38.13V27.48H257.806V37.53C257.806 38.09 257.856 38.51 257.956 38.79C258.076 39.07 258.296 39.27 258.616 39.39C258.956 39.51 259.466 39.57 260.146 39.57C261.006 39.57 261.636 39.52 262.036 39.42C262.436 39.3 262.706 39.1 262.846 38.82C262.986 38.54 263.056 38.11 263.056 37.53V27.48H267.436V42H263.116V40.23C262.796 41.61 261.246 42.3 258.466 42.3ZM276.848 42.3C275.128 42.3 273.858 42.18 273.038 41.94C272.218 41.68 271.648 41.2 271.328 40.5C271.008 39.8 270.848 38.71 270.848 37.23V31.56C270.848 29.96 271.298 28.83 272.198 28.17C273.118 27.51 274.598 27.18 276.638 27.18C277.598 27.18 278.348 27.24 278.888 27.36C279.448 27.46 279.898 27.65 280.238 27.93C280.578 28.19 280.928 28.58 281.288 29.1V21H285.668V42H281.438V40.35C281.078 40.93 280.748 41.34 280.448 41.58C280.168 41.8 279.768 41.97 279.248 42.09C278.708 42.23 277.908 42.3 276.848 42.3ZM277.958 39.57C278.938 39.57 279.658 39.52 280.118 39.42C280.578 39.32 280.888 39.14 281.048 38.88C281.208 38.6 281.288 38.19 281.288 37.65V31.8C281.288 31.3 281.198 30.92 281.018 30.66C280.858 30.38 280.558 30.18 280.118 30.06C279.698 29.94 279.058 29.88 278.198 29.88C277.278 29.88 276.618 29.94 276.218 30.06C275.818 30.16 275.548 30.35 275.408 30.63C275.288 30.89 275.228 31.33 275.228 31.95V37.5C275.228 38.06 275.288 38.49 275.408 38.79C275.548 39.07 275.808 39.27 276.188 39.39C276.568 39.51 277.158 39.57 277.958 39.57ZM296.81 42.3C291.67 42.3 289.1 40.73 289.1 37.59V32.37C289.1 30.55 289.68 29.23 290.84 28.41C292.02 27.59 293.83 27.18 296.27 27.18C298.57 27.18 300.25 27.58 301.31 28.38C302.39 29.16 302.93 30.49 302.93 32.37V35.91H293.51V37.23C293.51 38.07 293.81 38.67 294.41 39.03C295.01 39.39 296.09 39.57 297.65 39.57C299.09 39.57 300.71 39.36 302.51 38.94V41.73C300.73 42.11 298.83 42.3 296.81 42.3ZM298.76 33.42V31.32C298.76 30.84 298.56 30.48 298.16 30.24C297.78 30 297.13 29.88 296.21 29.88C295.15 29.88 294.44 30 294.08 30.24C293.7 30.5 293.51 30.86 293.51 31.32V33.42H298.76ZM324.626 40.32V36.87L333.326 32.85C333.726 32.67 334.116 32.52 334.496 32.4C334.896 32.26 335.206 32.17 335.426 32.13C335.206 32.09 334.896 32.02 334.496 31.92C334.096 31.8 333.706 31.65 333.326 31.47L324.626 27.42V23.91L338.066 30.24V33.99L324.626 40.32ZM20.1883 65.84V62.36H29.7883V65.84H20.1883ZM38.1766 65.84V62.36H47.7766V65.84H38.1766ZM56.1648 65.84V62.36H65.7648V65.84H56.1648ZM74.1531 65.84V62.36H83.7531V65.84H74.1531ZM92.1414 65.84V62.36H101.741V65.84H92.1414ZM110.13 65.84V62.36H119.73V65.84H110.13ZM128.118 65.84V62.36H137.718V65.84H128.118ZM146.106 65.84V62.36H155.706V65.84H146.106ZM164.095 65.84V62.36H173.695V65.84H164.095ZM182.083 65.84V62.36H191.683V65.84H182.083ZM200.071 65.84V62.36H209.671V65.84H200.071ZM218.059 65.84V62.36H227.659V65.84H218.059ZM236.048 65.84V62.36H245.648V65.84H236.048ZM254.036 65.84V62.36H263.636V65.84H254.036ZM272.024 65.84V62.36H281.624V65.84H272.024ZM290.013 65.84V62.36H299.613V65.84H290.013ZM308.001 65.84V62.36H317.601V65.84H308.001ZM154.176 109.3L143.706 81.1H147.606L158.076 109.3H154.176ZM215.899 95.8L221.089 84.1H224.689L229.819 95.8H226.309L223.549 88.9C223.389 88.46 223.249 88.05 223.129 87.67C223.029 87.29 222.959 87 222.919 86.8C222.879 87 222.789 87.29 222.649 87.67C222.529 88.05 222.389 88.46 222.229 88.9L219.379 95.8H215.899ZM233.636 110.14V106.75H266.036V110.14H233.636ZM269.864 95.8L275.054 84.1H278.654L283.784 95.8H280.274L277.514 88.9C277.354 88.46 277.214 88.05 277.094 87.67C276.994 87.29 276.924 87 276.884 86.8C276.844 87 276.754 87.29 276.614 87.67C276.494 88.05 276.354 88.46 276.194 88.9L273.344 95.8H269.864ZM172.165 141.3L161.695 113.1H165.595L176.065 141.3H172.165ZM228.409 141.6C225.369 140.8 223.019 139.39 221.359 137.37C219.699 135.33 218.869 132.85 218.869 129.93V124.5C218.869 122.58 219.249 120.84 220.009 119.28C220.789 117.7 221.889 116.36 223.309 115.26C224.749 114.14 226.449 113.32 228.409 112.8V116.49C227.229 116.77 226.199 117.28 225.319 118.02C224.459 118.76 223.799 119.68 223.339 120.78C222.879 121.88 222.649 123.12 222.649 124.5V129.93C222.649 131.27 222.879 132.49 223.339 133.59C223.799 134.67 224.459 135.58 225.319 136.32C226.199 137.04 227.229 137.54 228.409 137.82V141.6ZM240.848 138.27C239.448 138.27 238.228 138.01 237.188 137.49C236.168 136.95 235.368 136.2 234.788 135.24C234.228 134.26 233.948 133.11 233.948 131.79V127.71C233.948 126.39 234.228 125.25 234.788 124.29C235.368 123.31 236.168 122.56 237.188 122.04C238.228 121.5 239.448 121.23 240.848 121.23C242.268 121.23 243.488 121.5 244.508 122.04C245.528 122.56 246.318 123.31 246.878 124.29C247.458 125.25 247.748 126.38 247.748 127.68V131.79C247.748 133.11 247.458 134.26 246.878 135.24C246.318 136.2 245.528 136.95 244.508 137.49C243.488 138.01 242.268 138.27 240.848 138.27ZM240.848 135C241.848 135 242.618 134.73 243.158 134.19C243.718 133.63 243.998 132.83 243.998 131.79V127.71C243.998 126.65 243.718 125.85 243.158 125.31C242.618 124.77 241.848 124.5 240.848 124.5C239.868 124.5 239.098 124.77 238.538 125.31C237.978 125.85 237.698 126.65 237.698 127.71V131.79C237.698 132.83 237.978 133.63 238.538 134.19C239.098 134.73 239.868 135 240.848 135ZM258.836 138.27C257.436 138.27 256.216 138.01 255.176 137.49C254.156 136.95 253.356 136.2 252.776 135.24C252.216 134.26 251.936 133.11 251.936 131.79V127.71C251.936 126.39 252.216 125.25 252.776 124.29C253.356 123.31 254.156 122.56 255.176 122.04C256.216 121.5 257.436 121.23 258.836 121.23C260.256 121.23 261.476 121.5 262.496 122.04C263.516 122.56 264.306 123.31 264.866 124.29C265.446 125.25 265.736 126.38 265.736 127.68V131.79C265.736 133.11 265.446 134.26 264.866 135.24C264.306 136.2 263.516 136.95 262.496 137.49C261.476 138.01 260.256 138.27 258.836 138.27ZM258.836 135C259.836 135 260.606 134.73 261.146 134.19C261.706 133.63 261.986 132.83 261.986 131.79V127.71C261.986 126.65 261.706 125.85 261.146 125.31C260.606 124.77 259.836 124.5 258.836 124.5C257.856 124.5 257.086 124.77 256.526 125.31C255.966 125.85 255.686 126.65 255.686 127.71V131.79C255.686 132.83 255.966 133.63 256.526 134.19C257.086 134.73 257.856 135 258.836 135ZM271.274 141.6V137.82C272.474 137.54 273.504 137.04 274.364 136.32C275.224 135.58 275.884 134.67 276.344 133.59C276.804 132.49 277.034 131.27 277.034 129.93V124.5C277.034 123.12 276.804 121.88 276.344 120.78C275.884 119.68 275.224 118.76 274.364 118.02C273.504 117.28 272.474 116.77 271.274 116.49V112.8C273.254 113.32 274.954 114.14 276.374 115.26C277.794 116.36 278.884 117.7 279.644 119.28C280.424 120.84 280.814 122.58 280.814 124.5V129.93C280.814 132.85 279.984 135.33 278.324 137.37C276.664 139.39 274.314 140.8 271.274 141.6ZM298.083 141.3L287.613 113.1H291.513L301.983 141.3H298.083ZM305.601 142.14V138.75H320.001V142.14H305.601ZM323.589 142.14V138.75H337.989V142.14H323.589ZM341.577 142.14V138.75H355.977V142.14H341.577ZM359.566 142.14V138.75H373.966V142.14H359.566ZM377.554 142.14V138.75H391.954V142.14H377.554ZM395.542 142.14V138.75H409.942V142.14H395.542ZM413.53 142.14V138.75H427.93V142.14H413.53ZM228.409 173.6C225.369 172.8 223.019 171.39 221.359 169.37C219.699 167.33 218.869 164.85 218.869 161.93V156.5C218.869 154.58 219.249 152.84 220.009 151.28C220.789 149.7 221.889 148.36 223.309 147.26C224.749 146.14 226.449 145.32 228.409 144.8V148.49C227.229 148.77 226.199 149.28 225.319 150.02C224.459 150.76 223.799 151.68 223.339 152.78C222.879 153.88 222.649 155.12 222.649 156.5V161.93C222.649 163.27 222.879 164.49 223.339 165.59C223.799 166.67 224.459 167.58 225.319 168.32C226.199 169.04 227.229 169.54 228.409 169.82V173.6ZM233.636 174.14V170.75H266.036V174.14H233.636ZM271.274 173.6V169.82C272.474 169.54 273.504 169.04 274.364 168.32C275.224 167.58 275.884 166.67 276.344 165.59C276.804 164.49 277.034 163.27 277.034 161.93V156.5C277.034 155.12 276.804 153.88 276.344 152.78C275.884 151.68 275.224 150.76 274.364 150.02C273.504 149.28 272.474 148.77 271.274 148.49V144.8C273.254 145.32 274.954 146.14 276.374 147.26C277.794 148.36 278.884 149.7 279.644 151.28C280.424 152.84 280.814 154.58 280.814 156.5V161.93C280.814 164.85 279.984 167.33 278.324 169.37C276.664 171.39 274.314 172.8 271.274 173.6ZM298.083 173.3L287.613 145.1H291.513L301.983 173.3H298.083ZM433.169 173.6V169.82C434.369 169.54 435.399 169.04 436.259 168.32C437.119 167.58 437.779 166.67 438.239 165.59C438.699 164.49 438.929 163.27 438.929 161.93V156.5C438.929 155.12 438.699 153.88 438.239 152.78C437.779 151.68 437.119 150.76 436.259 150.02C435.399 149.28 434.369 148.77 433.169 148.49V144.8C435.149 145.32 436.849 146.14 438.269 147.26C439.689 148.36 440.779 149.7 441.539 151.28C442.319 152.84 442.709 154.58 442.709 156.5V161.93C442.709 164.85 441.879 167.33 440.219 169.37C438.559 171.39 436.209 172.8 433.169 173.6ZM459.977 173.3L449.507 145.1H453.407L463.877 173.3H459.977ZM467.495 173.3L477.995 145.1H481.895L471.395 173.3H467.495ZM495.954 173.3L485.484 145.1H489.384L499.854 173.3H495.954ZM308.349 204.55V179.5H312.129V190.36H332.889V193.84H312.129V204.55H308.349ZM295.449 204.55V179.5H299.229V204.55H295.449ZM376.204 193.84V190.36H389.554V193.84H376.204ZM343.954 193.84V190.36H357.304V193.84H343.954ZM360.154 193.84V190.36H373.354V193.84H360.154ZM396.862 202L394.342 185.5H397.462L398.842 195.61C398.922 196.19 398.992 196.83 399.052 197.53C399.132 198.23 399.192 198.81 399.232 199.27C399.292 198.81 399.372 198.23 399.472 197.53C399.572 196.83 399.662 196.19 399.742 195.61L401.302 185.5H404.212L405.742 195.61C405.822 196.19 405.912 196.84 406.012 197.56C406.112 198.26 406.192 198.84 406.252 199.3C406.292 198.82 406.352 198.23 406.432 197.53C406.532 196.81 406.612 196.17 406.672 195.61L408.142 185.5H411.142L408.562 202H404.692L403.252 191.83C403.172 191.27 403.082 190.65 402.982 189.97C402.882 189.27 402.802 188.7 402.742 188.26C402.682 188.7 402.602 189.27 402.502 189.97C402.422 190.65 402.332 191.27 402.232 191.83L400.732 202H396.862ZM436.829 205.3V177.1H440.609V205.3H436.829ZM309.111 237.3V209.1H312.891V237.3H309.111ZM294.711 237.3V209.1H298.491V237.3H294.711ZM435.029 237.3V209.1H438.809V237.3H435.029ZM420.629 237.3V209.1H424.409V237.3H420.629Z" fill="#FFDC83"/>
</svg>
