<svg width="128" height="128" viewBox="0 0 128 128" fill="none" xmlns="http://www.w3.org/2000/svg">
<path d="M11.0769 109.415C13.1148 109.415 14.7692 111.07 14.7692 113.108C14.7692 115.148 13.1148 116.8 11.0769 116.8C9.03901 116.8 7.38461 115.148 7.38461 113.108C7.38461 111.07 9.03901 109.415 11.0769 109.415Z" fill="#6764E9"/>
<path d="M112 20.8C114.038 20.8 115.692 22.4541 115.692 24.4923C115.692 26.5329 114.038 28.1846 112 28.1846C109.962 28.1846 108.308 26.5329 108.308 24.4923C108.308 22.4541 109.962 20.8 112 20.8Z" fill="#6764E9"/>
<path d="M22.1538 101.908V89.6V77.2923V64.9846V52.6769V40.3692V28.0615V15.8769V8.49231H36.9231V106.954H22.1538V101.908Z" fill="#F5AD1C"/>
<path d="M73.9176 84.8L84.3619 81.3194L98.4616 67.2197V106.954H36.9231V8.49231H98.4616V53.2948L77.4006 74.3582L73.9176 84.8Z" fill="#6764E9"/>
<path d="M115.68 89.4794C115.687 89.563 115.692 89.6443 115.692 89.728C115.692 90.976 114.745 92.0443 113.477 92.1725C113.393 92.1799 113.31 92.1848 113.228 92.1848C111.978 92.1848 110.91 91.2371 110.782 89.9694C110.774 89.8858 110.769 89.8021 110.769 89.7208C110.769 88.4704 111.717 87.4021 112.987 87.2741C114.338 87.1384 115.545 88.1255 115.68 89.4794Z" fill="#6764E9"/>
<path d="M110.757 74.7102C110.764 74.7939 110.769 74.8751 110.769 74.9588C110.769 76.2068 109.822 77.2751 108.554 77.4034C108.47 77.4107 108.386 77.4157 108.305 77.4157C107.055 77.4157 105.986 76.468 105.858 75.2003C105.851 75.1166 105.846 75.0329 105.846 74.9517C105.846 73.7012 106.794 72.6329 108.064 72.5049C109.415 72.3693 110.622 73.3563 110.757 74.7102Z" fill="#6764E9"/>
<path d="M83.6923 116.8C83.6997 116.884 83.7046 116.967 83.7046 117.049C83.7046 118.299 82.7569 119.367 81.4868 119.495C81.4031 119.503 81.3219 119.508 81.2382 119.508C79.9902 119.508 78.9219 118.56 78.7936 117.29C78.7865 117.206 78.7813 117.125 78.7813 117.041C78.7813 115.793 79.7292 114.725 80.9967 114.597C82.3508 114.462 83.5569 115.449 83.6923 116.8Z" fill="#6764E9"/>
<path d="M73.8461 87.2615H46.7692C45.4097 87.2615 44.3077 86.1592 44.3077 84.8C44.3077 83.4407 45.4097 82.3384 46.7692 82.3384H73.8461C75.2054 82.3384 76.3077 83.4407 76.3077 84.8C76.3077 86.1592 75.2054 87.2615 73.8461 87.2615Z" fill="white"/>
<path d="M66.4615 77.4154H46.7692C45.4097 77.4154 44.3077 76.3131 44.3077 74.9538C44.3077 73.5946 45.4097 72.4923 46.7692 72.4923H66.4615C67.8208 72.4923 68.9231 73.5946 68.9231 74.9538C68.9231 76.3131 67.8208 77.4154 66.4615 77.4154Z" fill="white"/>
<path d="M61.5384 67.5693H46.7692C45.4097 67.5693 44.3077 66.467 44.3077 65.1077C44.3077 63.7485 45.4097 62.6462 46.7692 62.6462H61.5384C62.898 62.6462 64 63.7485 64 65.1077C64 66.467 62.898 67.5693 61.5384 67.5693Z" fill="white"/>
<path d="M83.6923 57.7231H46.7692C45.4097 57.7231 44.3077 56.621 44.3077 55.2615C44.3077 53.902 45.4097 52.8 46.7692 52.8H83.6923C85.0516 52.8 86.1538 53.902 86.1538 55.2615C86.1538 56.621 85.0516 57.7231 83.6923 57.7231Z" fill="white"/>
<path d="M88.6154 47.8769H46.7692C45.4097 47.8769 44.3077 46.7749 44.3077 45.4154C44.3077 44.0559 45.4097 42.9539 46.7692 42.9539H88.6154C89.9746 42.9539 91.0769 44.0559 91.0769 45.4154C91.0769 46.7749 89.9746 47.8769 88.6154 47.8769Z" fill="white"/>
<path d="M73.8461 38.0307H46.7692C45.4097 38.0307 44.3077 36.9287 44.3077 35.5692C44.3077 34.2097 45.4097 33.1077 46.7692 33.1077H73.8461C75.2054 33.1077 76.3077 34.2097 76.3077 35.5692C76.3077 36.9287 75.2054 38.0307 73.8461 38.0307Z" fill="white"/>
<path d="M88.6154 28.1846H46.7692C45.4097 28.1846 44.3077 27.0826 44.3077 25.7231C44.3077 24.3636 45.4097 23.2615 46.7692 23.2615H88.6154C89.9746 23.2615 91.0769 24.3636 91.0769 25.7231C91.0769 27.0826 89.9746 28.1846 88.6154 28.1846Z" fill="white"/>
<path d="M20.9231 30.6462C16.1725 30.6462 12.3077 26.7813 12.3077 22.0308C12.3077 17.2803 16.1725 13.4154 20.9231 13.4154C22.2826 13.4154 23.3846 14.5174 23.3846 15.8769C23.3846 17.2365 22.2826 18.3385 20.9231 18.3385C18.8871 18.3385 17.2308 19.9949 17.2308 22.0308C17.2308 24.0667 18.8871 25.7231 20.9231 25.7231C21.1741 25.7231 21.423 25.6982 21.6625 25.6495C23.374 25.3017 24.6154 23.7797 24.6154 22.0308C24.6154 20.6713 25.7174 19.5693 27.0769 19.5693C28.4364 19.5693 29.5384 20.6713 29.5384 22.0308C29.5384 26.1108 26.639 29.6616 22.6442 30.4736C22.0832 30.5881 21.5035 30.6462 20.9231 30.6462Z" fill="#393939"/>
<path d="M20.9231 42.9539C16.1725 42.9539 12.3077 39.089 12.3077 34.3385C12.3077 29.5879 16.1725 25.7231 20.9231 25.7231C22.2826 25.7231 23.3846 26.8251 23.3846 28.1846C23.3846 29.5441 22.2826 30.6462 20.9231 30.6462C18.8871 30.6462 17.2308 32.3025 17.2308 34.3385C17.2308 36.3744 18.8871 38.0308 20.9231 38.0308C21.1741 38.0308 21.423 38.0059 21.6625 37.9572C23.374 37.6094 24.6154 36.0874 24.6154 34.3385C24.6154 32.979 25.7174 31.8769 27.0769 31.8769C28.4364 31.8769 29.5384 32.979 29.5384 34.3385C29.5384 38.4185 26.639 41.9692 22.6442 42.7813C22.0832 42.8958 21.5035 42.9539 20.9231 42.9539Z" fill="#323133"/>
<path d="M20.9231 55.2615C16.1725 55.2615 12.3077 51.3967 12.3077 46.6461C12.3077 41.8956 16.1725 38.0308 20.9231 38.0308C22.2826 38.0308 23.3846 39.1328 23.3846 40.4923C23.3846 41.8518 22.2826 42.9538 20.9231 42.9538C18.8871 42.9538 17.2308 44.6102 17.2308 46.6461C17.2308 48.6821 18.8871 50.3385 20.9231 50.3385C21.1741 50.3385 21.423 50.3136 21.6625 50.2649C23.374 49.917 24.6154 48.3951 24.6154 46.6461C24.6154 45.2866 25.7174 44.1846 27.0769 44.1846C28.4364 44.1846 29.5384 45.2866 29.5384 46.6461C29.5384 50.7261 26.639 54.2769 22.6442 55.089C22.0832 55.2034 21.5035 55.2615 20.9231 55.2615Z" fill="#393939"/>
<path d="M20.9231 67.5692C16.1725 67.5692 12.3077 63.7043 12.3077 58.9538C12.3077 54.2033 16.1725 50.3384 20.9231 50.3384C22.2826 50.3384 23.3846 51.4405 23.3846 52.8C23.3846 54.1595 22.2826 55.2615 20.9231 55.2615C18.8871 55.2615 17.2308 56.9179 17.2308 58.9538C17.2308 60.9898 18.8871 62.6461 20.9231 62.6461C21.1741 62.6461 21.423 62.6213 21.6625 62.5725C23.374 62.2247 24.6154 60.7027 24.6154 58.9538C24.6154 57.5943 25.7174 56.4923 27.0769 56.4923C28.4364 56.4923 29.5384 57.5943 29.5384 58.9538C29.5384 63.0336 26.639 66.5843 22.6442 67.3969C22.0832 67.5111 21.5035 67.5692 20.9231 67.5692Z" fill="#323133"/>
<path d="M20.9231 79.8769C16.1725 79.8769 12.3077 76.0121 12.3077 71.2616C12.3077 66.511 16.1725 62.6462 20.9231 62.6462C22.2826 62.6462 23.3846 63.7485 23.3846 65.1077C23.3846 66.467 22.2826 67.5693 20.9231 67.5693C18.8871 67.5693 17.2308 69.2256 17.2308 71.2616C17.2308 73.2975 18.8871 74.9539 20.9231 74.9539C21.1741 74.9539 21.423 74.929 21.6625 74.8803C23.374 74.5322 24.6154 73.0102 24.6154 71.2616C24.6154 69.9023 25.7174 68.8 27.0769 68.8C28.4364 68.8 29.5384 69.9023 29.5384 71.2616C29.5384 75.3413 26.639 78.8921 22.6442 79.7046C22.0832 79.8189 21.5035 79.8769 20.9231 79.8769Z" fill="#393939"/>
<path d="M20.9231 92.1846C16.1725 92.1846 12.3077 88.3198 12.3077 83.5692C12.3077 78.8187 16.1725 74.9539 20.9231 74.9539C22.2826 74.9539 23.3846 76.0561 23.3846 77.4154C23.3846 78.7747 22.2826 79.8769 20.9231 79.8769C18.8871 79.8769 17.2308 81.5333 17.2308 83.5692C17.2308 85.6052 18.8871 87.2616 20.9231 87.2616C21.1741 87.2616 21.423 87.2367 21.6625 87.1879C23.374 86.8399 24.6154 85.3179 24.6154 83.5692C24.6154 82.21 25.7174 81.1077 27.0769 81.1077C28.4364 81.1077 29.5384 82.21 29.5384 83.5692C29.5384 87.649 26.639 91.1998 22.6442 92.0123C22.0832 92.1265 21.5035 92.1846 20.9231 92.1846Z" fill="#323133"/>
<path d="M20.9231 104.492C16.1725 104.492 12.3077 100.627 12.3077 95.8769C12.3077 91.1264 16.1725 87.2615 20.9231 87.2615C22.2826 87.2615 23.3846 88.3638 23.3846 89.7231C23.3846 91.0823 22.2826 92.1846 20.9231 92.1846C18.8871 92.1846 17.2308 93.841 17.2308 95.8769C17.2308 97.9129 18.8871 99.5692 20.9231 99.5692C21.1741 99.5692 21.423 99.5444 21.6625 99.4956C23.374 99.1476 24.6154 97.6256 24.6154 95.8769C24.6154 94.5177 25.7174 93.4154 27.0769 93.4154C28.4364 93.4154 29.5384 94.5177 29.5384 95.8769C29.5384 99.9567 26.639 103.507 22.6442 104.32C22.0832 104.434 21.5035 104.492 20.9231 104.492Z" fill="#393939"/>
<path d="M119.173 39.5446C120.133 40.5071 120.615 41.7674 120.615 43.0277C120.615 44.288 120.133 45.5483 119.173 46.5083L113.268 52.416L113.231 52.3791L106.307 45.4523L112.212 39.5446C114.134 37.6222 117.25 37.6222 119.173 39.5446Z" fill="#F5AD1C"/>
<path d="M113.268 52.416L98.4615 67.2197L84.3618 81.3194L73.9175 84.8L77.4006 74.3582L98.4615 53.2948L106.306 45.4523L113.231 52.3791L113.268 52.416Z" fill="#393939"/>
</svg>
