<svg width="128" height="128" viewBox="0 0 128 128" fill="none" xmlns="http://www.w3.org/2000/svg">
<path d="M109.615 21.375C113.757 21.375 117.115 18.0171 117.115 13.875C117.115 9.73286 113.757 6.375 109.615 6.375C105.473 6.375 102.115 9.73286 102.115 13.875C102.115 18.0171 105.473 21.375 109.615 21.375Z" fill="#F5AD1C"/>
<path d="M14.6152 11.375C17.3777 11.375 19.6152 13.6125 19.6152 16.375C19.6152 19.1375 17.3777 21.375 14.6152 21.375C11.8527 21.375 9.61525 19.1375 9.61525 16.375C9.61525 13.6125 11.8527 11.375 14.6152 11.375Z" fill="#F5AD1C"/>
<path d="M34.8925 116.375H24.06H16.8375V109.985C16.8375 103.542 22.06 98.32 28.505 98.32H29.475H30.4478C36.8925 98.32 42.1152 103.543 42.1152 109.985V116.375H34.8925V116.375Z" fill="#F5AD1C"/>
<path d="M94.0602 116.375H86.8375V109.985C86.8375 103.542 92.0602 98.32 98.505 98.32H99.4753H100.448C106.893 98.32 112.115 103.543 112.115 109.985V116.375H104.893H94.0602V116.375Z" fill="#6764E9"/>
<path d="M42.1152 121.375C42.1152 118.514 42.1152 110.622 42.1152 107.847C42.1152 99.0577 49.2402 91.93 58.0327 91.93C62.0552 91.93 66.7775 91.93 70.9202 91.93C79.7102 91.93 86.8378 99.0577 86.8378 107.847C86.8378 111.759 86.8378 119.229 86.8378 121.375C77.4248 121.375 51.4792 121.375 42.1152 121.375Z" fill="#393939"/>
<path d="M99.4753 83.875C103.465 83.875 106.698 87.1075 106.698 91.0975C106.698 95.085 103.465 98.3203 99.4753 98.3203C95.4878 98.3203 92.2525 95.0853 92.2525 91.0975C92.2528 87.1075 95.4878 83.875 99.4753 83.875Z" fill="#F5AD1C"/>
<path d="M29.475 83.875C33.465 83.875 36.6978 87.1075 36.6978 91.0975C36.6978 95.085 33.465 98.3203 29.475 98.3203C25.4878 98.3203 22.255 95.0853 22.255 91.0975C22.2552 87.1075 25.4878 83.875 29.475 83.875Z" fill="#F5AD1C"/>
<path d="M64.4778 66.375C71.5328 66.375 77.255 72.095 77.255 79.1525C77.255 86.2097 71.5325 91.9297 64.4778 91.9297C57.4203 91.9297 51.6978 86.2097 51.6978 79.1525C51.6978 72.095 57.4203 66.375 64.4778 66.375Z" fill="#F5AD1C"/>
<path d="M114.615 41.375C115.995 41.375 117.115 42.495 117.115 43.875C117.115 45.255 115.995 46.375 114.615 46.375C113.235 46.375 112.115 45.255 112.115 43.875C112.115 42.495 113.235 41.375 114.615 41.375Z" fill="#6764E9"/>
<path d="M114.615 81.375C115.995 81.375 117.115 82.495 117.115 83.875C117.115 85.255 115.995 86.375 114.615 86.375C113.235 86.375 112.115 85.255 112.115 83.875C112.115 82.495 113.235 81.375 114.615 81.375Z" fill="#6764E9"/>
<path d="M84.6152 81.375C85.9952 81.375 87.1152 82.495 87.1152 83.875C87.1152 85.255 85.9952 86.375 84.6152 86.375C83.2352 86.375 82.1152 85.255 82.1152 83.875C82.1152 82.495 83.2352 81.375 84.6152 81.375Z" fill="#6764E9"/>
<path d="M67.1152 46.375C68.4952 46.375 69.6152 47.495 69.6152 48.875C69.6152 50.255 68.4952 51.375 67.1152 51.375C65.7352 51.375 64.6152 50.255 64.6152 48.875C64.6152 47.495 65.7352 46.375 67.1152 46.375Z" fill="#6764E9"/>
<path d="M52.1152 53.875C53.4952 53.875 54.6152 54.995 54.6152 56.375C54.6152 57.755 53.4952 58.875 52.1152 58.875C50.735 58.875 49.6152 57.755 49.6152 56.375C49.6152 54.995 50.735 53.875 52.1152 53.875Z" fill="#6764E9"/>
<path d="M12.1152 41.375C13.4952 41.375 14.6152 42.495 14.6152 43.875C14.6152 45.255 13.4952 46.375 12.1152 46.375C10.735 46.375 9.61525 45.255 9.61525 43.875C9.61525 42.495 10.735 41.375 12.1152 41.375Z" fill="#6764E9"/>
<path d="M12.1152 78.875C13.4952 78.875 14.6152 79.995 14.6152 81.375C14.6152 82.755 13.4952 83.875 12.1152 83.875C10.735 83.875 9.61525 82.755 9.61525 81.375C9.61525 79.995 10.735 78.875 12.1152 78.875Z" fill="#6764E9"/>
<path d="M7.11525 111.375C8.49525 111.375 9.61525 112.495 9.61525 113.875C9.61525 115.255 8.49525 116.375 7.11525 116.375C5.735 116.375 4.61525 115.255 4.61525 113.875C4.61525 112.495 5.735 111.375 7.11525 111.375Z" fill="#6764E9"/>
<path d="M25.8805 75.8805C24.8733 75.8805 23.9243 75.2675 23.544 74.2702C22.7195 72.1072 22.07 69.8732 21.6065 67.6077L8.725 65.68C7.501 65.497 6.595 64.4455 6.595 63.2075V55.595C6.595 54.3582 7.49925 53.3072 8.7225 53.123L21.6065 51.1815C21.9473 49.5165 22.3888 47.8675 22.926 46.2505L12.7345 38.1302C11.7655 37.3582 11.5082 35.993 12.1295 34.9212L15.9445 28.3412C16.5642 27.2725 17.871 26.816 19.0212 27.2682L31.155 32.0335C32.2815 30.7652 33.4845 29.562 34.7533 28.4355L29.9877 16.2992C29.5362 15.1492 29.9925 13.8417 31.0615 13.2225L37.6415 9.40999C38.7135 8.78849 40.0782 9.04649 40.85 10.0152L48.9697 20.206C50.5832 19.6692 52.2325 19.228 53.902 18.8867L55.8455 6.00249C56.0297 4.77949 57.0807 3.87549 58.3175 3.87549H65.9275C67.165 3.87549 68.2165 4.78099 68.4 6.00499L70.3303 18.887C71.999 19.2282 73.6475 19.6692 75.2605 20.2057L83.38 10.015C84.1515 9.04674 85.5145 8.78924 86.5865 9.40849L93.1815 13.221C94.2528 13.8402 94.7097 15.15 94.2565 16.3012L89.4805 28.4315C90.7512 29.5552 91.9585 30.7597 93.09 32.0332L105.224 27.268C106.374 26.8162 107.684 27.2732 108.302 28.3447L112.102 34.9247C112.721 35.9962 112.463 37.3592 111.495 38.1302L101.31 46.2457C101.853 47.8637 102.294 49.5145 102.631 51.1825L115.507 53.1227C116.73 53.307 117.635 54.358 117.635 55.5947V63.2072C117.635 64.445 116.729 65.4965 115.505 65.6797L102.631 67.6065C102.173 69.8782 101.52 72.1165 100.682 74.282C100.183 75.5695 98.7355 76.2095 97.4475 75.7112C96.16 75.213 95.52 73.7652 96.0182 72.4772C96.9502 70.0695 97.6215 67.5597 98.014 65.018C98.181 63.9365 99.0323 63.0892 100.115 62.9272L112.634 61.0535V57.7462L100.112 55.8592C99.0307 55.6965 98.1807 54.8497 98.0137 53.769C97.6215 51.2295 96.9498 48.7195 96.0178 46.3087C95.6238 45.2897 95.9372 44.1327 96.7917 43.452L106.696 35.561L105.048 32.7082L93.2558 37.3392C92.2425 37.7367 91.0895 37.434 90.403 36.5902C88.767 34.5802 86.9242 32.742 84.9255 31.1267C84.0765 30.4405 83.771 29.2825 84.1708 28.2665L88.8145 16.472L85.9475 14.8147L78.057 24.718C77.3787 25.5692 76.228 25.8847 75.21 25.4957C72.801 24.5762 70.2833 23.9025 67.7268 23.4937C66.651 23.3217 65.8105 22.473 65.649 21.3955L63.7745 8.87499H60.4687L58.5797 21.398C58.4175 22.4742 57.5772 23.3217 56.5022 23.4937C53.9457 23.9025 51.4282 24.576 49.019 25.4957C48.0022 25.884 46.8505 25.5695 46.172 24.718L38.2827 14.8165L35.427 16.4712L40.0592 28.269C40.4567 29.2815 40.154 30.435 39.3102 31.1217C37.3092 32.7502 35.4692 34.5902 33.841 36.5907C33.1542 37.4347 32.0008 37.7375 30.9883 37.3397L19.1925 32.7075L17.5365 35.5637L27.4375 43.4525C28.2883 44.1302 28.6032 45.2807 28.216 46.2972C27.294 48.7185 26.6202 51.237 26.2132 53.7825C26.0412 54.8575 25.1935 55.6975 24.117 55.8597L11.5945 57.7467V61.054L24.1145 62.9277C25.1923 63.089 26.0412 63.9297 26.2132 65.006C26.6202 67.5535 27.294 70.0717 28.2157 72.49C28.7075 73.7802 28.0603 75.2245 26.77 75.7165C26.4775 75.8277 26.1765 75.8805 25.8805 75.8805Z" fill="#6764E9"/>
<path d="M87.1152 61.375C85.7347 61.375 84.6152 60.2557 84.6152 58.875C84.6152 46.4685 74.5217 36.375 62.1152 36.375C49.7087 36.375 39.6152 46.4685 39.6152 58.875C39.6152 60.2557 38.4957 61.375 37.1152 61.375C35.7345 61.375 34.6152 60.2557 34.6152 58.875C34.6152 43.7115 46.9517 31.375 62.1152 31.375C77.2787 31.375 89.6152 43.7115 89.6152 58.875C89.6152 60.2557 88.4957 61.375 87.1152 61.375Z" fill="#6764E9"/>
</svg>
