<svg width="890" height="369" viewBox="0 0 890 369" fill="none" xmlns="http://www.w3.org/2000/svg">
<path d="M502.375 4V6.625H499.75V4H502.375ZM497.125 6.625H499.75V9.25H497.125V6.625ZM494.5 9.25H497.125V11.875H494.5V9.25ZM491.875 11.875H494.5V14.5H491.875V11.875ZM489.25 14.5H491.875V17.125H489.25V14.5ZM486.625 17.125H489.25V19.75H486.625V17.125ZM484 19.75H486.625V22.375H484V19.75ZM518.125 14.5H520.75V17.125H512.875V14.5H510.25V11.875H507.625V9.25H515.5V11.875H518.125V14.5ZM505 11.875H507.625V14.5H505V11.875ZM523.375 11.875V14.5H520.75V11.875H523.375ZM539.125 14.5H541.75V17.125H533.875V14.5H531.25V11.875H528.625V9.25H536.5V11.875H539.125V14.5ZM526 11.875H528.625V14.5H526V11.875ZM544.375 11.875V14.5H541.75V11.875H544.375ZM560.125 14.5H562.75V17.125H554.875V14.5H552.25V11.875H549.625V9.25H557.5V11.875H560.125V14.5ZM547 11.875H549.625V14.5H547V11.875ZM565.375 11.875V14.5H562.75V11.875H565.375ZM581.125 14.5H583.75V17.125H575.875V14.5H573.25V11.875H570.625V9.25H578.5V11.875H581.125V14.5ZM568 11.875H570.625V14.5H568V11.875ZM586.375 11.875V14.5H583.75V11.875H586.375ZM602.125 14.5H604.75V17.125H596.875V14.5H594.25V11.875H591.625V9.25H599.5V11.875H602.125V14.5ZM589 11.875H591.625V14.5H589V11.875ZM607.375 11.875V14.5H604.75V11.875H607.375ZM623.125 14.5H625.75V17.125H617.875V14.5H615.25V11.875H612.625V9.25H620.5V11.875H623.125V14.5ZM610 11.875H612.625V14.5H610V11.875ZM628.375 11.875V14.5H625.75V11.875H628.375ZM644.125 14.5H646.75V17.125H638.875V14.5H636.25V11.875H633.625V9.25H641.5V11.875H644.125V14.5ZM631 11.875H633.625V14.5H631V11.875ZM649.375 11.875V14.5H646.75V11.875H649.375ZM665.125 14.5H667.75V17.125H659.875V14.5H657.25V11.875H654.625V9.25H662.5V11.875H665.125V14.5ZM652 11.875H654.625V14.5H652V11.875ZM670.375 11.875V14.5H667.75V11.875H670.375ZM691.375 4V6.625H688.75V4H691.375ZM686.125 6.625H688.75V9.25H686.125V6.625ZM683.5 9.25H686.125V11.875H683.5V9.25ZM680.875 11.875H683.5V14.5H680.875V11.875ZM678.25 14.5H680.875V17.125H678.25V14.5ZM675.625 17.125H678.25V19.75H675.625V17.125ZM673 19.75H675.625V22.375H673V19.75ZM701.875 22.375V4H707.125V22.375H701.875ZM481.375 32V34.625H478.75V32H481.375ZM476.125 34.625H478.75V37.25H476.125V34.625ZM473.5 37.25H476.125V39.875H473.5V37.25ZM470.875 39.875H473.5V42.5H470.875V39.875ZM468.25 42.5H470.875V45.125H468.25V42.5ZM465.625 45.125H468.25V47.75H465.625V45.125ZM463 47.75H465.625V50.375H463V47.75ZM523.375 32V34.625H520.75V32H523.375ZM518.125 34.625H520.75V37.25H518.125V34.625ZM515.5 37.25H518.125V39.875H515.5V37.25ZM512.875 39.875H515.5V42.5H512.875V39.875ZM510.25 42.5H512.875V45.125H510.25V42.5ZM507.625 45.125H510.25V47.75H507.625V45.125ZM505 47.75H507.625V50.375H505V47.75ZM528.625 50.375V47.75H526V45.125H528.625V37.25H526V34.625H528.625V32H533.875V34.625H536.5V32H541.75V34.625H544.375V37.25H541.75V45.125H544.375V47.75H541.75V50.375H536.5V47.75H533.875V50.375H528.625ZM533.875 45.125H536.5V37.25H533.875V45.125ZM549.625 50.375V47.75H547V45.125H549.625V37.25H547V34.625H549.625V32H554.875V34.625H557.5V32H562.75V34.625H565.375V37.25H562.75V45.125H565.375V47.75H562.75V50.375H557.5V47.75H554.875V50.375H549.625ZM554.875 45.125H557.5V37.25H554.875V45.125ZM570.625 50.375V47.75H568V45.125H570.625V37.25H568V34.625H570.625V32H575.875V34.625H578.5V32H583.75V34.625H586.375V37.25H583.75V45.125H586.375V47.75H583.75V50.375H578.5V47.75H575.875V50.375H570.625ZM575.875 45.125H578.5V37.25H575.875V45.125ZM591.625 50.375V47.75H589V45.125H591.625V37.25H589V34.625H591.625V32H596.875V34.625H599.5V32H604.75V34.625H607.375V37.25H604.75V45.125H607.375V47.75H604.75V50.375H599.5V47.75H596.875V50.375H591.625ZM596.875 45.125H599.5V37.25H596.875V45.125ZM612.625 50.375V47.75H610V45.125H612.625V37.25H610V34.625H612.625V32H617.875V34.625H620.5V32H625.75V34.625H628.375V37.25H625.75V45.125H628.375V47.75H625.75V50.375H620.5V47.75H617.875V50.375H612.625ZM617.875 45.125H620.5V37.25H617.875V45.125ZM633.625 50.375V47.75H631V45.125H633.625V37.25H631V34.625H633.625V32H638.875V34.625H641.5V32H646.75V34.625H649.375V37.25H646.75V45.125H649.375V47.75H646.75V50.375H641.5V47.75H638.875V50.375H633.625ZM638.875 45.125H641.5V37.25H638.875V45.125ZM670.375 32V34.625H667.75V32H670.375ZM665.125 34.625H667.75V37.25H665.125V34.625ZM662.5 37.25H665.125V39.875H662.5V37.25ZM659.875 39.875H662.5V42.5H659.875V39.875ZM657.25 42.5H659.875V45.125H657.25V42.5ZM654.625 45.125H657.25V47.75H654.625V45.125ZM652 47.75H654.625V50.375H652V47.75ZM712.375 32V34.625H709.75V32H712.375ZM707.125 34.625H709.75V37.25H707.125V34.625ZM704.5 37.25H707.125V39.875H704.5V37.25ZM701.875 39.875H704.5V42.5H701.875V39.875ZM699.25 42.5H701.875V45.125H699.25V42.5ZM696.625 45.125H699.25V47.75H696.625V45.125ZM694 47.75H696.625V50.375H694V47.75ZM743.875 50.375V32H749.125V50.375H743.875ZM460.375 61V63.625H457.75V61H460.375ZM455.125 63.625H457.75V66.25H455.125V63.625ZM452.5 66.25H455.125V68.875H452.5V66.25ZM449.875 68.875H452.5V71.5H449.875V68.875ZM447.25 71.5H449.875V74.125H447.25V71.5ZM444.625 74.125H447.25V76.75H444.625V74.125ZM442 76.75H444.625V79.375H442V76.75ZM502.375 61V63.625H499.75V61H502.375ZM497.125 63.625H499.75V66.25H497.125V63.625ZM494.5 66.25H497.125V68.875H494.5V66.25ZM491.875 68.875H494.5V71.5H491.875V68.875ZM489.25 71.5H491.875V74.125H489.25V71.5ZM486.625 74.125H489.25V76.75H486.625V74.125ZM484 76.75H486.625V79.375H484V76.75ZM505 82V79.375H523.375V82H505ZM526 82V79.375H544.375V82H526ZM547 82V79.375H565.375V82H547ZM568 82V79.375H586.375V82H568ZM589 82V79.375H607.375V82H589ZM610 82V79.375H628.375V82H610ZM649.375 61V63.625H646.75V61H649.375ZM644.125 63.625H646.75V66.25H644.125V63.625ZM641.5 66.25H644.125V68.875H641.5V66.25ZM638.875 68.875H641.5V71.5H638.875V68.875ZM636.25 71.5H638.875V74.125H636.25V71.5ZM633.625 74.125H636.25V76.75H633.625V74.125ZM631 76.75H633.625V79.375H631V76.75ZM691.375 61V63.625H688.75V61H691.375ZM686.125 63.625H688.75V66.25H686.125V63.625ZM683.5 66.25H686.125V68.875H683.5V66.25ZM680.875 68.875H683.5V71.5H680.875V68.875ZM678.25 71.5H680.875V74.125H678.25V71.5ZM675.625 74.125H678.25V76.75H675.625V74.125ZM673 76.75H675.625V79.375H673V76.75ZM743.875 79.375V61H749.125V79.375H743.875ZM421 96.875V94.25H439.375V96.875H421ZM421 102.125V99.5H439.375V102.125H421ZM442 96.875V94.25H460.375V96.875H442ZM442 102.125V99.5H460.375V102.125H442ZM463 96.875V94.25H481.375V96.875H463ZM463 102.125V99.5H481.375V102.125H463ZM484 96.875V94.25H502.375V96.875H484ZM484 102.125V99.5H502.375V102.125H484ZM505 96.875V94.25H523.375V96.875H505ZM505 102.125V99.5H523.375V102.125H505ZM526 96.875V94.25H544.375V96.875H526ZM526 102.125V99.5H544.375V102.125H526ZM547 96.875V94.25H565.375V96.875H547ZM547 102.125V99.5H565.375V102.125H547ZM568 96.875V94.25H586.375V96.875H568ZM568 102.125V99.5H586.375V102.125H568ZM589 96.875V94.25H607.375V96.875H589ZM589 102.125V99.5H607.375V102.125H589ZM610 96.875V94.25H628.375V96.875H610ZM610 102.125V99.5H628.375V102.125H610ZM631 96.875V94.25H649.375V96.875H631ZM631 102.125V99.5H649.375V102.125H631ZM652 96.875V94.25H670.375V96.875H652ZM652 102.125V99.5H670.375V102.125H652ZM712.375 89V91.625H709.75V89H712.375ZM707.125 91.625H709.75V94.25H707.125V91.625ZM704.5 94.25H707.125V96.875H704.5V94.25ZM701.875 96.875H704.5V99.5H701.875V96.875ZM699.25 99.5H701.875V102.125H699.25V99.5ZM696.625 102.125H699.25V104.75H696.625V102.125ZM694 104.75H696.625V107.375H694V104.75ZM722.875 107.375V89H728.125V107.375H722.875ZM743.875 107.375V89H749.125V107.375H743.875ZM428.875 136.375V118H434.125V136.375H428.875ZM442 139V136.375H460.375V139H442ZM463 139V136.375H481.375V139H463ZM484 139V136.375H502.375V139H484ZM505 139V136.375H523.375V139H505ZM526 139V136.375H544.375V139H526ZM547 139V136.375H565.375V139H547ZM568 139V136.375H586.375V139H568ZM589 139V136.375H607.375V139H589ZM610 139V136.375H628.375V139H610ZM631 139V136.375H649.375V139H631ZM659.875 136.375V118H665.125V136.375H659.875ZM691.375 118V120.625H688.75V118H691.375ZM686.125 120.625H688.75V123.25H686.125V120.625ZM683.5 123.25H686.125V125.875H683.5V123.25ZM680.875 125.875H683.5V128.5H680.875V125.875ZM678.25 128.5H680.875V131.125H678.25V128.5ZM675.625 131.125H678.25V133.75H675.625V131.125ZM673 133.75H675.625V136.375H673V133.75ZM722.875 136.375V118H728.125V136.375H722.875ZM743.875 136.375V118H749.125V136.375H743.875ZM449.875 164.375V146H455.125V164.375H449.875ZM465.625 146V148.625H463V146H465.625ZM468.25 148.625V151.25H465.625V148.625H468.25ZM470.875 151.25V153.875H468.25V151.25H470.875ZM473.5 153.875V156.5H470.875V153.875H473.5ZM476.125 156.5V159.125H473.5V156.5H476.125ZM478.75 159.125V161.75H476.125V159.125H478.75ZM481.375 161.75V164.375H478.75V161.75H481.375ZM484 167V164.375H502.375V167H484ZM505 167V164.375H523.375V167H505ZM528.625 167V164.375H531.25V159.125H536.5V164.375H533.875V167H528.625ZM549.625 167V164.375H552.25V159.125H557.5V164.375H554.875V167H549.625ZM568 167V164.375H586.375V167H568ZM589 167V164.375H607.375V167H589ZM628.375 146V148.625H625.75V146H628.375ZM623.125 148.625H625.75V151.25H623.125V148.625ZM620.5 151.25H623.125V153.875H620.5V151.25ZM617.875 153.875H620.5V156.5H617.875V153.875ZM615.25 156.5H617.875V159.125H615.25V156.5ZM612.625 159.125H615.25V161.75H612.625V159.125ZM610 161.75H612.625V164.375H610V161.75ZM722.875 164.375V146H728.125V164.375H722.875ZM743.875 164.375V146H749.125V164.375H743.875ZM449.875 193.375V175H455.125V193.375H449.875ZM484 196V193.375H502.375V196H484ZM505 196V193.375H523.375V196H505ZM528.625 196V193.375H531.25V188.125H536.5V193.375H533.875V196H528.625ZM549.625 196V193.375H552.25V188.125H557.5V193.375H554.875V196H549.625ZM568 196V193.375H586.375V196H568ZM589 196V193.375H607.375V196H589ZM722.875 193.375V175H728.125V193.375H722.875ZM743.875 193.375V175H749.125V193.375H743.875ZM449.875 221.375V203H455.125V221.375H449.875ZM463 224V221.375H481.375V224H463ZM486.625 203V205.625H484V203H486.625ZM489.25 205.625V208.25H486.625V205.625H489.25ZM491.875 208.25V210.875H489.25V208.25H491.875ZM494.5 210.875V213.5H491.875V210.875H494.5ZM497.125 213.5V216.125H494.5V213.5H497.125ZM499.75 216.125V218.75H497.125V216.125H499.75ZM502.375 218.75V221.375H499.75V218.75H502.375ZM505 210.875V208.25H523.375V210.875H505ZM505 216.125V213.5H523.375V216.125H505ZM526 210.875V208.25H544.375V210.875H526ZM526 216.125V213.5H544.375V216.125H526ZM547 210.875V208.25H565.375V210.875H547ZM547 216.125V213.5H565.375V216.125H547ZM568 210.875V208.25H586.375V210.875H568ZM568 216.125V213.5H586.375V216.125H568ZM607.375 203V205.625H604.75V203H607.375ZM602.125 205.625H604.75V208.25H602.125V205.625ZM599.5 208.25H602.125V210.875H599.5V208.25ZM596.875 210.875H599.5V213.5H596.875V210.875ZM594.25 213.5H596.875V216.125H594.25V213.5ZM591.625 216.125H594.25V218.75H591.625V216.125ZM589 218.75H591.625V221.375H589V218.75ZM615.25 205.625H612.625V203H617.875V208.25H615.25V205.625ZM628.375 203V205.625H625.75V203H628.375ZM615.25 210.875H610V205.625H612.625V208.25H615.25V210.875ZM623.125 205.625H625.75V208.25H623.125V205.625ZM620.5 208.25H623.125V210.875H620.5V208.25ZM617.875 210.875H620.5V213.5H617.875V210.875ZM615.25 213.5H617.875V216.125H615.25V213.5ZM623.125 213.5H628.375V218.75H625.75V216.125H623.125V213.5ZM612.625 216.125H615.25V218.75H612.625V216.125ZM623.125 218.75H625.75V221.375H620.5V216.125H623.125V218.75ZM610 218.75H612.625V221.375H610V218.75ZM631 224V221.375H649.375V224H631ZM652 224V221.375H670.375V224H652ZM673 224V221.375H691.375V224H673ZM694 224V221.375H712.375V224H694ZM722.875 221.375V203H728.125V221.375H722.875ZM743.875 221.375V203H749.125V221.375H743.875ZM449.875 250.375V232H455.125V250.375H449.875ZM502.375 232V234.625H499.75V232H502.375ZM497.125 234.625H499.75V237.25H497.125V234.625ZM494.5 237.25H497.125V239.875H494.5V237.25ZM491.875 239.875H494.5V242.5H491.875V239.875ZM489.25 242.5H491.875V245.125H489.25V242.5ZM486.625 245.125H489.25V247.75H486.625V245.125ZM484 247.75H486.625V250.375H484V247.75ZM518.125 242.5H520.75V245.125H512.875V242.5H510.25V239.875H507.625V237.25H515.5V239.875H518.125V242.5ZM505 239.875H507.625V242.5H505V239.875ZM523.375 239.875V242.5H520.75V239.875H523.375ZM539.125 242.5H541.75V245.125H533.875V242.5H531.25V239.875H528.625V237.25H536.5V239.875H539.125V242.5ZM526 239.875H528.625V242.5H526V239.875ZM544.375 239.875V242.5H541.75V239.875H544.375ZM560.125 242.5H562.75V245.125H554.875V242.5H552.25V239.875H549.625V237.25H557.5V239.875H560.125V242.5ZM547 239.875H549.625V242.5H547V239.875ZM565.375 239.875V242.5H562.75V239.875H565.375ZM581.125 242.5H583.75V245.125H575.875V242.5H573.25V239.875H570.625V237.25H578.5V239.875H581.125V242.5ZM568 239.875H570.625V242.5H568V239.875ZM586.375 239.875V242.5H583.75V239.875H586.375ZM591.625 232V234.625H589V232H591.625ZM594.25 234.625V237.25H591.625V234.625H594.25ZM596.875 237.25V239.875H594.25V237.25H596.875ZM599.5 239.875V242.5H596.875V239.875H599.5ZM602.125 242.5V245.125H599.5V242.5H602.125ZM604.75 245.125V247.75H602.125V245.125H604.75ZM607.375 247.75V250.375H604.75V247.75H607.375ZM636.25 234.625H633.625V232H638.875V237.25H636.25V234.625ZM649.375 232V234.625H646.75V232H649.375ZM636.25 239.875H631V234.625H633.625V237.25H636.25V239.875ZM644.125 234.625H646.75V237.25H644.125V234.625ZM641.5 237.25H644.125V239.875H641.5V237.25ZM638.875 239.875H641.5V242.5H638.875V239.875ZM636.25 242.5H638.875V245.125H636.25V242.5ZM644.125 242.5H649.375V247.75H646.75V245.125H644.125V242.5ZM633.625 245.125H636.25V247.75H633.625V245.125ZM644.125 247.75H646.75V250.375H641.5V245.125H644.125V247.75ZM631 247.75H633.625V250.375H631V247.75ZM712.375 232V234.625H709.75V232H712.375ZM707.125 234.625H709.75V237.25H707.125V234.625ZM704.5 237.25H707.125V239.875H704.5V237.25ZM701.875 239.875H704.5V242.5H701.875V239.875ZM699.25 242.5H701.875V245.125H699.25V242.5ZM696.625 245.125H699.25V247.75H696.625V245.125ZM694 247.75H696.625V250.375H694V247.75ZM743.875 250.375V232H749.125V250.375H743.875ZM421 281V278.375H439.375V281H421ZM449.875 278.375V260H455.125V278.375H449.875ZM481.375 260V262.625H478.75V260H481.375ZM476.125 262.625H478.75V265.25H476.125V262.625ZM473.5 265.25H476.125V267.875H473.5V265.25ZM470.875 267.875H473.5V270.5H470.875V267.875ZM468.25 270.5H470.875V273.125H468.25V270.5ZM465.625 273.125H468.25V275.75H465.625V273.125ZM463 275.75H465.625V278.375H463V275.75ZM612.625 260V262.625H610V260H612.625ZM615.25 262.625V265.25H612.625V262.625H615.25ZM617.875 265.25V267.875H615.25V265.25H617.875ZM620.5 267.875V270.5H617.875V267.875H620.5ZM623.125 270.5V273.125H620.5V270.5H623.125ZM625.75 273.125V275.75H623.125V273.125H625.75ZM628.375 275.75V278.375H625.75V275.75H628.375ZM636.25 262.625H633.625V260H638.875V265.25H636.25V262.625ZM649.375 260V262.625H646.75V260H649.375ZM636.25 267.875H631V262.625H633.625V265.25H636.25V267.875ZM644.125 262.625H646.75V265.25H644.125V262.625ZM641.5 265.25H644.125V267.875H641.5V265.25ZM638.875 267.875H641.5V270.5H638.875V267.875ZM636.25 270.5H638.875V273.125H636.25V270.5ZM644.125 270.5H649.375V275.75H646.75V273.125H644.125V270.5ZM633.625 273.125H636.25V275.75H633.625V273.125ZM644.125 275.75H646.75V278.375H641.5V273.125H644.125V275.75ZM631 275.75H633.625V278.375H631V275.75ZM652 281V278.375H670.375V281H652ZM691.375 260V262.625H688.75V260H691.375ZM686.125 262.625H688.75V265.25H686.125V262.625ZM683.5 265.25H686.125V267.875H683.5V265.25ZM680.875 267.875H683.5V270.5H680.875V267.875ZM678.25 270.5H680.875V273.125H678.25V270.5ZM675.625 273.125H678.25V275.75H675.625V273.125ZM673 275.75H675.625V278.375H673V275.75ZM743.875 278.375V260H749.125V278.375H743.875ZM407.875 307.375V289H413.125V307.375H407.875ZM449.875 307.375V289H455.125V307.375H449.875ZM484 307.375V304.75H497.125V302.125H486.625V299.5H484V296.875H486.625V294.25H499.75V296.875H489.25V299.5H499.75V302.125H502.375V304.75H499.75V307.375H484ZM512.875 307.375V304.75H510.25V302.125H507.625V294.25H512.875V302.125H518.125V294.25H523.375V302.125H520.75V304.75H518.125V307.375H512.875ZM528.625 307.375V304.75H526V296.875H528.625V294.25H541.75V296.875H544.375V302.125H531.25V304.75H541.75V307.375H528.625ZM531.25 299.5H539.125V296.875H531.25V299.5ZM549.625 307.375V304.75H554.875V291.625H552.25V289H560.125V304.75H565.375V307.375H549.625ZM575.875 307.375V296.875H570.625V294.25H575.875V289H581.125V294.25H586.375V296.875H581.125V307.375H575.875ZM591.625 307.375V304.75H589V296.875H591.625V294.25H604.75V296.875H607.375V302.125H594.25V304.75H604.75V307.375H591.625ZM594.25 299.5H602.125V296.875H594.25V299.5ZM638.875 307.375V289H644.125V307.375H638.875ZM680.875 307.375V289H686.125V307.375H680.875ZM733.375 289V291.625H730.75V289H733.375ZM728.125 291.625H730.75V294.25H728.125V291.625ZM725.5 294.25H728.125V296.875H725.5V294.25ZM722.875 296.875H725.5V299.5H722.875V296.875ZM720.25 299.5H722.875V302.125H720.25V299.5ZM717.625 302.125H720.25V304.75H717.625V302.125ZM715 304.75H717.625V307.375H715V304.75ZM407.875 335.375V317H413.125V335.375H407.875ZM421 338V335.375H439.375V338H421ZM442 338V335.375H460.375V338H442ZM465.625 317V319.625H463V317H465.625ZM468.25 319.625V322.25H465.625V319.625H468.25ZM470.875 322.25V324.875H468.25V322.25H470.875ZM473.5 324.875V327.5H470.875V324.875H473.5ZM476.125 327.5V330.125H473.5V327.5H476.125ZM478.75 330.125V332.75H476.125V330.125H478.75ZM481.375 332.75V335.375H478.75V332.75H481.375ZM484 338V335.375H502.375V338H484ZM505 338V335.375H523.375V338H505ZM526 338V335.375H544.375V338H526ZM547 338V335.375H565.375V338H547ZM568 338V335.375H586.375V338H568ZM589 338V335.375H607.375V338H589ZM628.375 317V319.625H625.75V317H628.375ZM623.125 319.625H625.75V322.25H623.125V319.625ZM620.5 322.25H623.125V324.875H620.5V322.25ZM617.875 324.875H620.5V327.5H617.875V324.875ZM615.25 327.5H617.875V330.125H615.25V327.5ZM612.625 330.125H615.25V332.75H612.625V330.125ZM610 332.75H612.625V335.375H610V332.75ZM631 338V335.375H649.375V338H631ZM652 338V335.375H670.375V338H652ZM680.875 335.375V317H686.125V335.375H680.875ZM712.375 317V319.625H709.75V317H712.375ZM707.125 319.625H709.75V322.25H707.125V319.625ZM704.5 322.25H707.125V324.875H704.5V322.25ZM701.875 324.875H704.5V327.5H701.875V324.875ZM699.25 327.5H701.875V330.125H699.25V327.5ZM696.625 330.125H699.25V332.75H696.625V330.125ZM694 332.75H696.625V335.375H694V332.75ZM413.125 356.5H415.75V359.125H407.875V356.5H405.25V353.875H402.625V351.25H410.5V353.875H413.125V356.5ZM400 353.875H402.625V356.5H400V353.875ZM418.375 353.875V356.5H415.75V353.875H418.375ZM434.125 356.5H436.75V359.125H428.875V356.5H426.25V353.875H423.625V351.25H431.5V353.875H434.125V356.5ZM421 353.875H423.625V356.5H421V353.875ZM439.375 353.875V356.5H436.75V353.875H439.375ZM455.125 356.5H457.75V359.125H449.875V356.5H447.25V353.875H444.625V351.25H452.5V353.875H455.125V356.5ZM442 353.875H444.625V356.5H442V353.875ZM460.375 353.875V356.5H457.75V353.875H460.375ZM476.125 356.5H478.75V359.125H470.875V356.5H468.25V353.875H465.625V351.25H473.5V353.875H476.125V356.5ZM463 353.875H465.625V356.5H463V353.875ZM481.375 353.875V356.5H478.75V353.875H481.375ZM497.125 356.5H499.75V359.125H491.875V356.5H489.25V353.875H486.625V351.25H494.5V353.875H497.125V356.5ZM484 353.875H486.625V356.5H484V353.875ZM502.375 353.875V356.5H499.75V353.875H502.375ZM518.125 356.5H520.75V359.125H512.875V356.5H510.25V353.875H507.625V351.25H515.5V353.875H518.125V356.5ZM505 353.875H507.625V356.5H505V353.875ZM523.375 353.875V356.5H520.75V353.875H523.375ZM539.125 356.5H541.75V359.125H533.875V356.5H531.25V353.875H528.625V351.25H536.5V353.875H539.125V356.5ZM526 353.875H528.625V356.5H526V353.875ZM544.375 353.875V356.5H541.75V353.875H544.375ZM560.125 356.5H562.75V359.125H554.875V356.5H552.25V353.875H549.625V351.25H557.5V353.875H560.125V356.5ZM547 353.875H549.625V356.5H547V353.875ZM565.375 353.875V356.5H562.75V353.875H565.375ZM581.125 356.5H583.75V359.125H575.875V356.5H573.25V353.875H570.625V351.25H578.5V353.875H581.125V356.5ZM568 353.875H570.625V356.5H568V353.875ZM586.375 353.875V356.5H583.75V353.875H586.375ZM602.125 356.5H604.75V359.125H596.875V356.5H594.25V353.875H591.625V351.25H599.5V353.875H602.125V356.5ZM589 353.875H591.625V356.5H589V353.875ZM607.375 353.875V356.5H604.75V353.875H607.375ZM623.125 356.5H625.75V359.125H617.875V356.5H615.25V353.875H612.625V351.25H620.5V353.875H623.125V356.5ZM610 353.875H612.625V356.5H610V353.875ZM628.375 353.875V356.5H625.75V353.875H628.375ZM644.125 356.5H646.75V359.125H638.875V356.5H636.25V353.875H633.625V351.25H641.5V353.875H644.125V356.5ZM631 353.875H633.625V356.5H631V353.875ZM649.375 353.875V356.5H646.75V353.875H649.375ZM665.125 356.5H667.75V359.125H659.875V356.5H657.25V353.875H654.625V351.25H662.5V353.875H665.125V356.5ZM652 353.875H654.625V356.5H652V353.875ZM670.375 353.875V356.5H667.75V353.875H670.375ZM686.125 356.5H688.75V359.125H680.875V356.5H678.25V353.875H675.625V351.25H683.5V353.875H686.125V356.5ZM673 353.875H675.625V356.5H673V353.875ZM691.375 353.875V356.5H688.75V353.875H691.375Z" fill="#FFDC83"/>
<path d="M161.04 165V163H175.04V165H161.04ZM175.68 165V163H189.68V165H175.68ZM190.32 165V163H204.32V165H190.32ZM204.96 165V163H218.96V165H204.96ZM219.6 165V163H233.6V165H219.6ZM43.92 187V185H57.92V187H43.92ZM62.56 185V181H66.56V185H62.56ZM77.2 185V181H81.2V185H77.2ZM89.84 179V177H101.84V179H89.84ZM104.48 179V177H116.48V179H104.48ZM121.12 177V171H125.12V177H121.12ZM135.76 177V171H139.76V177H135.76ZM150.4 177V171H154.4V177H150.4ZM173.04 171V173H163.04V171H173.04ZM161.04 173H163.04V183H161.04V173ZM175.04 173V181H165.04V175H171.04V179H173.04V173H175.04ZM169.04 177H167.04V179H169.04V177ZM163.04 185V183H173.04V185H163.04ZM231.6 171V173H221.6V171H231.6ZM219.6 173H221.6V183H219.6V173ZM233.6 173V181H223.6V175H229.6V179H231.6V173H233.6ZM227.6 177H225.6V179H227.6V177ZM221.6 185V183H231.6V185H221.6ZM238.24 177V171H242.24V177H238.24ZM252.88 177V171H256.88V177H252.88ZM267.52 177V171H271.52V177H267.52ZM280.16 179V177H292.16V179H280.16ZM294.8 179V177H306.8V179H294.8ZM311.44 185V181H315.44V185H311.44ZM326.08 185V181H330.08V185H326.08ZM336.72 187V185H350.72V187H336.72ZM18.64 207V203H22.64V207H18.64ZM33.28 199V193H37.28V199H33.28ZM99.84 193V195H89.84V193H99.84ZM87.84 195H89.84V205H87.84V195ZM101.84 195V203H91.84V197H97.84V201H99.84V195H101.84ZM95.84 199H93.84V201H95.84V199ZM89.84 207V205H99.84V207H89.84ZM102.48 209V207H116.48V209H102.48ZM131.12 193V195H129.12V193H131.12ZM127.12 195H129.12V197H127.12V195ZM125.12 197H127.12V199H125.12V197ZM123.12 199H125.12V201H123.12V199ZM121.12 201H123.12V203H121.12V201ZM119.12 203H121.12V205H119.12V203ZM117.12 205H119.12V207H117.12V205ZM133.76 201V199H145.76V201H133.76ZM160.4 193V195H158.4V193H160.4ZM156.4 195H158.4V197H156.4V195ZM154.4 197H156.4V199H154.4V197ZM152.4 199H154.4V201H152.4V199ZM150.4 201H152.4V203H150.4V201ZM148.4 203H150.4V205H148.4V203ZM146.4 205H148.4V207H146.4V205ZM175.04 193V195H173.04V193H175.04ZM171.04 195H173.04V197H171.04V195ZM169.04 197H171.04V199H169.04V197ZM167.04 199H169.04V201H167.04V199ZM165.04 201H167.04V203H165.04V201ZM163.04 203H165.04V205H163.04V203ZM161.04 205H163.04V207H161.04V205ZM177.68 201V199H189.68V201H177.68ZM192.32 193V195H190.32V193H192.32ZM194.32 195V197H192.32V195H194.32ZM196.32 197V199H194.32V197H196.32ZM198.32 199V201H196.32V199H198.32ZM200.32 201V203H198.32V201H200.32ZM202.32 203V205H200.32V203H202.32ZM204.32 205V207H202.32V205H204.32ZM218.96 193V195H216.96V193H218.96ZM214.96 195H216.96V197H214.96V195ZM212.96 197H214.96V199H212.96V197ZM210.96 199H212.96V201H210.96V199ZM208.96 201H210.96V203H208.96V201ZM206.96 203H208.96V205H206.96V203ZM204.96 205H206.96V207H204.96V205ZM221.6 207V205H223.6V203H225.6V201H227.6V199H225.6V197H223.6V195H221.6V193H225.6V195H227.6V197H229.6V199H231.6V201H229.6V203H227.6V205H225.6V207H221.6ZM248.24 193V195H246.24V193H248.24ZM244.24 195H246.24V197H244.24V195ZM242.24 197H244.24V199H242.24V197ZM240.24 199H242.24V201H240.24V199ZM238.24 201H240.24V203H238.24V201ZM236.24 203H238.24V205H236.24V203ZM234.24 205H236.24V207H234.24V205ZM250.88 207V205H252.88V203H254.88V201H256.88V199H254.88V197H252.88V195H250.88V193H254.88V195H256.88V197H258.88V199H260.88V201H258.88V203H256.88V205H254.88V207H250.88ZM267.52 199V193H271.52V199H267.52ZM292.16 193V195H290.16V193H292.16ZM288.16 195H290.16V197H288.16V195ZM286.16 197H288.16V199H286.16V197ZM284.16 199H286.16V201H284.16V199ZM282.16 201H284.16V203H282.16V201ZM280.16 203H282.16V205H280.16V203ZM278.16 205H280.16V207H278.16V205ZM319.44 193V195H309.44V193H319.44ZM307.44 195H309.44V205H307.44V195ZM321.44 195V203H311.44V197H317.44V201H319.44V195H321.44ZM315.44 199H313.44V201H315.44V199ZM309.44 207V205H319.44V207H309.44ZM355.36 199V193H359.36V199H355.36ZM370 207V203H374V207H370ZM8 229V227H6V225H4V219H6V217H8V215H12V217H10V219H8V225H10V227H12V229H8ZM55.92 215V217H45.92V215H55.92ZM43.92 217H45.92V227H43.92V217ZM57.92 217V225H47.92V219H53.92V223H55.92V217H57.92ZM51.92 221H49.92V223H51.92V221ZM45.92 229V227H55.92V229H45.92ZM101.84 215V217H99.84V215H101.84ZM97.84 217H99.84V219H97.84V217ZM95.84 219H97.84V221H95.84V219ZM93.84 221H95.84V223H93.84V221ZM91.84 223H93.84V225H91.84V223ZM89.84 225H91.84V227H89.84V225ZM87.84 227H89.84V229H87.84V227ZM102.48 231V229H116.48V231H102.48ZM125.12 229V227H123.12V225H121.12V223H119.12V221H121.12V219H123.12V217H125.12V215H129.12V217H127.12V219H125.12V221H123.12V223H125.12V225H127.12V227H129.12V229H125.12ZM145.76 215V217H143.76V215H145.76ZM141.76 217H143.76V219H141.76V217ZM139.76 219H141.76V221H139.76V219ZM137.76 221H139.76V223H137.76V221ZM135.76 223H137.76V225H135.76V223ZM133.76 225H135.76V227H133.76V225ZM131.76 227H133.76V229H131.76V227ZM160.4 215V217H158.4V215H160.4ZM156.4 217H158.4V219H156.4V217ZM154.4 219H156.4V221H154.4V219ZM152.4 221H154.4V223H152.4V221ZM150.4 223H152.4V225H150.4V223ZM148.4 225H150.4V227H148.4V225ZM146.4 227H148.4V229H146.4V227ZM169.04 229V227H167.04V225H165.04V223H163.04V221H165.04V219H167.04V217H169.04V215H173.04V217H171.04V219H169.04V221H167.04V223H169.04V225H171.04V227H173.04V229H169.04ZM179.68 221V215H183.68V221H179.68ZM204.32 215V217H202.32V215H204.32ZM200.32 217H202.32V219H200.32V217ZM198.32 219H200.32V221H198.32V219ZM196.32 221H198.32V223H196.32V221ZM194.32 223H196.32V225H194.32V223ZM192.32 225H194.32V227H192.32V225ZM190.32 227H192.32V229H190.32V227ZM206.96 223V221H218.96V223H206.96ZM221.6 223V221H233.6V223H221.6ZM236.24 223V221H248.24V223H236.24ZM250.88 223V221H262.88V223H250.88ZM265.52 223V221H277.52V223H265.52ZM280.16 223V221H292.16V223H280.16ZM294.8 223V221H306.8V223H294.8ZM309.44 223V221H321.44V223H309.44ZM324.08 223V221H336.08V223H324.08ZM338.72 223V221H350.72V223H338.72ZM353.36 219V217H355.36V215H361.36V217H363.36V219H359.36V217H357.36V219H353.36ZM368 223V221H380V223H368ZM382.64 229V227H384.64V225H386.64V219H384.64V217H382.64V215H386.64V217H388.64V219H390.64V225H388.64V227H386.64V229H382.64ZM6 251V237H10V251H6ZM18.64 243V237H22.64V243H18.64ZM33.28 251V247H37.28V251H33.28ZM43.92 253V251H57.92V253H43.92ZM99.84 237V239H89.84V237H99.84ZM87.84 239H89.84V249H87.84V239ZM101.84 239V247H91.84V241H97.84V245H99.84V239H101.84ZM95.84 243H93.84V245H95.84V243ZM89.84 251V249H99.84V251H89.84ZM189.68 237V239H187.68V237H189.68ZM185.68 239H187.68V241H185.68V239ZM183.68 241H185.68V243H183.68V241ZM181.68 243H183.68V245H181.68V243ZM179.68 245H181.68V247H179.68V245ZM177.68 247H179.68V249H177.68V247ZM175.68 249H177.68V251H175.68V249ZM204.32 237V239H202.32V237H204.32ZM200.32 239H202.32V241H200.32V239ZM198.32 241H200.32V243H198.32V241ZM196.32 243H198.32V245H196.32V243ZM194.32 245H196.32V247H194.32V245ZM192.32 247H194.32V249H192.32V247ZM190.32 249H192.32V251H190.32V249ZM210.96 251V237H214.96V251H210.96ZM221.6 251V249H219.6V247H221.6V241H219.6V239H221.6V237H225.6V239H227.6V237H231.6V239H233.6V241H231.6V247H233.6V249H231.6V251H227.6V249H225.6V251H221.6ZM225.6 247H227.6V241H225.6V247ZM236.24 251V249H234.24V247H236.24V241H234.24V239H236.24V237H240.24V239H242.24V237H246.24V239H248.24V241H246.24V247H248.24V249H246.24V251H242.24V249H240.24V251H236.24ZM240.24 247H242.24V241H240.24V247ZM250.88 251V249H248.88V247H250.88V241H248.88V239H250.88V237H254.88V239H256.88V237H260.88V239H262.88V241H260.88V247H262.88V249H260.88V251H256.88V249H254.88V251H250.88ZM254.88 247H256.88V241H254.88V247ZM265.52 251V249H263.52V247H265.52V241H263.52V239H265.52V237H269.52V239H271.52V237H275.52V239H277.52V241H275.52V247H277.52V249H275.52V251H271.52V249H269.52V251H265.52ZM269.52 247H271.52V241H269.52V247ZM280.16 251V249H278.16V247H280.16V241H278.16V239H280.16V237H284.16V239H286.16V237H290.16V239H292.16V241H290.16V247H292.16V249H290.16V251H286.16V249H284.16V251H280.16ZM284.16 247H286.16V241H284.16V247ZM294.8 251V249H292.8V247H294.8V241H292.8V239H294.8V237H298.8V239H300.8V237H304.8V239H306.8V241H304.8V247H306.8V249H304.8V251H300.8V249H298.8V251H294.8ZM298.8 247H300.8V241H298.8V247ZM309.44 251V249H307.44V247H309.44V241H307.44V239H309.44V237H313.44V239H315.44V237H319.44V239H321.44V241H319.44V247H321.44V249H319.44V251H315.44V249H313.44V251H309.44ZM313.44 247H315.44V241H313.44V247ZM324.08 251V249H322.08V247H324.08V241H322.08V239H324.08V237H328.08V239H330.08V237H334.08V239H336.08V241H334.08V247H336.08V249H334.08V251H330.08V249H328.08V251H324.08ZM328.08 247H330.08V241H328.08V247ZM338.72 251V249H336.72V247H338.72V241H336.72V239H338.72V237H342.72V239H344.72V237H348.72V239H350.72V241H348.72V247H350.72V249H348.72V251H344.72V249H342.72V251H338.72ZM342.72 247H344.72V241H342.72V247ZM353.36 251V249H351.36V247H353.36V241H351.36V239H353.36V237H357.36V239H359.36V237H363.36V239H365.36V241H363.36V247H365.36V249H363.36V251H359.36V249H357.36V251H353.36ZM357.36 247H359.36V241H357.36V247ZM368 251V249H366V247H368V241H366V239H368V237H372V239H374V237H378V239H380V241H378V247H380V249H378V251H374V249H372V251H368ZM372 247H374V241H372V247ZM386.64 251V237H390.64V251H386.64ZM6 273V259H10V273H6ZM24.64 267H26.64V269H20.64V267H18.64V265H16.64V263H22.64V265H24.64V267ZM14.64 265H16.64V267H14.64V265ZM28.64 265V267H26.64V265H28.64ZM62.56 265V259H66.56V265H62.56ZM77.2 265V259H81.2V265H77.2ZM89.84 267V265H101.84V267H89.84ZM104.48 267V265H116.48V267H104.48ZM121.12 273V269H125.12V273H121.12ZM135.76 273V269H139.76V273H135.76ZM158.4 259V261H148.4V259H158.4ZM146.4 261H148.4V271H146.4V261ZM160.4 261V269H150.4V263H156.4V267H158.4V261H160.4ZM154.4 265H152.4V267H154.4V265ZM148.4 273V271H158.4V273H148.4ZM167.04 273V259H171.04V273H167.04ZM179.68 265V259H183.68V265H179.68ZM192.32 275V273H194.32V269H198.32V273H196.32V275H192.32ZM210.96 273V259H214.96V273H210.96ZM221.6 273V271H223.6V267H225.6V265H223.6V261H221.6V259H225.6V261H227.6V265H229.6V267H227.6V271H225.6V273H221.6ZM236.24 273V271H238.24V267H240.24V265H238.24V261H236.24V259H240.24V261H242.24V265H244.24V267H242.24V271H240.24V273H236.24ZM250.88 273V271H252.88V267H254.88V265H252.88V261H250.88V259H254.88V261H256.88V265H258.88V267H256.88V271H254.88V273H250.88ZM265.52 273V271H267.52V267H269.52V265H267.52V261H265.52V259H269.52V261H271.52V265H273.52V267H271.52V271H269.52V273H265.52ZM280.16 273V271H282.16V267H284.16V265H282.16V261H280.16V259H284.16V261H286.16V265H288.16V267H286.16V271H284.16V273H280.16ZM294.8 273V271H296.8V267H298.8V265H296.8V261H294.8V259H298.8V261H300.8V265H302.8V267H300.8V271H298.8V273H294.8ZM309.44 273V271H311.44V267H313.44V265H311.44V261H309.44V259H313.44V261H315.44V265H317.44V267H315.44V271H313.44V273H309.44ZM324.08 273V271H326.08V267H328.08V265H326.08V261H324.08V259H328.08V261H330.08V265H332.08V267H330.08V271H328.08V273H324.08ZM338.72 273V271H340.72V267H342.72V265H340.72V261H338.72V259H342.72V261H344.72V265H346.72V267H344.72V271H342.72V273H338.72ZM353.36 273V271H355.36V267H357.36V265H355.36V261H353.36V259H357.36V261H359.36V265H361.36V267H359.36V271H357.36V273H353.36ZM368 273V271H370V267H372V265H370V261H368V259H372V261H374V265H376V267H374V271H372V273H368ZM386.64 273V259H390.64V273H386.64ZM6 295V281H10V295H6ZM53.92 289H55.92V291H49.92V289H47.92V287H45.92V285H51.92V287H53.92V289ZM43.92 287H45.92V289H43.92V287ZM57.92 287V289H55.92V287H57.92ZM112.48 289H114.48V291H108.48V289H106.48V287H104.48V285H110.48V287H112.48V289ZM102.48 287H104.48V289H102.48V287ZM116.48 287V289H114.48V287H116.48ZM167.04 295V281H171.04V295H167.04ZM189.68 281V283H187.68V281H189.68ZM185.68 283H187.68V285H185.68V283ZM183.68 285H185.68V287H183.68V285ZM181.68 287H183.68V289H181.68V287ZM179.68 289H181.68V291H179.68V289ZM177.68 291H179.68V293H177.68V291ZM175.68 293H177.68V295H175.68V293ZM210.96 295V281H214.96V295H210.96ZM221.6 295V293H219.6V291H221.6V285H219.6V283H221.6V281H225.6V283H227.6V281H231.6V283H233.6V285H231.6V291H233.6V293H231.6V295H227.6V293H225.6V295H221.6ZM225.6 291H227.6V285H225.6V291ZM236.24 295V293H234.24V291H236.24V285H234.24V283H236.24V281H240.24V283H242.24V281H246.24V283H248.24V285H246.24V291H248.24V293H246.24V295H242.24V293H240.24V295H236.24ZM240.24 291H242.24V285H240.24V291ZM250.88 295V293H248.88V291H250.88V285H248.88V283H250.88V281H254.88V283H256.88V281H260.88V283H262.88V285H260.88V291H262.88V293H260.88V295H256.88V293H254.88V295H250.88ZM254.88 291H256.88V285H254.88V291ZM265.52 295V293H263.52V291H265.52V285H263.52V283H265.52V281H269.52V283H271.52V281H275.52V283H277.52V285H275.52V291H277.52V293H275.52V295H271.52V293H269.52V295H265.52ZM269.52 291H271.52V285H269.52V291ZM280.16 295V293H278.16V291H280.16V285H278.16V283H280.16V281H284.16V283H286.16V281H290.16V283H292.16V285H290.16V291H292.16V293H290.16V295H286.16V293H284.16V295H280.16ZM284.16 291H286.16V285H284.16V291ZM294.8 295V293H292.8V291H294.8V285H292.8V283H294.8V281H298.8V283H300.8V281H304.8V283H306.8V285H304.8V291H306.8V293H304.8V295H300.8V293H298.8V295H294.8ZM298.8 291H300.8V285H298.8V291ZM309.44 295V293H307.44V291H309.44V285H307.44V283H309.44V281H313.44V283H315.44V281H319.44V283H321.44V285H319.44V291H321.44V293H319.44V295H315.44V293H313.44V295H309.44ZM313.44 291H315.44V285H313.44V291ZM324.08 295V293H322.08V291H324.08V285H322.08V283H324.08V281H328.08V283H330.08V281H334.08V283H336.08V285H334.08V291H336.08V293H334.08V295H330.08V293H328.08V295H324.08ZM328.08 291H330.08V285H328.08V291ZM338.72 295V293H336.72V291H338.72V285H336.72V283H338.72V281H342.72V283H344.72V281H348.72V283H350.72V285H348.72V291H350.72V293H348.72V295H344.72V293H342.72V295H338.72ZM342.72 291H344.72V285H342.72V291ZM353.36 295V293H351.36V291H353.36V285H351.36V283H353.36V281H357.36V283H359.36V281H363.36V283H365.36V285H363.36V291H365.36V293H363.36V295H359.36V293H357.36V295H353.36ZM357.36 291H359.36V285H357.36V291ZM368 295V293H366V291H368V285H366V283H368V281H372V283H374V281H378V283H380V285H378V291H380V293H378V295H374V293H372V295H368ZM372 291H374V285H372V291ZM386.64 295V281H390.64V295H386.64ZM6 317V303H10V317H6ZM39.28 311H41.28V313H35.28V311H33.28V309H31.28V307H37.28V309H39.28V311ZM29.28 309H31.28V311H29.28V309ZM43.28 309V311H41.28V309H43.28ZM53.92 311H55.92V313H49.92V311H47.92V309H45.92V307H51.92V309H53.92V311ZM43.92 309H45.92V311H43.92V309ZM57.92 309V311H55.92V309H57.92ZM97.84 311H99.84V313H93.84V311H91.84V309H89.84V307H95.84V309H97.84V311ZM87.84 309H89.84V311H87.84V309ZM101.84 309V311H99.84V309H101.84ZM156.4 311H158.4V313H152.4V311H150.4V309H148.4V307H154.4V309H156.4V311ZM146.4 309H148.4V311H146.4V309ZM160.4 309V311H158.4V309H160.4ZM167.04 317V303H171.04V317H167.04ZM179.68 317V313H183.68V317H179.68ZM204.32 303V305H202.32V303H204.32ZM200.32 305H202.32V307H200.32V305ZM198.32 307H200.32V309H198.32V307ZM196.32 309H198.32V311H196.32V309ZM194.32 311H196.32V313H194.32V311ZM192.32 313H194.32V315H192.32V313ZM190.32 315H192.32V317H190.32V315ZM210.96 317V303H214.96V317H210.96ZM227.6 317V315H225.6V311H223.6V309H225.6V305H227.6V303H231.6V305H229.6V309H227.6V311H229.6V315H231.6V317H227.6ZM242.24 317V315H240.24V311H238.24V309H240.24V305H242.24V303H246.24V305H244.24V309H242.24V311H244.24V315H246.24V317H242.24ZM256.88 317V315H254.88V311H252.88V309H254.88V305H256.88V303H260.88V305H258.88V309H256.88V311H258.88V315H260.88V317H256.88ZM271.52 317V315H269.52V311H267.52V309H269.52V305H271.52V303H275.52V305H273.52V309H271.52V311H273.52V315H275.52V317H271.52ZM286.16 317V315H284.16V311H282.16V309H284.16V305H286.16V303H290.16V305H288.16V309H286.16V311H288.16V315H290.16V317H286.16ZM300.8 317V315H298.8V311H296.8V309H298.8V305H300.8V303H304.8V305H302.8V309H300.8V311H302.8V315H304.8V317H300.8ZM315.44 317V315H313.44V311H311.44V309H313.44V305H315.44V303H319.44V305H317.44V309H315.44V311H317.44V315H319.44V317H315.44ZM330.08 317V315H328.08V311H326.08V309H328.08V305H330.08V303H334.08V305H332.08V309H330.08V311H332.08V315H334.08V317H330.08ZM344.72 317V315H342.72V311H340.72V309H342.72V305H344.72V303H348.72V305H346.72V309H344.72V311H346.72V315H348.72V317H344.72ZM359.36 317V315H357.36V311H355.36V309H357.36V305H359.36V303H363.36V305H361.36V309H359.36V311H361.36V315H363.36V317H359.36ZM374 317V315H372V311H370V309H372V305H374V303H378V305H376V309H374V311H376V315H378V317H374ZM386.64 317V303H390.64V317H386.64ZM18.64 331V325H22.64V331H18.64ZM33.28 339V335H37.28V339H33.28ZM43.92 341V339H57.92V341H43.92ZM83.2 333H85.2V335H79.2V333H77.2V331H75.2V329H81.2V331H83.2V333ZM73.2 331H75.2V333H73.2V331ZM87.2 331V333H85.2V331H87.2ZM112.48 333H114.48V335H108.48V333H106.48V331H104.48V329H110.48V331H112.48V333ZM102.48 331H104.48V333H102.48V331ZM116.48 331V333H114.48V331H116.48ZM141.76 333H143.76V335H137.76V333H135.76V331H133.76V329H139.76V331H141.76V333ZM131.76 331H133.76V333H131.76V331ZM145.76 331V333H143.76V331H145.76ZM167.04 339V325H171.04V339H167.04ZM177.68 341V339H179.68V335H183.68V339H181.68V341H177.68ZM204.32 325V327H202.32V325H204.32ZM200.32 327H202.32V329H200.32V327ZM198.32 329H200.32V331H198.32V329ZM196.32 331H198.32V333H196.32V331ZM194.32 333H196.32V335H194.32V333ZM192.32 335H194.32V337H192.32V335ZM190.32 337H192.32V339H190.32V337ZM212.96 325V327H210.96V325H212.96ZM214.96 327V329H212.96V327H214.96ZM227.6 325V327H225.6V325H227.6ZM229.6 327V329H227.6V327H229.6ZM242.24 325V327H240.24V325H242.24ZM244.24 327V329H242.24V327H244.24ZM256.88 325V327H254.88V325H256.88ZM258.88 327V329H256.88V327H258.88ZM271.52 325V327H269.52V325H271.52ZM273.52 327V329H271.52V327H273.52ZM286.16 325V327H284.16V325H286.16ZM288.16 327V329H286.16V327H288.16ZM300.8 325V327H298.8V325H300.8ZM302.8 327V329H300.8V327H302.8ZM315.44 325V327H313.44V325H315.44ZM317.44 327V329H315.44V327H317.44ZM330.08 325V327H328.08V325H330.08ZM332.08 327V329H330.08V327H332.08ZM344.72 325V327H342.72V325H344.72ZM346.72 327V329H344.72V327H346.72ZM359.36 325V327H357.36V325H359.36ZM361.36 327V329H359.36V327H361.36ZM374 325V327H372V325H374ZM376 327V329H374V327H376ZM388.64 325V327H386.64V325H388.64ZM390.64 327V329H388.64V327H390.64ZM62.56 353V347H66.56V353H62.56ZM77.2 353V347H81.2V353H77.2ZM89.84 355V353H101.84V355H89.84ZM104.48 355V353H116.48V355H104.48ZM121.12 361V357H125.12V361H121.12ZM141.76 355H143.76V357H137.76V355H135.76V353H133.76V351H139.76V353H141.76V355ZM131.76 353H133.76V355H131.76V353ZM145.76 353V355H143.76V353H145.76ZM150.4 361V357H154.4V361H150.4ZM167.04 361V347H171.04V361H167.04ZM189.68 347V349H187.68V347H189.68ZM185.68 349H187.68V351H185.68V349ZM183.68 351H185.68V353H183.68V351ZM181.68 353H183.68V355H181.68V353ZM179.68 355H181.68V357H179.68V355ZM177.68 357H179.68V359H177.68V357ZM175.68 359H177.68V361H175.68V359Z" fill="#FFDC83"/>
<path d="M799 190V188H797V186H795V180H797V178H799V176H803V178H801V180H799V186H801V188H803V190H799ZM847 190V188H845V186H843V180H845V178H847V176H851V178H849V180H847V186H849V188H851V190H847ZM809 215V213H811V211H813V205H811V203H809V201H813V203H815V205H817V211H815V213H813V215H809ZM841 215V213H843V211H845V205H843V203H841V201H845V203H847V205H849V211H847V213H845V215H841ZM799 240V238H797V236H795V230H797V228H799V226H803V228H801V230H799V236H801V238H803V240H799ZM831 240V238H829V236H827V230H829V228H831V226H835V228H833V230H831V236H833V238H835V240H831ZM779 265V261H783V265H779ZM793 259V257H805V259H793ZM809 259V257H821V259H809ZM825 259V257H837V259H825ZM843 265V261H847V265H843ZM783 276V278H781V276H783ZM785 278V280H783V278H785ZM793 284V282H805V284H793ZM809 284V282H821V284H809ZM825 284V282H837V284H825ZM843 282V276H847V282H843ZM855 282V280H869V282H855ZM855 286V284H869V286H855ZM875 290V286H879V290H875ZM781 315V301H785V315H781ZM799 315V313H797V311H795V309H793V307H795V305H797V303H799V301H803V303H801V305H799V307H797V309H799V311H801V313H803V315H799ZM809 315V313H807V311H811V313H817V309H811V307H813V305H815V303H809V301H821V303H819V305H817V307H819V309H821V313H819V315H809ZM845 315V301H849V315H845ZM877 315V301H881V315H877ZM781 340V326H785V340H781ZM845 340V326H849V340H845ZM855 332V330H869V332H855ZM855 336V334H869V336H855ZM875 332V326H879V332H875ZM783 351V353H781V351H783ZM785 353V355H783V353H785ZM793 359V357H805V359H793ZM809 359V357H821V359H809ZM825 359V357H837V359H825ZM843 357V351H847V357H843Z" fill="#FFDC83"/>
</svg>
