<svg width="54" height="41" viewBox="0 0 54 41" fill="none" xmlns="http://www.w3.org/2000/svg">
<path fill-rule="evenodd" clip-rule="evenodd" d="M2.67536 12.6237L13.0206 0.932974C13.5459 0.33931 14.2965 0 15.0843 0H19.342C20.1808 0 20.9119 0.57721 21.1154 1.4C21.3188 2.22279 22.05 2.8 22.8888 2.8H27H31.1112C31.95 2.8 32.6812 2.22279 32.8846 1.4C33.0881 0.57721 33.8192 0 34.658 0H38.9157C39.7035 0 40.4541 0.33931 40.9794 0.932974L51.3246 12.6237C51.7136 13.0633 51.9554 13.6159 52.0154 14.2026L53.8187 31.8276C53.9293 32.909 53.4109 33.9574 52.4889 34.5167L43.746 39.8207C42.1651 40.7798 40.1538 39.6284 40.1538 37.7643V37.6533C40.1538 37.2913 40.2512 36.936 40.4354 36.6255L40.8822 35.8727C41.4757 34.8725 40.7631 33.6 39.6095 33.6C39.0882 33.6 38.6051 33.8766 38.3369 34.3286L37.499 35.7406C36.9985 36.584 36.0971 37.1 35.1244 37.1H27H18.8756C17.9029 37.1 17.0015 36.584 16.501 35.7406L15.6631 34.3286C15.3949 33.8766 14.9118 33.6 14.3905 33.6C13.2369 33.6 12.5243 34.8725 13.1178 35.8727L13.5646 36.6255C13.7488 36.936 13.8462 37.2913 13.8462 37.6533V37.7643C13.8462 39.6284 11.8349 40.7798 10.254 39.8207L1.51111 34.5167C0.589128 33.9574 0.0706952 32.909 0.181333 31.8276L1.98457 14.2026C2.0446 13.6159 2.28636 13.0633 2.67536 12.6237ZM14.5385 27.3V16.8H20.7692V27.3H14.5385ZM33.2308 16.8V27.3H39.4615V16.8H33.2308Z" fill="#FFDC83"/>
</svg>
