<svg width="100" height="20" viewBox="0 0 100 20" fill="none" xmlns="http://www.w3.org/2000/svg">
<path d="M21.1728 1.62041C19.5549 0.863416 17.8249 0.313262 16.0162 0C15.7941 0.401591 15.5346 0.94174 15.3557 1.37143C13.433 1.08228 11.5281 1.08228 9.64079 1.37143C9.46191 0.94174 9.19651 0.401591 8.9724 0C7.16179 0.313262 5.42982 0.865437 3.81188 1.62442C0.548468 6.55586 -0.336189 11.3648 0.10614 16.1055C2.27061 17.7218 4.36823 18.7037 6.43046 19.3463C6.93964 18.6455 7.39375 17.9006 7.78496 17.1155C7.03989 16.8324 6.32627 16.483 5.65198 16.0774C5.83087 15.9449 6.00585 15.8063 6.1749 15.6637C10.2876 17.5873 14.7561 17.5873 18.8196 15.6637C18.9907 15.8063 19.1656 15.9449 19.3425 16.0774C18.6663 16.485 17.9507 16.8343 17.2056 17.1175C17.5968 17.9006 18.049 18.6475 18.5601 19.3483C20.6243 18.7057 22.7239 17.7239 24.8884 16.1055C25.4074 10.6098 24.0018 5.84505 21.1728 1.62041ZM8.34526 13.19C7.11067 13.19 6.09822 12.0375 6.09822 10.6339C6.09822 9.2304 7.08906 8.07585 8.34526 8.07585C9.60149 8.07585 10.6139 9.22837 10.5923 10.6339C10.5942 12.0375 9.60149 13.19 8.34526 13.19ZM16.6493 13.19C15.4147 13.19 14.4022 12.0375 14.4022 10.6339C14.4022 9.2304 15.393 8.07585 16.6493 8.07585C17.9055 8.07585 18.9179 9.22837 18.8963 10.6339C18.8963 12.0375 17.9055 13.19 16.6493 13.19Z" fill="#5865F2"/>
<path d="M33.5873 4.93588H38.9541C40.2479 4.93588 41.3408 5.14269 42.2375 5.55432C43.1317 5.96592 43.8022 6.54019 44.2466 7.27509C44.6907 8.00999 44.9148 8.8513 44.9148 9.79904C44.9148 10.7267 44.6828 11.568 44.2189 12.321C43.755 13.0759 43.0492 13.6723 42.0997 14.112C41.1503 14.5518 39.9744 14.7726 38.569 14.7726H33.5873V4.93588ZM38.5138 12.2728C39.3848 12.2728 40.0553 12.0499 40.523 11.6061C40.991 11.1604 41.225 10.554 41.225 9.78499C41.225 9.07216 41.0164 8.50391 40.5997 8.07824C40.1831 7.65256 39.552 7.43773 38.7084 7.43773H37.0296V12.2728H38.5138Z" fill="#5865F2"/>
<path d="M52.9497 14.7606C52.2065 14.5639 51.536 14.2787 50.9405 13.9033V11.5701C51.3907 11.9255 51.9941 12.2186 52.7509 12.4495C53.5078 12.6784 54.2393 12.7929 54.9468 12.7929C55.2771 12.7929 55.5269 12.7487 55.6958 12.6604C55.8651 12.572 55.9497 12.4656 55.9497 12.3431C55.9497 12.2026 55.9045 12.0861 55.812 11.9917C55.7194 11.8974 55.5406 11.819 55.2754 11.7528L53.6239 11.3733C52.6783 11.1484 52.0078 10.8372 51.609 10.4376C51.2098 10.04 51.0111 9.51797 51.0111 8.87143C51.0111 8.32727 51.1841 7.85544 51.5343 7.45183C51.882 7.04825 52.3775 6.73701 53.0202 6.51814C53.6633 6.29729 54.414 6.18686 55.2771 6.18686C56.0477 6.18686 56.7535 6.27118 57.3966 6.43985C58.0394 6.60853 58.5701 6.82335 58.9929 7.08639V9.2931C58.5602 9.03007 58.0647 8.82326 57.4987 8.66661C56.9344 8.51202 56.3547 8.43571 55.7568 8.43571C54.8937 8.43571 54.4634 8.5863 54.4634 8.88548C54.4634 9.02606 54.5302 9.13046 54.6638 9.20073C54.7974 9.271 55.0431 9.34329 55.3991 9.4196L56.7751 9.67259C57.6738 9.83123 58.344 10.1103 58.7842 10.5079C59.2248 10.9055 59.4448 11.4938 59.4448 12.2728C59.4448 13.1262 59.0813 13.8029 58.3518 14.3049C57.6224 14.8068 56.5883 15.0578 55.2476 15.0578C54.4593 15.0558 53.6928 14.9574 52.9497 14.7606Z" fill="#5865F2"/>
<path d="M62.6929 14.4654C61.9049 14.0718 61.309 13.5378 60.9119 12.8631C60.5148 12.1884 60.3144 11.4294 60.3144 10.5861C60.3144 9.7428 60.5207 8.98782 60.9335 8.3232C61.3464 7.65858 61.9518 7.13652 62.7501 6.75703C63.5481 6.37753 64.5016 6.18878 65.6124 6.18878C66.9884 6.18878 68.1307 6.48395 69.039 7.07426V9.64642C68.7186 9.42152 68.3448 9.2388 67.9183 9.09825C67.4917 8.95771 67.0357 8.8874 66.5481 8.8874C65.695 8.8874 65.0286 9.04604 64.5468 9.36529C64.0651 9.68455 63.8236 10.1002 63.8236 10.6162C63.8236 11.1222 64.0572 11.5359 64.5253 11.8611C64.9933 12.1844 65.6713 12.3471 66.5618 12.3471C67.0199 12.3471 67.4722 12.2788 67.9183 12.1443C68.3627 12.0077 68.7461 11.8411 69.0664 11.6443V14.1321C68.0581 14.7505 66.8883 15.0597 65.5572 15.0597C64.4369 15.0557 63.4813 14.8589 62.6929 14.4654Z" fill="#5865F2"/>
<path d="M72.4714 14.4655C71.6772 14.0719 71.0718 13.5338 70.6548 12.8491C70.2382 12.1644 70.0278 11.4014 70.0278 10.5581C70.0278 9.71478 70.2361 8.96179 70.6548 8.30121C71.0735 7.64059 71.6752 7.12254 72.4656 6.74706C73.2536 6.37158 74.1955 6.18484 75.2864 6.18484C76.3777 6.18484 77.3192 6.37158 78.1076 6.74706C78.896 7.12254 79.4976 7.63658 79.9105 8.29316C80.3234 8.94976 80.5296 9.70272 80.5296 10.5561C80.5296 11.3994 80.3234 12.1624 79.9105 12.8471C79.4976 13.5318 78.8939 14.0699 78.0997 14.4635C77.3055 14.857 76.3678 15.0538 75.2847 15.0538C74.2013 15.0538 73.2636 14.859 72.4714 14.4655ZM76.6528 11.9716C76.9872 11.6303 77.1561 11.1785 77.1561 10.6163C77.1561 10.0541 76.9889 9.60634 76.6528 9.27502C76.3188 8.94171 75.8624 8.77506 75.2847 8.77506C74.6968 8.77506 74.2366 8.94171 73.9005 9.27502C73.5664 9.60836 73.3992 10.0541 73.3992 10.6163C73.3992 11.1785 73.5664 11.6303 73.9005 11.9716C74.2349 12.313 74.6968 12.4857 75.2847 12.4857C75.8624 12.4837 76.3188 12.313 76.6528 11.9716Z" fill="#5865F2"/>
<path d="M88.7982 6.70685V9.74282C88.4484 9.50788 87.9961 9.39142 87.4359 9.39142C86.7024 9.39142 86.1364 9.61834 85.743 10.0721C85.348 10.5259 85.1513 11.2327 85.1513 12.1884V14.7747H81.7799V6.55226H85.0828V9.16656C85.2654 8.21077 85.5625 7.50603 85.9712 7.0502C86.3782 6.59642 86.9049 6.36954 87.5459 6.36954C88.0314 6.36954 88.4484 6.48199 88.7982 6.70685Z" fill="#5865F2"/>
<path d="M100 4.65482V14.7747H96.6282V12.9335C96.3432 13.6262 95.9108 14.1543 95.329 14.5157C94.7469 14.8751 94.0273 15.0558 93.1742 15.0558C92.4115 15.0558 91.7472 14.8671 91.1788 14.4876C90.6107 14.1081 90.1725 13.5881 89.8638 12.9274C89.5571 12.2668 89.4016 11.5199 89.4016 10.6846C89.392 9.82322 89.5551 9.05015 89.8912 8.36545C90.2256 7.68075 90.6991 7.14666 91.3086 6.76313C91.9182 6.37963 92.614 6.18686 93.3945 6.18686C95.0007 6.18686 96.078 6.89966 96.6282 8.32327V4.65482H100ZM96.1252 11.9155C96.4692 11.5741 96.6402 11.1304 96.6402 10.5882C96.6402 10.0642 96.473 9.63645 96.139 9.30918C95.8046 8.9819 95.3465 8.81723 94.7705 8.81723C94.2024 8.81723 93.7485 8.98389 93.4082 9.31719C93.068 9.65053 92.8991 10.0822 92.8991 10.6163C92.8991 11.1504 93.068 11.5862 93.4082 11.9235C93.7485 12.2608 94.1966 12.4295 94.7568 12.4295C95.3249 12.4275 95.7809 12.2568 96.1252 11.9155Z" fill="#5865F2"/>
<path d="M47.7558 7.42765C48.684 7.42765 49.4367 6.73722 49.4367 5.88556C49.4367 5.0339 48.684 4.34351 47.7558 4.34351C46.8273 4.34351 46.0749 5.0339 46.0749 5.88556C46.0749 6.73722 46.8273 7.42765 47.7558 7.42765Z" fill="#5865F2"/>
<path d="M46.0735 8.48987C47.1034 8.94364 48.3814 8.96372 49.435 8.48987V14.8188H46.0735V8.48987Z" fill="#5865F2"/>
</svg>
