<svg width="128" height="128" viewBox="0 0 128 128" fill="none" xmlns="http://www.w3.org/2000/svg">
<path d="M104.28 12.225H101.78V82.48H104.28V12.225Z" fill="#F1EAE1"/>
<path d="M106.28 33.875V83.5C106.273 83.7626 106.17 84.0136 105.99 84.205L81.075 109.12C80.9804 109.214 80.868 109.288 80.7443 109.338C80.6207 109.388 80.4883 109.412 80.355 109.41H25.965L27.6 118.675C27.7672 119.605 28.2549 120.447 28.9784 121.054C29.7019 121.661 30.6154 121.996 31.56 122C31.7981 121.999 32.0357 121.978 32.27 121.935L115.55 106.815C116.603 106.627 117.539 106.03 118.153 105.154C118.767 104.278 119.008 103.194 118.825 102.14L106.775 33.83L106.28 33.875Z" fill="#6764E9"/>
<path d="M81.37 105.985L102.87 84.485H81.37V105.985Z" fill="#F1EAE1"/>
<path d="M118.825 102.14L106.775 33.83L106.275 33.875V45.19L116.32 102.135C116.503 103.189 116.262 104.273 115.648 105.149C115.034 106.025 114.098 106.622 113.045 106.81L30.395 121.81C30.7726 121.926 31.1652 121.985 31.56 121.985C31.7981 121.984 32.0357 121.963 32.27 121.92L115.55 106.815C116.603 106.627 117.539 106.03 118.153 105.154C118.767 104.278 119.008 103.194 118.825 102.14V102.14Z" fill="#393939"/>
<path d="M100.37 84.485L81.37 103.485V105.985L102.87 84.485H100.37Z" fill="#F1EAE1"/>
<path d="M13.15 109.65H21.225L22.88 119.055C23.136 120.509 23.8956 121.826 25.0256 122.776C26.1555 123.726 27.5838 124.248 29.06 124.25C29.4304 124.251 29.8001 124.219 30.165 124.155L115.94 109.03C117.58 108.738 119.038 107.809 119.994 106.444C120.95 105.079 121.326 103.391 121.04 101.75L106.53 19.5V11.225C106.53 10.8935 106.398 10.5755 106.164 10.3411C105.929 10.1067 105.612 9.97498 105.28 9.97498H32.97C32.6751 8.23501 31.7738 6.65562 30.4257 5.51674C29.0776 4.37786 27.3698 3.75305 25.605 3.75305C23.8402 3.75305 22.1324 4.37786 20.7843 5.51674C19.4362 6.65562 18.5348 8.23501 18.24 9.97498H13.15C11.4835 9.97631 9.88567 10.6389 8.70729 11.8173C7.52891 12.9957 6.86631 14.5935 6.86499 16.26V103.365C6.86631 105.031 7.52891 106.629 8.70729 107.808C9.88567 108.986 11.4835 109.649 13.15 109.65V109.65ZM106.15 84.37C106.373 84.1344 106.499 83.8241 106.505 83.5V33.875L118.55 102.185C118.723 103.174 118.496 104.191 117.92 105.014C117.343 105.836 116.464 106.396 115.475 106.57L29.73 121.69C29.2405 121.776 28.7388 121.765 28.2535 121.658C27.7682 121.55 27.3088 121.348 26.9017 121.063C26.4945 120.778 26.1474 120.416 25.8803 119.996C25.6132 119.577 25.4313 119.109 25.345 118.62L23.765 109.65H80.365C80.6966 109.65 81.0148 109.519 81.25 109.285L106.15 84.37ZM81.6 105.37V84.72H102.25L81.6 105.37ZM25.605 6.24998C26.7081 6.25688 27.778 6.62839 28.648 7.30666C29.518 7.98492 30.1392 8.93186 30.415 9.99998H20.79C21.066 8.93104 21.688 7.98349 22.559 7.30514C23.43 6.62679 24.501 6.25578 25.605 6.24998V6.24998ZM9.36499 16.25C9.37552 15.2526 9.77878 14.2996 10.4873 13.5976C11.1959 12.8956 12.1526 12.5012 13.15 12.5H18.15V23.685C18.0747 24.7133 18.2123 25.746 18.5541 26.7187C18.8959 27.6915 19.4346 28.5833 20.1366 29.3385C20.8385 30.0936 21.6886 30.696 22.6338 31.1079C23.579 31.5198 24.599 31.7323 25.63 31.7323C26.661 31.7323 27.681 31.5198 28.6262 31.1079C29.5714 30.696 30.4215 30.0936 31.1234 29.3385C31.8253 28.5833 32.364 27.6915 32.7059 26.7187C33.0477 25.746 33.1852 24.7133 33.11 23.685V17.46C33.11 17.1285 32.9783 16.8105 32.7439 16.5761C32.5095 16.3417 32.1915 16.21 31.86 16.21C31.5285 16.21 31.2105 16.3417 30.9761 16.5761C30.7417 16.8105 30.61 17.1285 30.61 17.46V23.685C30.672 24.3765 30.5894 25.0733 30.3673 25.7311C30.1452 26.3889 29.7886 26.9932 29.3201 27.5056C28.8516 28.018 28.2816 28.4272 27.6462 28.7072C27.0109 28.9872 26.3243 29.1317 25.63 29.1317C24.9357 29.1317 24.2491 28.9872 23.6137 28.7072C22.9784 28.4272 22.4084 28.018 21.9399 27.5056C21.4714 26.9932 21.1148 26.3889 20.8927 25.7311C20.6706 25.0733 20.588 24.3765 20.65 23.685V12.5H104.03V82.235H80.37C80.0385 82.235 79.7205 82.3667 79.4861 82.6011C79.2517 82.8355 79.12 83.1535 79.12 83.485V107.15H13.15C12.1466 107.149 11.1846 106.749 10.4751 106.04C9.76551 105.33 9.36631 104.368 9.36499 103.365V16.25Z" fill="#393939"/>
<path d="M29.5 41.165H93.88C94.2115 41.165 94.5295 41.0333 94.7639 40.7989C94.9983 40.5644 95.13 40.2465 95.13 39.915C95.13 39.5835 94.9983 39.2655 94.7639 39.0311C94.5295 38.7967 94.2115 38.665 93.88 38.665H29.5C29.1685 38.665 28.8505 38.7967 28.6161 39.0311C28.3817 39.2655 28.25 39.5835 28.25 39.915C28.25 40.2465 28.3817 40.5644 28.6161 40.7989C28.8505 41.0333 29.1685 41.165 29.5 41.165V41.165Z" fill="#393939"/>
<path d="M19.5 51.165H93.88C94.2115 51.165 94.5295 51.0333 94.7639 50.7989C94.9983 50.5644 95.13 50.2465 95.13 49.915C95.13 49.5835 94.9983 49.2655 94.7639 49.0311C94.5295 48.7967 94.2115 48.665 93.88 48.665H19.5C19.1685 48.665 18.8505 48.7967 18.6161 49.0311C18.3817 49.2655 18.25 49.5835 18.25 49.915C18.25 50.2465 18.3817 50.5644 18.6161 50.7989C18.8505 51.0333 19.1685 51.165 19.5 51.165V51.165Z" fill="#393939"/>
<path d="M19.5 61.165H93.88C94.2115 61.165 94.5295 61.0333 94.7639 60.7989C94.9983 60.5644 95.13 60.2465 95.13 59.915C95.13 59.5835 94.9983 59.2655 94.7639 59.0311C94.5295 58.7967 94.2115 58.665 93.88 58.665H19.5C19.1685 58.665 18.8505 58.7967 18.6161 59.0311C18.3817 59.2655 18.25 59.5835 18.25 59.915C18.25 60.2465 18.3817 60.5644 18.6161 60.7989C18.8505 61.0333 19.1685 61.165 19.5 61.165V61.165Z" fill="#393939"/>
<path d="M19.5 71.165H93.88C94.2115 71.165 94.5295 71.0333 94.7639 70.7989C94.9983 70.5644 95.13 70.2465 95.13 69.915C95.13 69.5835 94.9983 69.2655 94.7639 69.0311C94.5295 68.7967 94.2115 68.665 93.88 68.665H19.5C19.1685 68.665 18.8505 68.7967 18.6161 69.0311C18.3817 69.2655 18.25 69.5835 18.25 69.915C18.25 70.2465 18.3817 70.5644 18.6161 70.7989C18.8505 71.0333 19.1685 71.165 19.5 71.165Z" fill="#393939"/>
<path d="M19.5 81.165H70.35C70.6815 81.165 70.9995 81.0333 71.2339 80.7989C71.4683 80.5644 71.6 80.2465 71.6 79.915C71.6 79.5835 71.4683 79.2655 71.2339 79.0311C70.9995 78.7967 70.6815 78.665 70.35 78.665H19.5C19.1685 78.665 18.8505 78.7967 18.6161 79.0311C18.3817 79.2655 18.25 79.5835 18.25 79.915C18.25 80.2465 18.3817 80.5644 18.6161 80.7989C18.8505 81.0333 19.1685 81.165 19.5 81.165V81.165Z" fill="#393939"/>
<path d="M19.5 91.165H70.35C70.6815 91.165 70.9995 91.0333 71.2339 90.7989C71.4683 90.5644 71.6 90.2465 71.6 89.915C71.6 89.5835 71.4683 89.2655 71.2339 89.0311C70.9995 88.7967 70.6815 88.665 70.35 88.665H19.5C19.1685 88.665 18.8505 88.7967 18.6161 89.0311C18.3817 89.2655 18.25 89.5835 18.25 89.915C18.25 90.2465 18.3817 90.5644 18.6161 90.7989C18.8505 91.0333 19.1685 91.165 19.5 91.165Z" fill="#393939"/>
<path d="M19.5 101.165H70.35C70.6815 101.165 70.9995 101.033 71.2339 100.799C71.4683 100.564 71.6 100.246 71.6 99.915C71.6 99.5835 71.4683 99.2655 71.2339 99.0311C70.9995 98.7967 70.6815 98.665 70.35 98.665H19.5C19.1685 98.665 18.8505 98.7967 18.6161 99.0311C18.3817 99.2655 18.25 99.5835 18.25 99.915C18.25 100.246 18.3817 100.564 18.6161 100.799C18.8505 101.033 19.1685 101.165 19.5 101.165V101.165Z" fill="#393939"/>
<path d="M14.615 115.5H12.615V113.5C12.615 113.367 12.5623 113.24 12.4685 113.146C12.3748 113.053 12.2476 113 12.115 113C11.9824 113 11.8552 113.053 11.7614 113.146C11.6677 113.24 11.615 113.367 11.615 113.5V115.5H9.61499C9.48238 115.5 9.35521 115.553 9.26144 115.646C9.16767 115.74 9.11499 115.867 9.11499 116C9.11499 116.133 9.16767 116.26 9.26144 116.354C9.35521 116.447 9.48238 116.5 9.61499 116.5H11.615V118.5C11.615 118.633 11.6677 118.76 11.7614 118.854C11.8552 118.947 11.9824 119 12.115 119C12.2476 119 12.3748 118.947 12.4685 118.854C12.5623 118.76 12.615 118.633 12.615 118.5V116.5H14.615C14.7476 116.5 14.8748 116.447 14.9685 116.354C15.0623 116.26 15.115 116.133 15.115 116C15.115 115.867 15.0623 115.74 14.9685 115.646C14.8748 115.553 14.7476 115.5 14.615 115.5Z" fill="#FFDD00"/>
<path d="M120.5 50.665H118.5V48.665C118.5 48.5324 118.447 48.4052 118.354 48.3114C118.26 48.2177 118.133 48.165 118 48.165C117.867 48.165 117.74 48.2177 117.646 48.3114C117.553 48.4052 117.5 48.5324 117.5 48.665V50.665H115.5C115.367 50.665 115.24 50.7177 115.146 50.8114C115.053 50.9052 115 51.0324 115 51.165C115 51.2976 115.053 51.4248 115.146 51.5185C115.24 51.6123 115.367 51.665 115.5 51.665H117.5V53.665C117.5 53.7976 117.553 53.9248 117.646 54.0185C117.74 54.1123 117.867 54.165 118 54.165C118.133 54.165 118.26 54.1123 118.354 54.0185C118.447 53.9248 118.5 53.7976 118.5 53.665V51.665H120.5C120.633 51.665 120.76 51.6123 120.854 51.5185C120.947 51.4248 121 51.2976 121 51.165C121 51.0324 120.947 50.9052 120.854 50.8114C120.76 50.7177 120.633 50.665 120.5 50.665Z" fill="#6764E9"/>
<path d="M116.315 120.045C115.722 120.045 115.142 119.869 114.648 119.539C114.155 119.21 113.77 118.741 113.543 118.193C113.316 117.645 113.257 117.042 113.373 116.46C113.488 115.878 113.774 115.343 114.194 114.924C114.613 114.504 115.148 114.218 115.73 114.103C116.312 113.987 116.915 114.046 117.463 114.273C118.011 114.5 118.48 114.885 118.809 115.378C119.139 115.872 119.315 116.452 119.315 117.045C119.315 117.841 118.999 118.604 118.436 119.166C117.874 119.729 117.111 120.045 116.315 120.045V120.045ZM116.315 115.045C115.919 115.045 115.533 115.162 115.204 115.382C114.875 115.602 114.619 115.914 114.467 116.28C114.316 116.645 114.276 117.047 114.353 117.435C114.431 117.823 114.621 118.179 114.901 118.459C115.18 118.739 115.537 118.929 115.925 119.007C116.313 119.084 116.715 119.044 117.08 118.893C117.446 118.741 117.758 118.485 117.978 118.156C118.198 117.827 118.315 117.441 118.315 117.045C118.315 116.515 118.104 116.006 117.729 115.631C117.354 115.256 116.845 115.045 116.315 115.045Z" fill="#FFDD00"/>
<path d="M115.815 16.63C115.222 16.63 114.642 16.4541 114.148 16.1244C113.655 15.7948 113.27 15.3262 113.043 14.7781C112.816 14.2299 112.757 13.6267 112.873 13.0447C112.988 12.4628 113.274 11.9282 113.694 11.5087C114.113 11.0891 114.648 10.8034 115.23 10.6877C115.812 10.5719 116.415 10.6313 116.963 10.8584C117.511 11.0854 117.98 11.4699 118.309 11.9633C118.639 12.4566 118.815 13.0367 118.815 13.63C118.815 14.4257 118.499 15.1887 117.936 15.7513C117.374 16.3139 116.611 16.63 115.815 16.63V16.63ZM115.815 11.63C115.419 11.63 115.033 11.7473 114.704 11.9671C114.375 12.1868 114.119 12.4992 113.967 12.8646C113.816 13.2301 113.776 13.6322 113.853 14.0202C113.931 14.4081 114.121 14.7645 114.401 15.0442C114.68 15.3239 115.037 15.5144 115.425 15.5916C115.813 15.6687 116.215 15.6291 116.58 15.4778C116.946 15.3264 117.258 15.07 117.478 14.7411C117.698 14.4122 117.815 14.0256 117.815 13.63C117.815 13.0996 117.604 12.5909 117.229 12.2158C116.854 11.8407 116.345 11.63 115.815 11.63Z" fill="#FFDD00"/>
</svg>
