<svg width="50" height="53" viewBox="0 0 50 53" fill="none" xmlns="http://www.w3.org/2000/svg">
<rect y="3" width="50" height="50" rx="25" fill="#4F8901"/>
<path d="M34.84 26.308C33.776 26.308 32.8053 26.1027 31.928 25.692C31.0507 25.2813 30.2853 24.6933 29.632 23.928C28.9787 23.1627 28.4747 22.2387 28.12 21.156C27.784 20.0547 27.616 18.832 27.616 17.488C27.616 16.144 27.784 14.9307 28.12 13.848C28.4747 12.7467 28.9787 11.8133 29.632 11.048C30.2853 10.2827 31.0507 9.69467 31.928 9.284C32.8053 8.87333 33.776 8.668 34.84 8.668C35.904 8.668 36.8747 8.87333 37.752 9.284C38.6293 9.69467 39.3947 10.2827 40.048 11.048C40.7013 11.8133 41.196 12.7467 41.532 13.848C41.8867 14.9307 42.064 16.144 42.064 17.488C42.064 18.832 41.8867 20.0547 41.532 21.156C41.196 22.2387 40.7013 23.1627 40.048 23.928C39.3947 24.6933 38.6293 25.2813 37.752 25.692C36.8747 26.1027 35.904 26.308 34.84 26.308ZM34.84 24.124C35.232 24.124 35.568 24.0027 35.848 23.76C36.128 23.5173 36.3613 23.144 36.548 22.64C36.7533 22.136 36.9027 21.464 36.996 20.624C37.0893 19.7653 37.136 18.72 37.136 17.488C37.136 16.256 37.0893 15.22 36.996 14.38C36.9027 13.5213 36.7533 12.84 36.548 12.336C36.3613 11.8133 36.128 11.44 35.848 11.216C35.568 10.9733 35.232 10.852 34.84 10.852C34.448 10.852 34.112 10.9733 33.832 11.216C33.552 11.44 33.3093 11.8133 33.104 12.336C32.9173 12.84 32.7773 13.5213 32.684 14.38C32.5907 15.22 32.544 16.256 32.544 17.488C32.544 18.7013 32.5907 19.7373 32.684 20.596C32.7773 21.4547 32.9173 22.136 33.104 22.64C33.3093 23.144 33.552 23.5173 33.832 23.76C34.112 24.0027 34.448 24.124 34.84 24.124Z" fill="white"/>
<path d="M17.2 42.976C17.2 43.2933 17.3307 43.536 17.592 43.704C17.8533 43.872 18.2173 43.9933 18.684 44.068C19.1507 44.124 19.692 44.152 20.308 44.152H21.036V46H8.128V44.152H9.192C9.77067 44.152 10.284 44.124 10.732 44.068C11.18 43.9933 11.5347 43.872 11.796 43.704C12.0573 43.536 12.188 43.2933 12.188 42.976V31.384L12.72 31.16C12.552 31.664 12.3093 32.0933 11.992 32.448C11.6933 32.8027 11.32 33.092 10.872 33.316C10.424 33.54 9.92 33.708 9.36 33.82C8.81867 33.9133 8.23067 33.9507 7.596 33.932V31.104C8.34267 31.104 9.00533 31.0573 9.584 30.964C10.1813 30.8707 10.6947 30.7307 11.124 30.544C11.572 30.3573 11.9547 30.1333 12.272 29.872C12.608 29.6107 12.9067 29.3027 13.168 28.948H17.2V42.976Z" fill="white"/>
<path d="M34.84 46.308C33.776 46.308 32.8053 46.1027 31.928 45.692C31.0507 45.2813 30.2853 44.6933 29.632 43.928C28.9787 43.1627 28.4747 42.2387 28.12 41.156C27.784 40.0547 27.616 38.832 27.616 37.488C27.616 36.144 27.784 34.9307 28.12 33.848C28.4747 32.7467 28.9787 31.8133 29.632 31.048C30.2853 30.2827 31.0507 29.6947 31.928 29.284C32.8053 28.8733 33.776 28.668 34.84 28.668C35.904 28.668 36.8747 28.8733 37.752 29.284C38.6293 29.6947 39.3947 30.2827 40.048 31.048C40.7013 31.8133 41.196 32.7467 41.532 33.848C41.8867 34.9307 42.064 36.144 42.064 37.488C42.064 38.832 41.8867 40.0547 41.532 41.156C41.196 42.2387 40.7013 43.1627 40.048 43.928C39.3947 44.6933 38.6293 45.2813 37.752 45.692C36.8747 46.1027 35.904 46.308 34.84 46.308ZM34.84 44.124C35.232 44.124 35.568 44.0027 35.848 43.76C36.128 43.5173 36.3613 43.144 36.548 42.64C36.7533 42.136 36.9027 41.464 36.996 40.624C37.0893 39.7653 37.136 38.72 37.136 37.488C37.136 36.256 37.0893 35.22 36.996 34.38C36.9027 33.5213 36.7533 32.84 36.548 32.336C36.3613 31.8133 36.128 31.44 35.848 31.216C35.568 30.9733 35.232 30.852 34.84 30.852C34.448 30.852 34.112 30.9733 33.832 31.216C33.552 31.44 33.3093 31.8133 33.104 32.336C32.9173 32.84 32.7773 33.5213 32.684 34.38C32.5907 35.22 32.544 36.256 32.544 37.488C32.544 38.7013 32.5907 39.7373 32.684 40.596C32.7773 41.4547 32.9173 42.136 33.104 42.64C33.3093 43.144 33.552 43.5173 33.832 43.76C34.112 44.0027 34.448 44.124 34.84 44.124Z" fill="white"/>
<path d="M14.84 26.308C13.776 26.308 12.8053 26.1027 11.928 25.692C11.0507 25.2813 10.2853 24.6933 9.632 23.928C8.97867 23.1627 8.47467 22.2387 8.12 21.156C7.784 20.0547 7.616 18.832 7.616 17.488C7.616 16.144 7.784 14.9307 8.12 13.848C8.47467 12.7467 8.97867 11.8133 9.632 11.048C10.2853 10.2827 11.0507 9.69467 11.928 9.284C12.8053 8.87333 13.776 8.668 14.84 8.668C15.904 8.668 16.8747 8.87333 17.752 9.284C18.6293 9.69467 19.3947 10.2827 20.048 11.048C20.7013 11.8133 21.196 12.7467 21.532 13.848C21.8867 14.9307 22.064 16.144 22.064 17.488C22.064 18.832 21.8867 20.0547 21.532 21.156C21.196 22.2387 20.7013 23.1627 20.048 23.928C19.3947 24.6933 18.6293 25.2813 17.752 25.692C16.8747 26.1027 15.904 26.308 14.84 26.308ZM14.84 24.124C15.232 24.124 15.568 24.0027 15.848 23.76C16.128 23.5173 16.3613 23.144 16.548 22.64C16.7533 22.136 16.9027 21.464 16.996 20.624C17.0893 19.7653 17.136 18.72 17.136 17.488C17.136 16.256 17.0893 15.22 16.996 14.38C16.9027 13.5213 16.7533 12.84 16.548 12.336C16.3613 11.8133 16.128 11.44 15.848 11.216C15.568 10.9733 15.232 10.852 14.84 10.852C14.448 10.852 14.112 10.9733 13.832 11.216C13.552 11.44 13.3093 11.8133 13.104 12.336C12.9173 12.84 12.7773 13.5213 12.684 14.38C12.5907 15.22 12.544 16.256 12.544 17.488C12.544 18.7013 12.5907 19.7373 12.684 20.596C12.7773 21.4547 12.9173 22.136 13.104 22.64C13.3093 23.144 13.552 23.5173 13.832 23.76C14.112 24.0027 14.448 24.124 14.84 24.124Z" fill="white"/>
</svg>
