<svg width="50" height="53" viewBox="0 0 50 53" fill="none" xmlns="http://www.w3.org/2000/svg">
<rect y="3" width="50" height="50" rx="25" fill="#EE9B00"/>
<path d="M38.2 22.976C38.2 23.2933 38.3307 23.536 38.592 23.704C38.8533 23.872 39.2173 23.9933 39.684 24.068C40.1507 24.124 40.692 24.152 41.308 24.152H42.036V26H29.128V24.152H30.192C30.7707 24.152 31.284 24.124 31.732 24.068C32.18 23.9933 32.5347 23.872 32.796 23.704C33.0573 23.536 33.188 23.2933 33.188 22.976V11.384L33.72 11.16C33.552 11.664 33.3093 12.0933 32.992 12.448C32.6933 12.8027 32.32 13.092 31.872 13.316C31.424 13.54 30.92 13.708 30.36 13.82C29.8187 13.9133 29.2307 13.9507 28.596 13.932V11.104C29.3427 11.104 30.0053 11.0573 30.584 10.964C31.1813 10.8707 31.6947 10.7307 32.124 10.544C32.572 10.3573 32.9547 10.1333 33.272 9.872C33.608 9.61067 33.9067 9.30267 34.168 8.948H38.2V22.976Z" fill="white"/>
<path d="M17.2 42.976C17.2 43.2933 17.3307 43.536 17.592 43.704C17.8533 43.872 18.2173 43.9933 18.684 44.068C19.1507 44.124 19.692 44.152 20.308 44.152H21.036V46H8.128V44.152H9.192C9.77067 44.152 10.284 44.124 10.732 44.068C11.18 43.9933 11.5347 43.872 11.796 43.704C12.0573 43.536 12.188 43.2933 12.188 42.976V31.384L12.72 31.16C12.552 31.664 12.3093 32.0933 11.992 32.448C11.6933 32.8027 11.32 33.092 10.872 33.316C10.424 33.54 9.92 33.708 9.36 33.82C8.81867 33.9133 8.23067 33.9507 7.596 33.932V31.104C8.34267 31.104 9.00533 31.0573 9.584 30.964C10.1813 30.8707 10.6947 30.7307 11.124 30.544C11.572 30.3573 11.9547 30.1333 12.272 29.872C12.608 29.6107 12.9067 29.3027 13.168 28.948H17.2V42.976Z" fill="white"/>
<path d="M34.84 46.308C33.776 46.308 32.8053 46.1027 31.928 45.692C31.0507 45.2813 30.2853 44.6933 29.632 43.928C28.9787 43.1627 28.4747 42.2387 28.12 41.156C27.784 40.0547 27.616 38.832 27.616 37.488C27.616 36.144 27.784 34.9307 28.12 33.848C28.4747 32.7467 28.9787 31.8133 29.632 31.048C30.2853 30.2827 31.0507 29.6947 31.928 29.284C32.8053 28.8733 33.776 28.668 34.84 28.668C35.904 28.668 36.8747 28.8733 37.752 29.284C38.6293 29.6947 39.3947 30.2827 40.048 31.048C40.7013 31.8133 41.196 32.7467 41.532 33.848C41.8867 34.9307 42.064 36.144 42.064 37.488C42.064 38.832 41.8867 40.0547 41.532 41.156C41.196 42.2387 40.7013 43.1627 40.048 43.928C39.3947 44.6933 38.6293 45.2813 37.752 45.692C36.8747 46.1027 35.904 46.308 34.84 46.308ZM34.84 44.124C35.232 44.124 35.568 44.0027 35.848 43.76C36.128 43.5173 36.3613 43.144 36.548 42.64C36.7533 42.136 36.9027 41.464 36.996 40.624C37.0893 39.7653 37.136 38.72 37.136 37.488C37.136 36.256 37.0893 35.22 36.996 34.38C36.9027 33.5213 36.7533 32.84 36.548 32.336C36.3613 31.8133 36.128 31.44 35.848 31.216C35.568 30.9733 35.232 30.852 34.84 30.852C34.448 30.852 34.112 30.9733 33.832 31.216C33.552 31.44 33.3093 31.8133 33.104 32.336C32.9173 32.84 32.7773 33.5213 32.684 34.38C32.5907 35.22 32.544 36.256 32.544 37.488C32.544 38.7013 32.5907 39.7373 32.684 40.596C32.7773 41.4547 32.9173 42.136 33.104 42.64C33.3093 43.144 33.552 43.5173 33.832 43.76C34.112 44.0027 34.448 44.124 34.84 44.124Z" fill="white"/>
<path d="M18.2 22.976C18.2 23.2933 18.3307 23.536 18.592 23.704C18.8533 23.872 19.2173 23.9933 19.684 24.068C20.1507 24.124 20.692 24.152 21.308 24.152H22.036V26H9.128V24.152H10.192C10.7707 24.152 11.284 24.124 11.732 24.068C12.18 23.9933 12.5347 23.872 12.796 23.704C13.0573 23.536 13.188 23.2933 13.188 22.976V11.384L13.72 11.16C13.552 11.664 13.3093 12.0933 12.992 12.448C12.6933 12.8027 12.32 13.092 11.872 13.316C11.424 13.54 10.92 13.708 10.36 13.82C9.81867 13.9133 9.23067 13.9507 8.596 13.932V11.104C9.34267 11.104 10.0053 11.0573 10.584 10.964C11.1813 10.8707 11.6947 10.7307 12.124 10.544C12.572 10.3573 12.9547 10.1333 13.272 9.872C13.608 9.61067 13.9067 9.30267 14.168 8.948H18.2V22.976Z" fill="white"/>
</svg>
