<svg width="58" height="61" viewBox="0 0 58 61" fill="none" xmlns="http://www.w3.org/2000/svg">
<g filter="url(#filter0_d_104_34)">
<rect x="4" y="3" width="50" height="50" rx="25" fill="#62B6CB"/>
<path d="M38.84 26.308C37.776 26.308 36.8053 26.1027 35.928 25.692C35.0507 25.2813 34.2853 24.6933 33.632 23.928C32.9787 23.1627 32.4747 22.2387 32.12 21.156C31.784 20.0547 31.616 18.832 31.616 17.488C31.616 16.144 31.784 14.9307 32.12 13.848C32.4747 12.7467 32.9787 11.8133 33.632 11.048C34.2853 10.2827 35.0507 9.69467 35.928 9.284C36.8053 8.87333 37.776 8.668 38.84 8.668C39.904 8.668 40.8747 8.87333 41.752 9.284C42.6293 9.69467 43.3947 10.2827 44.048 11.048C44.7013 11.8133 45.196 12.7467 45.532 13.848C45.8867 14.9307 46.064 16.144 46.064 17.488C46.064 18.832 45.8867 20.0547 45.532 21.156C45.196 22.2387 44.7013 23.1627 44.048 23.928C43.3947 24.6933 42.6293 25.2813 41.752 25.692C40.8747 26.1027 39.904 26.308 38.84 26.308ZM38.84 24.124C39.232 24.124 39.568 24.0027 39.848 23.76C40.128 23.5173 40.3613 23.144 40.548 22.64C40.7533 22.136 40.9027 21.464 40.996 20.624C41.0893 19.7653 41.136 18.72 41.136 17.488C41.136 16.256 41.0893 15.22 40.996 14.38C40.9027 13.5213 40.7533 12.84 40.548 12.336C40.3613 11.8133 40.128 11.44 39.848 11.216C39.568 10.9733 39.232 10.852 38.84 10.852C38.448 10.852 38.112 10.9733 37.832 11.216C37.552 11.44 37.3093 11.8133 37.104 12.336C36.9173 12.84 36.7773 13.5213 36.684 14.38C36.5907 15.22 36.544 16.256 36.544 17.488C36.544 18.7013 36.5907 19.7373 36.684 20.596C36.7773 21.4547 36.9173 22.136 37.104 22.64C37.3093 23.144 37.552 23.5173 37.832 23.76C38.112 24.0027 38.448 24.124 38.84 24.124Z" fill="white"/>
<path d="M21.2 42.976C21.2 43.2933 21.3307 43.536 21.592 43.704C21.8533 43.872 22.2173 43.9933 22.684 44.068C23.1507 44.124 23.692 44.152 24.308 44.152H25.036V46H12.128V44.152H13.192C13.7707 44.152 14.284 44.124 14.732 44.068C15.18 43.9933 15.5347 43.872 15.796 43.704C16.0573 43.536 16.188 43.2933 16.188 42.976V31.384L16.72 31.16C16.552 31.664 16.3093 32.0933 15.992 32.448C15.6933 32.8027 15.32 33.092 14.872 33.316C14.424 33.54 13.92 33.708 13.36 33.82C12.8187 33.9133 12.2307 33.9507 11.596 33.932V31.104C12.3427 31.104 13.0053 31.0573 13.584 30.964C14.1813 30.8707 14.6947 30.7307 15.124 30.544C15.572 30.3573 15.9547 30.1333 16.272 29.872C16.608 29.6107 16.9067 29.3027 17.168 28.948H21.2V42.976Z" fill="white"/>
<path d="M42.2 42.976C42.2 43.2933 42.3307 43.536 42.592 43.704C42.8533 43.872 43.2173 43.9933 43.684 44.068C44.1507 44.124 44.692 44.152 45.308 44.152H46.036V46H33.128V44.152H34.192C34.7707 44.152 35.284 44.124 35.732 44.068C36.18 43.9933 36.5347 43.872 36.796 43.704C37.0573 43.536 37.188 43.2933 37.188 42.976V31.384L37.72 31.16C37.552 31.664 37.3093 32.0933 36.992 32.448C36.6933 32.8027 36.32 33.092 35.872 33.316C35.424 33.54 34.92 33.708 34.36 33.82C33.8187 33.9133 33.2307 33.9507 32.596 33.932V31.104C33.3427 31.104 34.0053 31.0573 34.584 30.964C35.1813 30.8707 35.6947 30.7307 36.124 30.544C36.572 30.3573 36.9547 30.1333 37.272 29.872C37.608 29.6107 37.9067 29.3027 38.168 28.948H42.2V42.976Z" fill="white"/>
<path d="M18.84 26.308C17.776 26.308 16.8053 26.1027 15.928 25.692C15.0507 25.2813 14.2853 24.6933 13.632 23.928C12.9787 23.1627 12.4747 22.2387 12.12 21.156C11.784 20.0547 11.616 18.832 11.616 17.488C11.616 16.144 11.784 14.9307 12.12 13.848C12.4747 12.7467 12.9787 11.8133 13.632 11.048C14.2853 10.2827 15.0507 9.69467 15.928 9.284C16.8053 8.87333 17.776 8.668 18.84 8.668C19.904 8.668 20.8747 8.87333 21.752 9.284C22.6293 9.69467 23.3947 10.2827 24.048 11.048C24.7013 11.8133 25.196 12.7467 25.532 13.848C25.8867 14.9307 26.064 16.144 26.064 17.488C26.064 18.832 25.8867 20.0547 25.532 21.156C25.196 22.2387 24.7013 23.1627 24.048 23.928C23.3947 24.6933 22.6293 25.2813 21.752 25.692C20.8747 26.1027 19.904 26.308 18.84 26.308ZM18.84 24.124C19.232 24.124 19.568 24.0027 19.848 23.76C20.128 23.5173 20.3613 23.144 20.548 22.64C20.7533 22.136 20.9027 21.464 20.996 20.624C21.0893 19.7653 21.136 18.72 21.136 17.488C21.136 16.256 21.0893 15.22 20.996 14.38C20.9027 13.5213 20.7533 12.84 20.548 12.336C20.3613 11.8133 20.128 11.44 19.848 11.216C19.568 10.9733 19.232 10.852 18.84 10.852C18.448 10.852 18.112 10.9733 17.832 11.216C17.552 11.44 17.3093 11.8133 17.104 12.336C16.9173 12.84 16.7773 13.5213 16.684 14.38C16.5907 15.22 16.544 16.256 16.544 17.488C16.544 18.7013 16.5907 19.7373 16.684 20.596C16.7773 21.4547 16.9173 22.136 17.104 22.64C17.3093 23.144 17.552 23.5173 17.832 23.76C18.112 24.0027 18.448 24.124 18.84 24.124Z" fill="white"/>
</g>
<defs>
<filter id="filter0_d_104_34" x="0" y="3" width="58" height="58" filterUnits="userSpaceOnUse" color-interpolation-filters="sRGB">
<feFlood flood-opacity="0" result="BackgroundImageFix"/>
<feColorMatrix in="SourceAlpha" type="matrix" values="0 0 0 0 0 0 0 0 0 0 0 0 0 0 0 0 0 0 127 0" result="hardAlpha"/>
<feOffset dy="4"/>
<feGaussianBlur stdDeviation="2"/>
<feComposite in2="hardAlpha" operator="out"/>
<feColorMatrix type="matrix" values="0 0 0 0 0 0 0 0 0 0 0 0 0 0 0 0 0 0 0.25 0"/>
<feBlend mode="normal" in2="BackgroundImageFix" result="effect1_dropShadow_104_34"/>
<feBlend mode="normal" in="SourceGraphic" in2="effect1_dropShadow_104_34" result="shape"/>
</filter>
</defs>
</svg>
