<svg width="50" height="55" viewBox="0 0 50 55" fill="none" xmlns="http://www.w3.org/2000/svg">
<rect y="3" width="50" height="50" rx="25" fill="#AA4DB9"/>
<g filter="url(#filter0_d_104_46)">
<path d="M38.2 22.976C38.2 23.2933 38.3307 23.536 38.592 23.704C38.8533 23.872 39.2173 23.9933 39.684 24.068C40.1507 24.124 40.692 24.152 41.308 24.152H42.036V26H29.128V24.152H30.192C30.7707 24.152 31.284 24.124 31.732 24.068C32.18 23.9933 32.5347 23.872 32.796 23.704C33.0573 23.536 33.188 23.2933 33.188 22.976V11.384L33.72 11.16C33.552 11.664 33.3093 12.0933 32.992 12.448C32.6933 12.8027 32.32 13.092 31.872 13.316C31.424 13.54 30.92 13.708 30.36 13.82C29.8187 13.9133 29.2307 13.9507 28.596 13.932V11.104C29.3427 11.104 30.0053 11.0573 30.584 10.964C31.1813 10.8707 31.6947 10.7307 32.124 10.544C32.572 10.3573 32.9547 10.1333 33.272 9.872C33.608 9.61067 33.9067 9.30267 34.168 8.948H38.2V22.976Z" fill="white"/>
</g>
<g filter="url(#filter1_d_104_46)">
<path d="M13.84 46.308C12.776 46.308 11.8053 46.1027 10.928 45.692C10.0507 45.2813 9.28533 44.6933 8.632 43.928C7.97867 43.1627 7.47467 42.2387 7.12 41.156C6.784 40.0547 6.616 38.832 6.616 37.488C6.616 36.144 6.784 34.9307 7.12 33.848C7.47467 32.7467 7.97867 31.8133 8.632 31.048C9.28533 30.2827 10.0507 29.6947 10.928 29.284C11.8053 28.8733 12.776 28.668 13.84 28.668C14.904 28.668 15.8747 28.8733 16.752 29.284C17.6293 29.6947 18.3947 30.2827 19.048 31.048C19.7013 31.8133 20.196 32.7467 20.532 33.848C20.8867 34.9307 21.064 36.144 21.064 37.488C21.064 38.832 20.8867 40.0547 20.532 41.156C20.196 42.2387 19.7013 43.1627 19.048 43.928C18.3947 44.6933 17.6293 45.2813 16.752 45.692C15.8747 46.1027 14.904 46.308 13.84 46.308ZM13.84 44.124C14.232 44.124 14.568 44.0027 14.848 43.76C15.128 43.5173 15.3613 43.144 15.548 42.64C15.7533 42.136 15.9027 41.464 15.996 40.624C16.0893 39.7653 16.136 38.72 16.136 37.488C16.136 36.256 16.0893 35.22 15.996 34.38C15.9027 33.5213 15.7533 32.84 15.548 32.336C15.3613 31.8133 15.128 31.44 14.848 31.216C14.568 30.9733 14.232 30.852 13.84 30.852C13.448 30.852 13.112 30.9733 12.832 31.216C12.552 31.44 12.3093 31.8133 12.104 32.336C11.9173 32.84 11.7773 33.5213 11.684 34.38C11.5907 35.22 11.544 36.256 11.544 37.488C11.544 38.7013 11.5907 39.7373 11.684 40.596C11.7773 41.4547 11.9173 42.136 12.104 42.64C12.3093 43.144 12.552 43.5173 12.832 43.76C13.112 44.0027 13.448 44.124 13.84 44.124Z" fill="white"/>
</g>
<g filter="url(#filter2_d_104_46)">
<path d="M38.2 42.976C38.2 43.2933 38.3307 43.536 38.592 43.704C38.8533 43.872 39.2173 43.9933 39.684 44.068C40.1507 44.124 40.692 44.152 41.308 44.152H42.036V46H29.128V44.152H30.192C30.7707 44.152 31.284 44.124 31.732 44.068C32.18 43.9933 32.5347 43.872 32.796 43.704C33.0573 43.536 33.188 43.2933 33.188 42.976V31.384L33.72 31.16C33.552 31.664 33.3093 32.0933 32.992 32.448C32.6933 32.8027 32.32 33.092 31.872 33.316C31.424 33.54 30.92 33.708 30.36 33.82C29.8187 33.9133 29.2307 33.9507 28.596 33.932V31.104C29.3427 31.104 30.0053 31.0573 30.584 30.964C31.1813 30.8707 31.6947 30.7307 32.124 30.544C32.572 30.3573 32.9547 30.1333 33.272 29.872C33.608 29.6107 33.9067 29.3027 34.168 28.948H38.2V42.976Z" fill="white"/>
</g>
<g filter="url(#filter3_d_104_46)">
<path d="M14.84 26.308C13.776 26.308 12.8053 26.1027 11.928 25.692C11.0507 25.2813 10.2853 24.6933 9.632 23.928C8.97867 23.1627 8.47467 22.2387 8.12 21.156C7.784 20.0547 7.616 18.832 7.616 17.488C7.616 16.144 7.784 14.9307 8.12 13.848C8.47467 12.7467 8.97867 11.8133 9.632 11.048C10.2853 10.2827 11.0507 9.69467 11.928 9.284C12.8053 8.87333 13.776 8.668 14.84 8.668C15.904 8.668 16.8747 8.87333 17.752 9.284C18.6293 9.69467 19.3947 10.2827 20.048 11.048C20.7013 11.8133 21.196 12.7467 21.532 13.848C21.8867 14.9307 22.064 16.144 22.064 17.488C22.064 18.832 21.8867 20.0547 21.532 21.156C21.196 22.2387 20.7013 23.1627 20.048 23.928C19.3947 24.6933 18.6293 25.2813 17.752 25.692C16.8747 26.1027 15.904 26.308 14.84 26.308ZM14.84 24.124C15.232 24.124 15.568 24.0027 15.848 23.76C16.128 23.5173 16.3613 23.144 16.548 22.64C16.7533 22.136 16.9027 21.464 16.996 20.624C17.0893 19.7653 17.136 18.72 17.136 17.488C17.136 16.256 17.0893 15.22 16.996 14.38C16.9027 13.5213 16.7533 12.84 16.548 12.336C16.3613 11.8133 16.128 11.44 15.848 11.216C15.568 10.9733 15.232 10.852 14.84 10.852C14.448 10.852 14.112 10.9733 13.832 11.216C13.552 11.44 13.3093 11.8133 13.104 12.336C12.9173 12.84 12.7773 13.5213 12.684 14.38C12.5907 15.22 12.544 16.256 12.544 17.488C12.544 18.7013 12.5907 19.7373 12.684 20.596C12.7773 21.4547 12.9173 22.136 13.104 22.64C13.3093 23.144 13.552 23.5173 13.832 23.76C14.112 24.0027 14.448 24.124 14.84 24.124Z" fill="white"/>
</g>
<defs>
<filter id="filter0_d_104_46" x="24.596" y="8.948" width="21.44" height="25.052" filterUnits="userSpaceOnUse" color-interpolation-filters="sRGB">
<feFlood flood-opacity="0" result="BackgroundImageFix"/>
<feColorMatrix in="SourceAlpha" type="matrix" values="0 0 0 0 0 0 0 0 0 0 0 0 0 0 0 0 0 0 127 0" result="hardAlpha"/>
<feOffset dy="4"/>
<feGaussianBlur stdDeviation="2"/>
<feComposite in2="hardAlpha" operator="out"/>
<feColorMatrix type="matrix" values="0 0 0 0 0 0 0 0 0 0 0 0 0 0 0 0 0 0 0.25 0"/>
<feBlend mode="normal" in2="BackgroundImageFix" result="effect1_dropShadow_104_46"/>
<feBlend mode="normal" in="SourceGraphic" in2="effect1_dropShadow_104_46" result="shape"/>
</filter>
<filter id="filter1_d_104_46" x="2.616" y="28.668" width="22.448" height="25.64" filterUnits="userSpaceOnUse" color-interpolation-filters="sRGB">
<feFlood flood-opacity="0" result="BackgroundImageFix"/>
<feColorMatrix in="SourceAlpha" type="matrix" values="0 0 0 0 0 0 0 0 0 0 0 0 0 0 0 0 0 0 127 0" result="hardAlpha"/>
<feOffset dy="4"/>
<feGaussianBlur stdDeviation="2"/>
<feComposite in2="hardAlpha" operator="out"/>
<feColorMatrix type="matrix" values="0 0 0 0 0 0 0 0 0 0 0 0 0 0 0 0 0 0 0.25 0"/>
<feBlend mode="normal" in2="BackgroundImageFix" result="effect1_dropShadow_104_46"/>
<feBlend mode="normal" in="SourceGraphic" in2="effect1_dropShadow_104_46" result="shape"/>
</filter>
<filter id="filter2_d_104_46" x="24.596" y="28.948" width="21.44" height="25.052" filterUnits="userSpaceOnUse" color-interpolation-filters="sRGB">
<feFlood flood-opacity="0" result="BackgroundImageFix"/>
<feColorMatrix in="SourceAlpha" type="matrix" values="0 0 0 0 0 0 0 0 0 0 0 0 0 0 0 0 0 0 127 0" result="hardAlpha"/>
<feOffset dy="4"/>
<feGaussianBlur stdDeviation="2"/>
<feComposite in2="hardAlpha" operator="out"/>
<feColorMatrix type="matrix" values="0 0 0 0 0 0 0 0 0 0 0 0 0 0 0 0 0 0 0.25 0"/>
<feBlend mode="normal" in2="BackgroundImageFix" result="effect1_dropShadow_104_46"/>
<feBlend mode="normal" in="SourceGraphic" in2="effect1_dropShadow_104_46" result="shape"/>
</filter>
<filter id="filter3_d_104_46" x="3.616" y="8.668" width="22.448" height="25.64" filterUnits="userSpaceOnUse" color-interpolation-filters="sRGB">
<feFlood flood-opacity="0" result="BackgroundImageFix"/>
<feColorMatrix in="SourceAlpha" type="matrix" values="0 0 0 0 0 0 0 0 0 0 0 0 0 0 0 0 0 0 127 0" result="hardAlpha"/>
<feOffset dy="4"/>
<feGaussianBlur stdDeviation="2"/>
<feComposite in2="hardAlpha" operator="out"/>
<feColorMatrix type="matrix" values="0 0 0 0 0 0 0 0 0 0 0 0 0 0 0 0 0 0 0.25 0"/>
<feBlend mode="normal" in2="BackgroundImageFix" result="effect1_dropShadow_104_46"/>
<feBlend mode="normal" in="SourceGraphic" in2="effect1_dropShadow_104_46" result="shape"/>
</filter>
</defs>
</svg>
