<svg width="964" height="435" viewBox="0 0 964 435" fill="none" xmlns="http://www.w3.org/2000/svg">
<path d="M270.62 55.375V50.125H275.87V55.375H270.62ZM288.365 47.5V44.875H304.115V47.5H288.365ZM308.735 47.5V44.875H324.485V47.5H308.735ZM329.105 47.5V44.875H344.855V47.5H329.105ZM349.475 47.5V44.875H365.225V47.5H349.475ZM369.845 47.5V44.875H385.595V47.5H369.845ZM390.215 47.5V44.875H405.965V47.5H390.215ZM410.585 47.5V44.875H426.335V47.5H410.585ZM430.955 47.5V44.875H446.705V47.5H430.955ZM451.325 47.5V44.875H467.075V47.5H451.325ZM471.695 47.5V44.875H487.445V47.5H471.695ZM494.69 55.375V50.125H499.94V55.375H494.69ZM252.875 86.375V68H258.125V86.375H252.875ZM290.99 86.375V81.125H296.24V86.375H290.99ZM308.735 78.5V75.875H324.485V78.5H308.735ZM329.105 78.5V75.875H344.855V78.5H329.105ZM349.475 78.5V75.875H365.225V78.5H349.475ZM369.845 78.5V75.875H385.595V78.5H369.845ZM390.215 78.5V75.875H405.965V78.5H390.215ZM410.585 78.5V75.875H426.335V78.5H410.585ZM430.955 78.5V75.875H446.705V78.5H430.955ZM453.95 86.375V81.125H459.2V86.375H453.95ZM497.315 86.375V68H502.565V86.375H497.315ZM252.875 118.375V100H258.125V118.375H252.875ZM293.615 118.375V100H298.865V118.375H293.615ZM346.85 121V118.375H365.225V121H346.85ZM367.22 121V118.375H385.595V121H367.22ZM387.59 121V118.375H405.965V121H387.59ZM456.575 118.375V100H461.825V118.375H456.575ZM497.315 118.375V100H502.565V118.375H497.315ZM252.875 149.375V131H258.125V149.375H252.875ZM293.615 149.375V131H298.865V149.375H293.615ZM336.98 149.375V146.75H334.355V144.125H331.73V136.25H334.355V133.625H336.98V131H342.23V133.625H339.605V136.25H336.98V144.125H339.605V146.75H342.23V149.375H336.98ZM346.85 152V149.375H365.225V152H346.85ZM367.22 152V149.375H385.595V152H367.22ZM410.585 149.375V146.75H413.21V144.125H415.835V136.25H413.21V133.625H410.585V131H415.835V133.625H418.46V136.25H421.085V144.125H418.46V146.75H415.835V149.375H410.585ZM456.575 149.375V131H461.825V149.375H456.575ZM497.315 149.375V131H502.565V149.375H497.315ZM252.875 181.375V163H258.125V181.375H252.875ZM293.615 181.375V163H298.865V181.375H293.615ZM357.35 181.375V178.75H354.725V176.125H352.1V168.25H354.725V165.625H357.35V163H362.6V165.625H359.975V168.25H357.35V176.125H359.975V178.75H362.6V181.375H357.35ZM367.22 184V181.375H385.595V184H367.22ZM405.965 163V165.625H403.34V163H405.965ZM400.715 165.625H403.34V168.25H400.715V165.625ZM398.09 168.25H400.715V170.875H398.09V168.25ZM395.465 170.875H398.09V173.5H395.465V170.875ZM392.84 173.5H395.465V176.125H392.84V173.5ZM390.215 176.125H392.84V178.75H390.215V176.125ZM387.59 178.75H390.215V181.375H387.59V178.75ZM456.575 181.375V163H461.825V181.375H456.575ZM497.315 181.375V163H502.565V181.375H497.315ZM252.875 212.375V194H258.125V212.375H252.875ZM293.615 212.375V194H298.865V212.375H293.615ZM357.35 212.375V209.75H354.725V207.125H352.1V199.25H354.725V196.625H357.35V194H362.6V196.625H359.975V199.25H357.35V207.125H359.975V209.75H362.6V212.375H357.35ZM367.22 215V212.375H385.595V215H367.22ZM390.215 212.375V209.75H392.84V207.125H395.465V199.25H392.84V196.625H390.215V194H395.465V196.625H398.09V199.25H400.715V207.125H398.09V209.75H395.465V212.375H390.215ZM456.575 212.375V194H461.825V212.375H456.575ZM497.315 212.375V194H502.565V212.375H497.315ZM252.875 244.375V226H258.125V244.375H252.875ZM290.99 233.875V226H296.24V233.875H290.99ZM308.735 236.5V233.875H324.485V236.5H308.735ZM329.105 236.5V233.875H344.855V236.5H329.105ZM349.475 236.5V233.875H365.225V236.5H349.475ZM369.845 236.5V233.875H385.595V236.5H369.845ZM390.215 236.5V233.875H405.965V236.5H390.215ZM410.585 236.5V233.875H426.335V236.5H410.585ZM430.955 236.5V233.875H446.705V236.5H430.955ZM453.95 233.875V226H459.2V233.875H453.95ZM497.315 244.375V226H502.565V244.375H497.315ZM270.62 264.875V257H275.87V264.875H270.62ZM288.365 267.5V264.875H304.115V267.5H288.365ZM308.735 267.5V264.875H324.485V267.5H308.735ZM329.105 267.5V264.875H344.855V267.5H329.105ZM349.475 267.5V264.875H365.225V267.5H349.475ZM369.845 267.5V264.875H385.595V267.5H369.845ZM390.215 267.5V264.875H405.965V267.5H390.215ZM410.585 267.5V264.875H426.335V267.5H410.585ZM430.955 267.5V264.875H446.705V267.5H430.955ZM451.325 267.5V264.875H467.075V267.5H451.325ZM471.695 267.5V264.875H487.445V267.5H471.695ZM494.69 264.875V257H499.94V264.875H494.69Z" fill="#FFDC83"/>
<path d="M25.62 55.375V50.125H30.87V55.375H25.62ZM43.365 47.5V44.875H59.115V47.5H43.365ZM63.735 47.5V44.875H79.485V47.5H63.735ZM84.105 47.5V44.875H99.855V47.5H84.105ZM104.475 47.5V44.875H120.225V47.5H104.475ZM124.845 47.5V44.875H140.595V47.5H124.845ZM145.215 47.5V44.875H160.965V47.5H145.215ZM165.585 47.5V44.875H181.335V47.5H165.585ZM185.955 47.5V44.875H201.705V47.5H185.955ZM206.325 47.5V44.875H222.075V47.5H206.325ZM226.695 47.5V44.875H242.445V47.5H226.695ZM249.69 55.375V50.125H254.94V55.375H249.69ZM7.875 86.375V68H13.125V86.375H7.875ZM45.99 86.375V81.125H51.24V86.375H45.99ZM63.735 78.5V75.875H79.485V78.5H63.735ZM89.355 83.75V78.5H84.105V75.875H89.355V70.625H94.605V75.875H99.855V78.5H94.605V83.75H89.355ZM104.475 78.5V75.875H120.225V78.5H104.475ZM124.845 78.5V75.875H140.595V78.5H124.845ZM145.215 78.5V75.875H160.965V78.5H145.215ZM170.835 83.75V78.5H165.585V75.875H170.835V70.625H176.085V75.875H181.335V78.5H176.085V83.75H170.835ZM185.955 78.5V75.875H201.705V78.5H185.955ZM208.95 86.375V81.125H214.2V86.375H208.95ZM252.315 86.375V68H257.565V86.375H252.315ZM7.875 118.375V100H13.125V118.375H7.875ZM48.615 118.375V100H53.865V118.375H48.615ZM61.11 121V118.375H79.485V121H61.11ZM89.355 118.375V100H94.605V118.375H89.355ZM101.85 121V118.375H120.225V121H101.85ZM122.22 121V118.375H140.595V121H122.22ZM142.59 121V118.375H160.965V121H142.59ZM170.835 118.375V100H176.085V118.375H170.835ZM183.33 121V118.375H201.705V121H183.33ZM211.575 118.375V100H216.825V118.375H211.575ZM252.315 118.375V100H257.565V118.375H252.315ZM7.875 149.375V131H13.125V149.375H7.875ZM48.615 149.375V131H53.865V149.375H48.615ZM130.095 149.375V131H135.345V149.375H130.095ZM211.575 149.375V131H216.825V149.375H211.575ZM252.315 149.375V131H257.565V149.375H252.315ZM7.875 181.375V163H13.125V181.375H7.875ZM48.615 181.375V163H53.865V181.375H48.615ZM61.11 184V181.375H79.485V184H61.11ZM81.48 184V181.375H99.855V184H81.48ZM101.85 184V181.375H120.225V184H101.85ZM130.095 181.375V163H135.345V181.375H130.095ZM142.59 184V181.375H160.965V184H142.59ZM162.96 184V181.375H181.335V184H162.96ZM183.33 184V181.375H201.705V184H183.33ZM211.575 181.375V163H216.825V181.375H211.575ZM252.315 181.375V163H257.565V181.375H252.315ZM7.875 212.375V194H13.125V212.375H7.875ZM48.615 212.375V194H53.865V212.375H48.615ZM89.355 212.375V194H94.605V212.375H89.355ZM170.835 212.375V194H176.085V212.375H170.835ZM211.575 212.375V194H216.825V212.375H211.575ZM252.315 212.375V194H257.565V212.375H252.315ZM7.875 244.375V226H13.125V244.375H7.875ZM45.99 233.875V226H51.24V233.875H45.99ZM63.735 236.5V233.875H79.485V236.5H63.735ZM89.355 241.75V236.5H84.105V233.875H89.355V228.625H94.605V233.875H99.855V236.5H94.605V241.75H89.355ZM104.475 236.5V233.875H120.225V236.5H104.475ZM124.845 236.5V233.875H140.595V236.5H124.845ZM145.215 236.5V233.875H160.965V236.5H145.215ZM170.835 241.75V236.5H165.585V233.875H170.835V228.625H176.085V233.875H181.335V236.5H176.085V241.75H170.835ZM185.955 236.5V233.875H201.705V236.5H185.955ZM208.95 233.875V226H214.2V233.875H208.95ZM252.315 244.375V226H257.565V244.375H252.315ZM25.62 264.875V257H30.87V264.875H25.62ZM43.365 267.5V264.875H59.115V267.5H43.365ZM63.735 267.5V264.875H79.485V267.5H63.735ZM84.105 267.5V264.875H99.855V267.5H84.105ZM104.475 267.5V264.875H120.225V267.5H104.475ZM124.845 267.5V264.875H140.595V267.5H124.845ZM145.215 267.5V264.875H160.965V267.5H145.215ZM165.585 267.5V264.875H181.335V267.5H165.585ZM185.955 267.5V264.875H201.705V267.5H185.955ZM206.325 267.5V264.875H222.075V267.5H206.325ZM226.695 267.5V264.875H242.445V267.5H226.695ZM249.69 264.875V257H254.94V264.875H249.69Z" fill="#FFDC83"/>
<path d="M514.62 55.375V50.125H519.87V55.375H514.62ZM532.365 47.5V44.875H548.115V47.5H532.365ZM552.735 47.5V44.875H568.485V47.5H552.735ZM573.105 47.5V44.875H588.855V47.5H573.105ZM593.475 47.5V44.875H609.225V47.5H593.475ZM613.845 47.5V44.875H629.595V47.5H613.845ZM634.215 47.5V44.875H649.965V47.5H634.215ZM654.585 47.5V44.875H670.335V47.5H654.585ZM674.955 47.5V44.875H690.705V47.5H674.955ZM695.325 47.5V44.875H711.075V47.5H695.325ZM715.695 47.5V44.875H731.445V47.5H715.695ZM738.69 55.375V50.125H743.94V55.375H738.69ZM496.875 86.375V68H502.125V86.375H496.875ZM534.99 86.375V81.125H540.24V86.375H534.99ZM552.735 78.5V75.875H568.485V78.5H552.735ZM578.355 83.75V78.5H573.105V75.875H578.355V70.625H583.605V75.875H588.855V78.5H583.605V83.75H578.355ZM593.475 78.5V75.875H609.225V78.5H593.475ZM613.845 78.5V75.875H629.595V78.5H613.845ZM634.215 78.5V75.875H649.965V78.5H634.215ZM659.835 83.75V78.5H654.585V75.875H659.835V70.625H665.085V75.875H670.335V78.5H665.085V83.75H659.835ZM674.955 78.5V75.875H690.705V78.5H674.955ZM697.95 86.375V81.125H703.2V86.375H697.95ZM741.315 86.375V68H746.565V86.375H741.315ZM496.875 118.375V100H502.125V118.375H496.875ZM537.615 118.375V100H542.865V118.375H537.615ZM550.11 121V118.375H568.485V121H550.11ZM578.355 118.375V100H583.605V118.375H578.355ZM590.85 121V118.375H609.225V121H590.85ZM611.22 121V118.375H629.595V121H611.22ZM631.59 121V118.375H649.965V121H631.59ZM659.835 118.375V100H665.085V118.375H659.835ZM672.33 121V118.375H690.705V121H672.33ZM700.575 118.375V100H705.825V118.375H700.575ZM741.315 118.375V100H746.565V118.375H741.315ZM496.875 149.375V131H502.125V149.375H496.875ZM537.615 149.375V131H542.865V149.375H537.615ZM619.095 149.375V131H624.345V149.375H619.095ZM700.575 149.375V131H705.825V149.375H700.575ZM741.315 149.375V131H746.565V149.375H741.315ZM496.875 181.375V163H502.125V181.375H496.875ZM537.615 181.375V163H542.865V181.375H537.615ZM550.11 184V181.375H568.485V184H550.11ZM570.48 184V181.375H588.855V184H570.48ZM590.85 184V181.375H609.225V184H590.85ZM619.095 181.375V163H624.345V181.375H619.095ZM631.59 184V181.375H649.965V184H631.59ZM651.96 184V181.375H670.335V184H651.96ZM672.33 184V181.375H690.705V184H672.33ZM700.575 181.375V163H705.825V181.375H700.575ZM741.315 181.375V163H746.565V181.375H741.315ZM496.875 212.375V194H502.125V212.375H496.875ZM537.615 212.375V194H542.865V212.375H537.615ZM578.355 212.375V194H583.605V212.375H578.355ZM659.835 212.375V194H665.085V212.375H659.835ZM700.575 212.375V194H705.825V212.375H700.575ZM741.315 212.375V194H746.565V212.375H741.315ZM496.875 244.375V226H502.125V244.375H496.875ZM534.99 233.875V226H540.24V233.875H534.99ZM552.735 236.5V233.875H568.485V236.5H552.735ZM578.355 241.75V236.5H573.105V233.875H578.355V228.625H583.605V233.875H588.855V236.5H583.605V241.75H578.355ZM593.475 236.5V233.875H609.225V236.5H593.475ZM613.845 236.5V233.875H629.595V236.5H613.845ZM634.215 236.5V233.875H649.965V236.5H634.215ZM659.835 241.75V236.5H654.585V233.875H659.835V228.625H665.085V233.875H670.335V236.5H665.085V241.75H659.835ZM674.955 236.5V233.875H690.705V236.5H674.955ZM697.95 233.875V226H703.2V233.875H697.95ZM741.315 244.375V226H746.565V244.375H741.315ZM514.62 264.875V257H519.87V264.875H514.62ZM532.365 267.5V264.875H548.115V267.5H532.365ZM552.735 267.5V264.875H568.485V267.5H552.735ZM573.105 267.5V264.875H588.855V267.5H573.105ZM593.475 267.5V264.875H609.225V267.5H593.475ZM613.845 267.5V264.875H629.595V267.5H613.845ZM634.215 267.5V264.875H649.965V267.5H634.215ZM654.585 267.5V264.875H670.335V267.5H654.585ZM674.955 267.5V264.875H690.705V267.5H674.955ZM695.325 267.5V264.875H711.075V267.5H695.325ZM715.695 267.5V264.875H731.445V267.5H715.695ZM738.69 264.875V257H743.94V264.875H738.69Z" fill="#FFDC83"/>
<path d="M631.47 309V306.375H649.845V309H631.47ZM651.84 309V306.375H670.215V309H651.84ZM672.21 309V306.375H690.585V309H672.21ZM692.58 309V306.375H710.955V309H692.58ZM712.95 309V306.375H731.325V309H712.95ZM733.32 309V306.375H751.695V309H733.32ZM753.69 309V306.375H772.065V309H753.69ZM774.06 309V306.375H792.435V309H774.06ZM794.43 309V306.375H812.805V309H794.43ZM814.8 309V306.375H833.175V309H814.8ZM835.17 309V306.375H853.545V309H835.17ZM855.54 309V306.375H873.915V309H855.54ZM875.91 309V306.375H894.285V309H875.91ZM104.475 319V321.625H101.85V319H104.475ZM107.1 321.625V324.25H104.475V321.625H107.1ZM109.725 324.25V326.875H107.1V324.25H109.725ZM112.35 326.875V329.5H109.725V326.875H112.35ZM114.975 329.5V332.125H112.35V329.5H114.975ZM117.6 332.125V334.75H114.975V332.125H117.6ZM120.225 334.75V337.375H117.6V334.75H120.225ZM130.095 337.375V319H135.345V337.375H130.095ZM160.965 319V321.625H158.34V319H160.965ZM155.715 321.625H158.34V324.25H155.715V321.625ZM153.09 324.25H155.715V326.875H153.09V324.25ZM150.465 326.875H153.09V329.5H150.465V326.875ZM147.84 329.5H150.465V332.125H147.84V329.5ZM145.215 332.125H147.84V334.75H145.215V332.125ZM142.59 334.75H145.215V337.375H142.59V334.75ZM639.345 337.375V319H644.595V337.375H639.345ZM883.785 337.375V319H889.035V337.375H883.785ZM104.475 351V353.625H101.85V351H104.475ZM107.1 353.625V356.25H104.475V353.625H107.1ZM109.725 356.25V358.875H107.1V356.25H109.725ZM112.35 358.875V361.5H109.725V358.875H112.35ZM114.975 361.5V364.125H112.35V361.5H114.975ZM117.6 364.125V366.75H114.975V364.125H117.6ZM120.225 366.75V369.375H117.6V366.75H120.225ZM130.095 369.375V351H135.345V369.375H130.095ZM160.965 351V353.625H158.34V351H160.965ZM155.715 353.625H158.34V356.25H155.715V353.625ZM153.09 356.25H155.715V358.875H153.09V356.25ZM150.465 358.875H153.09V361.5H150.465V358.875ZM147.84 361.5H150.465V364.125H147.84V361.5ZM145.215 364.125H147.84V366.75H145.215V364.125ZM142.59 366.75H145.215V369.375H142.59V366.75ZM471.135 351V353.625H468.51V351H471.135ZM473.76 353.625V356.25H471.135V353.625H473.76ZM476.385 356.25V358.875H473.76V356.25H476.385ZM479.01 358.875V361.5H476.385V358.875H479.01ZM481.635 361.5V364.125H479.01V361.5H481.635ZM484.26 364.125V366.75H481.635V364.125H484.26ZM486.885 366.75V369.375H484.26V366.75H486.885ZM496.755 369.375V351H502.005V369.375H496.755ZM527.625 351V353.625H525V351H527.625ZM522.375 353.625H525V356.25H522.375V353.625ZM519.75 356.25H522.375V358.875H519.75V356.25ZM517.125 358.875H519.75V361.5H517.125V358.875ZM514.5 361.5H517.125V364.125H514.5V361.5ZM511.875 364.125H514.5V366.75H511.875V364.125ZM509.25 366.75H511.875V369.375H509.25V366.75ZM639.345 369.375V351H644.595V369.375H639.345ZM651.84 372V369.375H670.215V372H651.84ZM672.21 372V369.375H690.585V372H672.21ZM692.58 372V369.375H710.955V372H692.58ZM712.95 372V369.375H731.325V372H712.95ZM733.32 372V369.375H751.695V372H733.32ZM753.69 372V369.375H772.065V372H753.69ZM774.06 372V369.375H792.435V372H774.06ZM794.43 372V369.375H812.805V372H794.43ZM814.8 372V369.375H833.175V372H814.8ZM835.17 372V369.375H853.545V372H835.17ZM855.54 372V369.375H873.915V372H855.54ZM883.785 369.375V351H889.035V369.375H883.785ZM130.095 400.375V382H135.345V400.375H130.095ZM471.135 382V384.625H468.51V382H471.135ZM473.76 384.625V387.25H471.135V384.625H473.76ZM476.385 387.25V389.875H473.76V387.25H476.385ZM479.01 389.875V392.5H476.385V389.875H479.01ZM481.635 392.5V395.125H479.01V392.5H481.635ZM484.26 395.125V397.75H481.635V395.125H484.26ZM486.885 397.75V400.375H484.26V397.75H486.885ZM496.755 400.375V382H502.005V400.375H496.755ZM527.625 382V384.625H525V382H527.625ZM522.375 384.625H525V387.25H522.375V384.625ZM519.75 387.25H522.375V389.875H519.75V387.25ZM517.125 389.875H519.75V392.5H517.125V389.875ZM514.5 392.5H517.125V395.125H514.5V392.5ZM511.875 395.125H514.5V397.75H511.875V395.125ZM509.25 397.75H511.875V400.375H509.25V397.75ZM680.085 400.375V382H685.335V400.375H680.085ZM843.045 400.375V382H848.295V400.375H843.045ZM0 435V432.375H18.375V435H0ZM22.995 414V416.625H20.37V414H22.995ZM25.62 416.625V419.25H22.995V416.625H25.62ZM28.245 419.25V421.875H25.62V419.25H28.245ZM30.87 421.875V424.5H28.245V421.875H30.87ZM33.495 424.5V427.125H30.87V424.5H33.495ZM36.12 427.125V429.75H33.495V427.125H36.12ZM38.745 429.75V432.375H36.12V429.75H38.745ZM48.615 432.375V414H53.865V432.375H48.615ZM79.485 414V416.625H76.86V414H79.485ZM74.235 416.625H76.86V419.25H74.235V416.625ZM71.61 419.25H74.235V421.875H71.61V419.25ZM68.985 421.875H71.61V424.5H68.985V421.875ZM66.36 424.5H68.985V427.125H66.36V424.5ZM63.735 427.125H66.36V429.75H63.735V427.125ZM61.11 429.75H63.735V432.375H61.11V429.75ZM81.48 435V432.375H99.855V435H81.48ZM101.85 435V432.375H120.225V435H101.85ZM130.095 432.375V414H135.345V432.375H130.095ZM142.59 435V432.375H160.965V435H142.59ZM165.585 414V416.625H162.96V414H165.585ZM168.21 416.625V419.25H165.585V416.625H168.21ZM170.835 419.25V421.875H168.21V419.25H170.835ZM173.46 421.875V424.5H170.835V421.875H173.46ZM176.085 424.5V427.125H173.46V424.5H176.085ZM178.71 427.125V429.75H176.085V427.125H178.71ZM181.335 429.75V432.375H178.71V429.75H181.335ZM191.205 432.375V414H196.455V432.375H191.205ZM222.075 414V416.625H219.45V414H222.075ZM216.825 416.625H219.45V419.25H216.825V416.625ZM214.2 419.25H216.825V421.875H214.2V419.25ZM211.575 421.875H214.2V424.5H211.575V421.875ZM208.95 424.5H211.575V427.125H208.95V424.5ZM206.325 427.125H208.95V429.75H206.325V427.125ZM203.7 429.75H206.325V432.375H203.7V429.75ZM224.07 435V432.375H242.445V435H224.07ZM244.44 435V432.375H262.815V435H244.44ZM264.81 435V432.375H283.185V435H264.81ZM285.18 435V432.375H303.555V435H285.18ZM308.175 414V416.625H305.55V414H308.175ZM310.8 416.625V419.25H308.175V416.625H310.8ZM313.425 419.25V421.875H310.8V419.25H313.425ZM316.05 421.875V424.5H313.425V421.875H316.05ZM318.675 424.5V427.125H316.05V424.5H318.675ZM321.3 427.125V429.75H318.675V427.125H321.3ZM323.925 429.75V432.375H321.3V429.75H323.925ZM333.795 432.375V414H339.045V432.375H333.795ZM364.665 414V416.625H362.04V414H364.665ZM359.415 416.625H362.04V419.25H359.415V416.625ZM356.79 419.25H359.415V421.875H356.79V419.25ZM354.165 421.875H356.79V424.5H354.165V421.875ZM351.54 424.5H354.165V427.125H351.54V424.5ZM348.915 427.125H351.54V429.75H348.915V427.125ZM346.29 429.75H348.915V432.375H346.29V429.75ZM366.66 435V432.375H385.035V435H366.66ZM389.655 414V416.625H387.03V414H389.655ZM392.28 416.625V419.25H389.655V416.625H392.28ZM394.905 419.25V421.875H392.28V419.25H394.905ZM397.53 421.875V424.5H394.905V421.875H397.53ZM400.155 424.5V427.125H397.53V424.5H400.155ZM402.78 427.125V429.75H400.155V427.125H402.78ZM405.405 429.75V432.375H402.78V429.75H405.405ZM415.275 432.375V414H420.525V432.375H415.275ZM446.145 414V416.625H443.52V414H446.145ZM440.895 416.625H443.52V419.25H440.895V416.625ZM438.27 419.25H440.895V421.875H438.27V419.25ZM435.645 421.875H438.27V424.5H435.645V421.875ZM433.02 424.5H435.645V427.125H433.02V424.5ZM430.395 427.125H433.02V429.75H430.395V427.125ZM427.77 429.75H430.395V432.375H427.77V429.75ZM448.14 435V432.375H466.515V435H448.14ZM468.51 435V432.375H486.885V435H468.51ZM496.755 432.375V414H502.005V432.375H496.755ZM509.25 435V432.375H527.625V435H509.25ZM529.62 435V432.375H547.995V435H529.62ZM549.99 435V432.375H568.365V435H549.99ZM572.985 414V416.625H570.36V414H572.985ZM575.61 416.625V419.25H572.985V416.625H575.61ZM578.235 419.25V421.875H575.61V419.25H578.235ZM580.86 421.875V424.5H578.235V421.875H580.86ZM583.485 424.5V427.125H580.86V424.5H583.485ZM586.11 427.125V429.75H583.485V427.125H586.11ZM588.735 429.75V432.375H586.11V429.75H588.735ZM598.605 432.375V414H603.855V432.375H598.605ZM629.475 414V416.625H626.85V414H629.475ZM624.225 416.625H626.85V419.25H624.225V416.625ZM621.6 419.25H624.225V421.875H621.6V419.25ZM618.975 421.875H621.6V424.5H618.975V421.875ZM616.35 424.5H618.975V427.125H616.35V424.5ZM613.725 427.125H616.35V429.75H613.725V427.125ZM611.1 429.75H613.725V432.375H611.1V429.75ZM631.47 435V432.375H649.845V435H631.47ZM651.84 435V432.375H670.215V435H651.84ZM680.085 432.375V414H685.335V432.375H680.085ZM692.58 435V432.375H710.955V435H692.58ZM712.95 435V432.375H731.325V435H712.95ZM733.32 435V432.375H751.695V435H733.32ZM753.69 435V432.375H772.065V435H753.69ZM774.06 435V432.375H792.435V435H774.06ZM794.43 435V432.375H812.805V435H794.43ZM814.8 435V432.375H833.175V435H814.8ZM843.045 432.375V414H848.295V432.375H843.045Z" fill="#FFDC83"/>
</svg>
