<svg width="831" height="345" viewBox="0 0 831 345" fill="none" xmlns="http://www.w3.org/2000/svg">
<path d="M165 23.5V18.5H170V23.5H165ZM182.5 16V13.5H197.5V16H182.5ZM202.5 16V13.5H217.5V16H202.5ZM225 23.5V18.5H230V23.5H225ZM465 23.5V18.5H470V23.5H465ZM482.5 16V13.5H497.5V16H482.5ZM502.5 16V13.5H517.5V16H502.5ZM522.5 16V13.5H537.5V16H522.5ZM545 23.5V18.5H550V23.5H545ZM85 55.5V50.5H90V55.5H85ZM102.5 48V45.5H117.5V48H102.5ZM122.5 48V45.5H137.5V48H122.5ZM142.5 48V45.5H157.5V48H142.5ZM167.5 55.5V38H172.5V55.5H167.5ZM182.5 48V45.5H197.5V48H182.5ZM202.5 48V45.5H217.5V48H202.5ZM227.5 55.5V38H232.5V55.5H227.5ZM305 55.5V50.5H310V55.5H305ZM322.5 48V45.5H337.5V48H322.5ZM345 55.5V50.5H350V55.5H345ZM467.5 55.5V38H472.5V55.5H467.5ZM500 55.5V38H515V40.5H517.5V48H512.5V50.5H515V53H517.5V55.5H510V53H507.5V50.5H505V55.5H500ZM505 48H510V45.5H512.5V40.5H505V48ZM547.5 55.5V38H552.5V55.5H547.5ZM605 55.5V50.5H610V55.5H605ZM622.5 48V45.5H637.5V48H622.5ZM642.5 48V45.5H657.5V48H642.5ZM662.5 48V45.5H677.5V48H662.5ZM685 55.5V50.5H690V55.5H685ZM25 87.5V82.5H30V87.5H25ZM42.5 80V77.5H57.5V80H42.5ZM62.5 80V77.5H77.5V80H62.5ZM87.5 87.5V70H92.5V87.5H87.5ZM100 77.5V75H117.5V77.5H100ZM100 82.5V80H117.5V82.5H100ZM120 77.5V75H137.5V77.5H120ZM120 82.5V80H137.5V82.5H120ZM140 77.5V75H157.5V77.5H140ZM140 82.5V80H157.5V82.5H140ZM167.5 87.5V70H172.5V87.5H167.5ZM180 87.5V75H182.5V72.5H185V70H192.5V72.5H195V75H197.5V87.5H192.5V82.5H185V87.5H180ZM185 80H192.5V75H190V72.5H187.5V75H185V80ZM200 87.5V70H205V72.5H207.5V75H210V77.5H212.5V70H217.5V87.5H212.5V82.5H210V80H207.5V77.5H205V87.5H200ZM227.5 87.5V70H232.5V87.5H227.5ZM242.5 80V77.5H257.5V80H242.5ZM262.5 80V77.5H277.5V80H262.5ZM282.5 80V77.5H297.5V80H282.5ZM307.5 87.5V70H312.5V87.5H307.5ZM320 90V87.5H337.5V90H320ZM347.5 87.5V70H352.5V87.5H347.5ZM362.5 80V77.5H377.5V80H362.5ZM382.5 80V77.5H397.5V80H382.5ZM405 87.5V82.5H410V87.5H405ZM420 90V87.5H437.5V90H420ZM440 90V87.5H457.5V90H440ZM467.5 87.5V70H472.5V87.5H467.5ZM500 87.5V70H517.5V72.5H505V77.5H515V80H505V85H517.5V87.5H500ZM547.5 87.5V70H552.5V87.5H547.5ZM562.5 80V77.5H577.5V80H562.5ZM582.5 80V77.5H597.5V80H582.5ZM607.5 87.5V70H612.5V87.5H607.5ZM625 77.5V72.5H630V77.5H625ZM625 85V80H630V85H625ZM645 77.5V72.5H650V77.5H645ZM645 85V80H650V85H645ZM665 77.5V72.5H670V77.5H665ZM665 85V80H670V85H665ZM687.5 87.5V70H692.5V87.5H687.5ZM27.5 119.5V102H32.5V119.5H27.5ZM45 104.5H42.5V102H47.5V107H45V104.5ZM57.5 102V104.5H55V102H57.5ZM45 109.5H40V104.5H42.5V107H45V109.5ZM52.5 104.5H55V107H52.5V104.5ZM50 107H52.5V109.5H50V107ZM47.5 109.5H50V112H47.5V109.5ZM45 112H47.5V114.5H45V112ZM52.5 112H57.5V117H55V114.5H52.5V112ZM42.5 114.5H45V117H42.5V114.5ZM52.5 117H55V119.5H50V114.5H52.5V117ZM40 117H42.5V119.5H40V117ZM65 104.5H62.5V102H67.5V107H65V104.5ZM77.5 102V104.5H75V102H77.5ZM65 109.5H60V104.5H62.5V107H65V109.5ZM72.5 104.5H75V107H72.5V104.5ZM70 107H72.5V109.5H70V107ZM67.5 109.5H70V112H67.5V109.5ZM65 112H67.5V114.5H65V112ZM72.5 112H77.5V117H75V114.5H72.5V112ZM62.5 114.5H65V117H62.5V114.5ZM72.5 117H75V119.5H70V114.5H72.5V117ZM60 117H62.5V119.5H60V117ZM87.5 119.5V102H92.5V119.5H87.5ZM107.5 119.5V117H105V114.5H102.5V112H100V102H105V109.5H107.5V112H110V109.5H112.5V102H117.5V112H115V114.5H112.5V117H110V119.5H107.5ZM122.5 119.5V117H120V102H125V117H132.5V102H137.5V117H135V119.5H122.5ZM140 119.5V102H157.5V104.5H145V109.5H155V112H145V117H157.5V119.5H140ZM167.5 119.5V102H172.5V119.5H167.5ZM185 119.5V117H182.5V114.5H180V107H182.5V104.5H185V102H197.5V104.5H187.5V107H185V114.5H187.5V117H192.5V112H190V109.5H197.5V119.5H185ZM202.5 119.5V117H200V102H205V117H212.5V102H217.5V117H215V119.5H202.5ZM227.5 119.5V102H232.5V119.5H227.5ZM240 109.5V107H257.5V109.5H240ZM240 114.5V112H257.5V114.5H240ZM260 109.5V107H277.5V109.5H260ZM260 114.5V112H277.5V114.5H260ZM280 109.5V107H297.5V109.5H280ZM280 114.5V112H297.5V114.5H280ZM307.5 119.5V102H312.5V119.5H307.5ZM347.5 119.5V102H352.5V119.5H347.5ZM372.5 112H375V114.5H367.5V112H365V109.5H362.5V107H370V109.5H372.5V112ZM360 109.5H362.5V112H360V109.5ZM377.5 109.5V112H375V109.5H377.5ZM392.5 112H395V114.5H387.5V112H385V109.5H382.5V107H390V109.5H392.5V112ZM380 109.5H382.5V112H380V109.5ZM397.5 109.5V112H395V109.5H397.5ZM407.5 119.5V102H412.5V119.5H407.5ZM425 104.5H422.5V102H427.5V107H425V104.5ZM437.5 102V104.5H435V102H437.5ZM425 109.5H420V104.5H422.5V107H425V109.5ZM432.5 104.5H435V107H432.5V104.5ZM430 107H432.5V109.5H430V107ZM427.5 109.5H430V112H427.5V109.5ZM425 112H427.5V114.5H425V112ZM432.5 112H437.5V117H435V114.5H432.5V112ZM422.5 114.5H425V117H422.5V114.5ZM432.5 117H435V119.5H430V114.5H432.5V117ZM420 117H422.5V119.5H420V117ZM445 104.5H442.5V102H447.5V107H445V104.5ZM457.5 102V104.5H455V102H457.5ZM445 109.5H440V104.5H442.5V107H445V109.5ZM452.5 104.5H455V107H452.5V104.5ZM450 107H452.5V109.5H450V107ZM447.5 109.5H450V112H447.5V109.5ZM445 112H447.5V114.5H445V112ZM452.5 112H457.5V117H455V114.5H452.5V112ZM442.5 114.5H445V117H442.5V114.5ZM452.5 117H455V119.5H450V114.5H452.5V117ZM440 117H442.5V119.5H440V117ZM467.5 119.5V102H472.5V119.5H467.5ZM500 119.5V107H502.5V104.5H505V102H512.5V104.5H515V107H517.5V119.5H512.5V114.5H505V119.5H500ZM505 112H512.5V107H510V104.5H507.5V107H505V112ZM547.5 119.5V102H552.5V119.5H547.5ZM562.5 112V109.5H577.5V112H562.5ZM582.5 112V109.5H597.5V112H582.5ZM607.5 119.5V102H612.5V119.5H607.5ZM687.5 119.5V102H692.5V119.5H687.5ZM700 122V119.5H717.5V122H700ZM725 119.5V114.5H730V119.5H725ZM27.5 151.5V134H32.5V151.5H27.5ZM87.5 151.5V134H92.5V151.5H87.5ZM167.5 151.5V134H172.5V151.5H167.5ZM182.5 151.5V134H187.5V149H197.5V151.5H182.5ZM200 151.5V139H202.5V136.5H205V134H212.5V136.5H215V139H217.5V151.5H212.5V146.5H205V151.5H200ZM205 144H212.5V139H210V136.5H207.5V139H205V144ZM227.5 151.5V134H232.5V151.5H227.5ZM240 141.5V139H257.5V141.5H240ZM240 146.5V144H257.5V146.5H240ZM260 141.5V139H277.5V141.5H260ZM260 146.5V144H277.5V146.5H260ZM280 141.5V139H297.5V141.5H280ZM280 146.5V144H297.5V146.5H280ZM307.5 151.5V134H312.5V151.5H307.5ZM347.5 151.5V134H352.5V151.5H347.5ZM360 141.5V139H377.5V141.5H360ZM360 146.5V144H377.5V146.5H360ZM380 141.5V139H397.5V141.5H380ZM380 146.5V144H397.5V146.5H380ZM407.5 151.5V134H412.5V151.5H407.5ZM467.5 151.5V134H472.5V151.5H467.5ZM505 151.5V149H502.5V146.5H500V139H502.5V136.5H505V134H515V136.5H517.5V139H512.5V136.5H507.5V139H505V146.5H507.5V149H512.5V146.5H517.5V149H515V151.5H505ZM547.5 151.5V134H552.5V151.5H547.5ZM607.5 151.5V134H612.5V151.5H607.5ZM625 141.5V136.5H630V141.5H625ZM625 149V144H630V149H625ZM645 141.5V136.5H650V141.5H645ZM645 149V144H650V149H645ZM665 141.5V136.5H670V141.5H665ZM665 149V144H670V149H665ZM687.5 151.5V134H692.5V151.5H687.5ZM700 141.5V139H717.5V141.5H700ZM700 146.5V144H717.5V146.5H700ZM727.5 151.5V134H732.5V151.5H727.5ZM27.5 183.5V166H32.5V183.5H27.5ZM87.5 183.5V166H92.5V183.5H87.5ZM167.5 183.5V166H172.5V183.5H167.5ZM180 183.5V166H195V168.5H197.5V176H192.5V178.5H195V181H197.5V183.5H190V181H187.5V178.5H185V183.5H180ZM185 176H190V173.5H192.5V168.5H185V176ZM227.5 183.5V166H232.5V183.5H227.5ZM307.5 183.5V166H312.5V183.5H307.5ZM320 186V183.5H337.5V186H320ZM347.5 183.5V166H352.5V183.5H347.5ZM360 186V183.5H377.5V186H360ZM380 186V183.5H397.5V186H380ZM407.5 183.5V166H412.5V183.5H407.5ZM467.5 183.5V166H472.5V183.5H467.5ZM507.5 183.5V168.5H502.5V166H517.5V168.5H512.5V183.5H507.5ZM547.5 183.5V166H552.5V183.5H547.5ZM560 186V183.5H577.5V186H560ZM580 186V183.5H597.5V186H580ZM607.5 183.5V166H612.5V183.5H607.5ZM687.5 183.5V166H692.5V183.5H687.5ZM727.5 183.5V166H732.5V183.5H727.5ZM27.5 215.5V198H32.5V215.5H27.5ZM52.5 208H55V210.5H47.5V208H45V205.5H42.5V203H50V205.5H52.5V208ZM40 205.5H42.5V208H40V205.5ZM57.5 205.5V208H55V205.5H57.5ZM72.5 208H75V210.5H67.5V208H65V205.5H62.5V203H70V205.5H72.5V208ZM60 205.5H62.5V208H60V205.5ZM77.5 205.5V208H75V205.5H77.5ZM87.5 215.5V198H92.5V215.5H87.5ZM100 205.5V203H117.5V205.5H100ZM100 210.5V208H117.5V210.5H100ZM120 205.5V203H137.5V205.5H120ZM120 210.5V208H137.5V210.5H120ZM140 205.5V203H157.5V205.5H140ZM140 210.5V208H157.5V210.5H140ZM167.5 215.5V198H172.5V215.5H167.5ZM182.5 208V205.5H197.5V208H182.5ZM202.5 208V205.5H217.5V208H202.5ZM227.5 215.5V198H232.5V215.5H227.5ZM240 205.5V203H257.5V205.5H240ZM240 210.5V208H257.5V210.5H240ZM260 205.5V203H277.5V205.5H260ZM260 210.5V208H277.5V210.5H260ZM280 205.5V203H297.5V205.5H280ZM280 210.5V208H297.5V210.5H280ZM307.5 215.5V198H312.5V215.5H307.5ZM332.5 208H335V210.5H327.5V208H325V205.5H322.5V203H330V205.5H332.5V208ZM320 205.5H322.5V208H320V205.5ZM337.5 205.5V208H335V205.5H337.5ZM347.5 215.5V198H352.5V215.5H347.5ZM372.5 208H375V210.5H367.5V208H365V205.5H362.5V203H370V205.5H372.5V208ZM360 205.5H362.5V208H360V205.5ZM377.5 205.5V208H375V205.5H377.5ZM392.5 208H395V210.5H387.5V208H385V205.5H382.5V203H390V205.5H392.5V208ZM380 205.5H382.5V208H380V205.5ZM397.5 205.5V208H395V205.5H397.5ZM407.5 215.5V198H412.5V215.5H407.5ZM425 200.5H422.5V198H427.5V203H425V200.5ZM437.5 198V200.5H435V198H437.5ZM425 205.5H420V200.5H422.5V203H425V205.5ZM432.5 200.5H435V203H432.5V200.5ZM430 203H432.5V205.5H430V203ZM427.5 205.5H430V208H427.5V205.5ZM425 208H427.5V210.5H425V208ZM432.5 208H437.5V213H435V210.5H432.5V208ZM422.5 210.5H425V213H422.5V210.5ZM432.5 213H435V215.5H430V210.5H432.5V213ZM420 213H422.5V215.5H420V213ZM445 200.5H442.5V198H447.5V203H445V200.5ZM457.5 198V200.5H455V198H457.5ZM445 205.5H440V200.5H442.5V203H445V205.5ZM452.5 200.5H455V203H452.5V200.5ZM450 203H452.5V205.5H450V203ZM447.5 205.5H450V208H447.5V205.5ZM445 208H447.5V210.5H445V208ZM452.5 208H457.5V213H455V210.5H452.5V208ZM442.5 210.5H445V213H442.5V210.5ZM452.5 213H455V215.5H450V210.5H452.5V213ZM440 213H442.5V215.5H440V213ZM467.5 215.5V198H472.5V215.5H467.5ZM492.5 208H495V210.5H487.5V208H485V205.5H482.5V203H490V205.5H492.5V208ZM480 205.5H482.5V208H480V205.5ZM497.5 205.5V208H495V205.5H497.5ZM512.5 208H515V210.5H507.5V208H505V205.5H502.5V203H510V205.5H512.5V208ZM500 205.5H502.5V208H500V205.5ZM517.5 205.5V208H515V205.5H517.5ZM532.5 208H535V210.5H527.5V208H525V205.5H522.5V203H530V205.5H532.5V208ZM520 205.5H522.5V208H520V205.5ZM537.5 205.5V208H535V205.5H537.5ZM547.5 215.5V198H552.5V215.5H547.5ZM562.5 208V205.5H577.5V208H562.5ZM582.5 208V205.5H597.5V208H582.5ZM607.5 215.5V198H612.5V215.5H607.5ZM625 205.5V200.5H630V205.5H625ZM625 213V208H630V213H625ZM645 205.5V200.5H650V205.5H645ZM645 213V208H650V213H645ZM665 205.5V200.5H670V205.5H665ZM665 213V208H670V213H665ZM687.5 215.5V198H692.5V215.5H687.5ZM700 205.5V203H717.5V205.5H700ZM700 210.5V208H717.5V210.5H700ZM727.5 215.5V198H732.5V215.5H727.5ZM22.5 235V232.5H25V230H32.5V232.5H35V235H30V232.5H27.5V235H22.5ZM42.5 240V237.5H57.5V240H42.5ZM62.5 240V237.5H77.5V240H62.5ZM82.5 235V232.5H85V230H92.5V232.5H95V235H90V232.5H87.5V235H82.5ZM102.5 240V237.5H117.5V240H102.5ZM122.5 240V237.5H137.5V240H122.5ZM142.5 240V237.5H157.5V240H142.5ZM165 237.5V230H170V237.5H165ZM182.5 240V237.5H197.5V240H182.5ZM202.5 240V237.5H217.5V240H202.5ZM222.5 235V232.5H225V230H232.5V232.5H235V235H230V232.5H227.5V235H222.5ZM242.5 240V237.5H257.5V240H242.5ZM262.5 240V237.5H277.5V240H262.5ZM282.5 240V237.5H297.5V240H282.5ZM302.5 235V232.5H305V230H312.5V232.5H315V235H310V232.5H307.5V235H302.5ZM322.5 240V237.5H337.5V240H322.5ZM342.5 235V232.5H345V230H352.5V232.5H355V235H350V232.5H347.5V235H342.5ZM362.5 240V237.5H377.5V240H362.5ZM382.5 240V237.5H397.5V240H382.5ZM402.5 235V232.5H405V230H412.5V232.5H415V235H410V232.5H407.5V235H402.5ZM422.5 240V237.5H437.5V240H422.5ZM442.5 240V237.5H457.5V240H442.5ZM462.5 235V232.5H465V230H472.5V232.5H475V235H470V232.5H467.5V235H462.5ZM482.5 240V237.5H497.5V240H482.5ZM502.5 240V237.5H517.5V240H502.5ZM522.5 240V237.5H537.5V240H522.5ZM545 237.5V230H550V237.5H545ZM562.5 240V237.5H577.5V240H562.5ZM582.5 240V237.5H597.5V240H582.5ZM602.5 235V232.5H605V230H612.5V232.5H615V235H610V232.5H607.5V235H602.5ZM622.5 240V237.5H637.5V240H622.5ZM642.5 240V237.5H657.5V240H642.5ZM662.5 240V237.5H677.5V240H662.5ZM682.5 235V232.5H685V230H692.5V232.5H695V235H690V232.5H687.5V235H682.5ZM702.5 240V237.5H717.5V240H702.5ZM725 237.5V230H730V237.5H725ZM742.5 230V232.5H740V230H742.5ZM745 232.5V235H742.5V232.5H745ZM747.5 235V237.5H745V235H747.5ZM750 237.5V240H747.5V237.5H750ZM752.5 240V242.5H750V240H752.5ZM755 242.5V245H752.5V242.5H755ZM757.5 245V247.5H755V245H757.5ZM2.5 262V264.5H0V262H2.5ZM5 264.5V267H2.5V264.5H5ZM7.5 267V269.5H5V267H7.5ZM10 269.5V272H7.5V269.5H10ZM12.5 272V274.5H10V272H12.5ZM15 274.5V277H12.5V274.5H15ZM17.5 277V279.5H15V277H17.5ZM20 282V279.5H37.5V282H20ZM40 282V279.5H57.5V282H40ZM60 282V279.5H77.5V282H60ZM80 282V279.5H97.5V282H80ZM100 282V279.5H117.5V282H100ZM120 282V279.5H137.5V282H120ZM140 282V279.5H157.5V282H140ZM160 282V279.5H177.5V282H160ZM180 282V279.5H197.5V282H180ZM200 282V279.5H217.5V282H200ZM220 282V279.5H237.5V282H220ZM240 282V279.5H257.5V282H240ZM260 282V279.5H277.5V282H260ZM280 282V279.5H297.5V282H280ZM300 282V279.5H317.5V282H300ZM320 282V279.5H337.5V282H320ZM340 282V279.5H357.5V282H340ZM360 282V279.5H377.5V282H360ZM380 282V279.5H397.5V282H380ZM400 282V279.5H417.5V282H400ZM420 282V279.5H437.5V282H420ZM440 282V279.5H457.5V282H440ZM460 282V279.5H477.5V282H460ZM480 282V279.5H497.5V282H480ZM500 282V279.5H517.5V282H500ZM520 282V279.5H537.5V282H520ZM540 282V279.5H557.5V282H540ZM560 282V279.5H577.5V282H560ZM580 282V279.5H597.5V282H580ZM600 282V279.5H617.5V282H600ZM620 282V279.5H637.5V282H620ZM640 282V279.5H657.5V282H640ZM660 282V279.5H677.5V282H660ZM680 282V279.5H697.5V282H680ZM700 282V279.5H717.5V282H700ZM720 282V279.5H737.5V282H720ZM740 282V279.5H757.5V282H740ZM762.5 262V264.5H760V262H762.5ZM765 264.5V267H762.5V264.5H765ZM767.5 267V269.5H765V267H767.5ZM770 269.5V272H767.5V269.5H770ZM772.5 272V274.5H770V272H772.5ZM775 274.5V277H772.5V274.5H775ZM777.5 277V279.5H775V277H777.5ZM2.5 294V296.5H0V294H2.5ZM5 296.5V299H2.5V296.5H5ZM7.5 299V301.5H5V299H7.5ZM10 301.5V304H7.5V301.5H10ZM12.5 304V306.5H10V304H12.5ZM15 306.5V309H12.5V306.5H15ZM17.5 309V311.5H15V309H17.5ZM27.5 311.5V294H32.5V311.5H27.5ZM40 314V311.5H57.5V314H40ZM60 314V311.5H77.5V314H60ZM80 314V311.5H97.5V314H80ZM100 314V311.5H117.5V314H100ZM120 314V311.5H137.5V314H120ZM140 314V311.5H157.5V314H140ZM160 314V311.5H177.5V314H160ZM180 314V311.5H197.5V314H180ZM200 314V311.5H217.5V314H200ZM220 314V311.5H237.5V314H220ZM240 314V311.5H257.5V314H240ZM260 314V311.5H277.5V314H260ZM280 314V311.5H297.5V314H280ZM300 314V311.5H317.5V314H300ZM320 314V311.5H337.5V314H320ZM340 314V311.5H357.5V314H340ZM360 314V311.5H377.5V314H360ZM380 314V311.5H397.5V314H380ZM400 314V311.5H417.5V314H400ZM420 314V311.5H437.5V314H420ZM440 314V311.5H457.5V314H440ZM460 314V311.5H477.5V314H460ZM480 314V311.5H497.5V314H480ZM500 314V311.5H517.5V314H500ZM520 314V311.5H537.5V314H520ZM540 314V311.5H557.5V314H540ZM560 314V311.5H577.5V314H560ZM580 314V311.5H597.5V314H580ZM600 314V311.5H617.5V314H600ZM620 314V311.5H637.5V314H620ZM640 314V311.5H657.5V314H640ZM660 314V311.5H677.5V314H660ZM680 314V311.5H697.5V314H680ZM700 314V311.5H717.5V314H700ZM720 314V311.5H737.5V314H720ZM740 314V311.5H757.5V314H740ZM767.5 311.5V294H772.5V311.5H767.5ZM117.5 326V328.5H115V326H117.5ZM112.5 328.5H115V331H112.5V328.5ZM110 331H112.5V333.5H110V331ZM107.5 333.5H110V336H107.5V333.5ZM105 336H107.5V338.5H105V336ZM102.5 338.5H105V341H102.5V338.5ZM100 341H102.5V343.5H100V341ZM157.5 326V328.5H155V326H157.5ZM152.5 328.5H155V331H152.5V328.5ZM150 331H152.5V333.5H150V331ZM147.5 333.5H150V336H147.5V333.5ZM145 336H147.5V338.5H145V336ZM142.5 338.5H145V341H142.5V338.5ZM140 341H142.5V343.5H140V341ZM657.5 326V328.5H655V326H657.5ZM652.5 328.5H655V331H652.5V328.5ZM650 331H652.5V333.5H650V331ZM647.5 333.5H650V336H647.5V333.5ZM645 336H647.5V338.5H645V336ZM642.5 338.5H645V341H642.5V338.5ZM640 341H642.5V343.5H640V341ZM697.5 326V328.5H695V326H697.5ZM692.5 328.5H695V331H692.5V328.5ZM690 331H692.5V333.5H690V331ZM687.5 333.5H690V336H687.5V333.5ZM685 336H687.5V338.5H685V336ZM682.5 338.5H685V341H682.5V338.5ZM680 341H682.5V343.5H680V341Z" fill="#FFDC83"/>
</svg>
