<svg width="58" height="61" viewBox="0 0 58 61" fill="none" xmlns="http://www.w3.org/2000/svg">
<g filter="url(#filter0_d_104_40)">
<rect x="4" y="3" width="50" height="50" rx="25" fill="#00B4D8"/>
<path d="M42.2 22.976C42.2 23.2933 42.3307 23.536 42.592 23.704C42.8533 23.872 43.2173 23.9933 43.684 24.068C44.1507 24.124 44.692 24.152 45.308 24.152H46.036V26H33.128V24.152H34.192C34.7707 24.152 35.284 24.124 35.732 24.068C36.18 23.9933 36.5347 23.872 36.796 23.704C37.0573 23.536 37.188 23.2933 37.188 22.976V11.384L37.72 11.16C37.552 11.664 37.3093 12.0933 36.992 12.448C36.6933 12.8027 36.32 13.092 35.872 13.316C35.424 13.54 34.92 13.708 34.36 13.82C33.8187 13.9133 33.2307 13.9507 32.596 13.932V11.104C33.3427 11.104 34.0053 11.0573 34.584 10.964C35.1813 10.8707 35.6947 10.7307 36.124 10.544C36.572 10.3573 36.9547 10.1333 37.272 9.872C37.608 9.61067 37.9067 9.30267 38.168 8.948H42.2V22.976Z" fill="white"/>
<path d="M17.84 46.308C16.776 46.308 15.8053 46.1027 14.928 45.692C14.0507 45.2813 13.2853 44.6933 12.632 43.928C11.9787 43.1627 11.4747 42.2387 11.12 41.156C10.784 40.0547 10.616 38.832 10.616 37.488C10.616 36.144 10.784 34.9307 11.12 33.848C11.4747 32.7467 11.9787 31.8133 12.632 31.048C13.2853 30.2827 14.0507 29.6947 14.928 29.284C15.8053 28.8733 16.776 28.668 17.84 28.668C18.904 28.668 19.8747 28.8733 20.752 29.284C21.6293 29.6947 22.3947 30.2827 23.048 31.048C23.7013 31.8133 24.196 32.7467 24.532 33.848C24.8867 34.9307 25.064 36.144 25.064 37.488C25.064 38.832 24.8867 40.0547 24.532 41.156C24.196 42.2387 23.7013 43.1627 23.048 43.928C22.3947 44.6933 21.6293 45.2813 20.752 45.692C19.8747 46.1027 18.904 46.308 17.84 46.308ZM17.84 44.124C18.232 44.124 18.568 44.0027 18.848 43.76C19.128 43.5173 19.3613 43.144 19.548 42.64C19.7533 42.136 19.9027 41.464 19.996 40.624C20.0893 39.7653 20.136 38.72 20.136 37.488C20.136 36.256 20.0893 35.22 19.996 34.38C19.9027 33.5213 19.7533 32.84 19.548 32.336C19.3613 31.8133 19.128 31.44 18.848 31.216C18.568 30.9733 18.232 30.852 17.84 30.852C17.448 30.852 17.112 30.9733 16.832 31.216C16.552 31.44 16.3093 31.8133 16.104 32.336C15.9173 32.84 15.7773 33.5213 15.684 34.38C15.5907 35.22 15.544 36.256 15.544 37.488C15.544 38.7013 15.5907 39.7373 15.684 40.596C15.7773 41.4547 15.9173 42.136 16.104 42.64C16.3093 43.144 16.552 43.5173 16.832 43.76C17.112 44.0027 17.448 44.124 17.84 44.124Z" fill="white"/>
<path d="M38.84 46.308C37.776 46.308 36.8053 46.1027 35.928 45.692C35.0507 45.2813 34.2853 44.6933 33.632 43.928C32.9787 43.1627 32.4747 42.2387 32.12 41.156C31.784 40.0547 31.616 38.832 31.616 37.488C31.616 36.144 31.784 34.9307 32.12 33.848C32.4747 32.7467 32.9787 31.8133 33.632 31.048C34.2853 30.2827 35.0507 29.6947 35.928 29.284C36.8053 28.8733 37.776 28.668 38.84 28.668C39.904 28.668 40.8747 28.8733 41.752 29.284C42.6293 29.6947 43.3947 30.2827 44.048 31.048C44.7013 31.8133 45.196 32.7467 45.532 33.848C45.8867 34.9307 46.064 36.144 46.064 37.488C46.064 38.832 45.8867 40.0547 45.532 41.156C45.196 42.2387 44.7013 43.1627 44.048 43.928C43.3947 44.6933 42.6293 45.2813 41.752 45.692C40.8747 46.1027 39.904 46.308 38.84 46.308ZM38.84 44.124C39.232 44.124 39.568 44.0027 39.848 43.76C40.128 43.5173 40.3613 43.144 40.548 42.64C40.7533 42.136 40.9027 41.464 40.996 40.624C41.0893 39.7653 41.136 38.72 41.136 37.488C41.136 36.256 41.0893 35.22 40.996 34.38C40.9027 33.5213 40.7533 32.84 40.548 32.336C40.3613 31.8133 40.128 31.44 39.848 31.216C39.568 30.9733 39.232 30.852 38.84 30.852C38.448 30.852 38.112 30.9733 37.832 31.216C37.552 31.44 37.3093 31.8133 37.104 32.336C36.9173 32.84 36.7773 33.5213 36.684 34.38C36.5907 35.22 36.544 36.256 36.544 37.488C36.544 38.7013 36.5907 39.7373 36.684 40.596C36.7773 41.4547 36.9173 42.136 37.104 42.64C37.3093 43.144 37.552 43.5173 37.832 43.76C38.112 44.0027 38.448 44.124 38.84 44.124Z" fill="white"/>
<path d="M18.84 26.308C17.776 26.308 16.8053 26.1027 15.928 25.692C15.0507 25.2813 14.2853 24.6933 13.632 23.928C12.9787 23.1627 12.4747 22.2387 12.12 21.156C11.784 20.0547 11.616 18.832 11.616 17.488C11.616 16.144 11.784 14.9307 12.12 13.848C12.4747 12.7467 12.9787 11.8133 13.632 11.048C14.2853 10.2827 15.0507 9.69467 15.928 9.284C16.8053 8.87333 17.776 8.668 18.84 8.668C19.904 8.668 20.8747 8.87333 21.752 9.284C22.6293 9.69467 23.3947 10.2827 24.048 11.048C24.7013 11.8133 25.196 12.7467 25.532 13.848C25.8867 14.9307 26.064 16.144 26.064 17.488C26.064 18.832 25.8867 20.0547 25.532 21.156C25.196 22.2387 24.7013 23.1627 24.048 23.928C23.3947 24.6933 22.6293 25.2813 21.752 25.692C20.8747 26.1027 19.904 26.308 18.84 26.308ZM18.84 24.124C19.232 24.124 19.568 24.0027 19.848 23.76C20.128 23.5173 20.3613 23.144 20.548 22.64C20.7533 22.136 20.9027 21.464 20.996 20.624C21.0893 19.7653 21.136 18.72 21.136 17.488C21.136 16.256 21.0893 15.22 20.996 14.38C20.9027 13.5213 20.7533 12.84 20.548 12.336C20.3613 11.8133 20.128 11.44 19.848 11.216C19.568 10.9733 19.232 10.852 18.84 10.852C18.448 10.852 18.112 10.9733 17.832 11.216C17.552 11.44 17.3093 11.8133 17.104 12.336C16.9173 12.84 16.7773 13.5213 16.684 14.38C16.5907 15.22 16.544 16.256 16.544 17.488C16.544 18.7013 16.5907 19.7373 16.684 20.596C16.7773 21.4547 16.9173 22.136 17.104 22.64C17.3093 23.144 17.552 23.5173 17.832 23.76C18.112 24.0027 18.448 24.124 18.84 24.124Z" fill="white"/>
</g>
<defs>
<filter id="filter0_d_104_40" x="0" y="3" width="58" height="58" filterUnits="userSpaceOnUse" color-interpolation-filters="sRGB">
<feFlood flood-opacity="0" result="BackgroundImageFix"/>
<feColorMatrix in="SourceAlpha" type="matrix" values="0 0 0 0 0 0 0 0 0 0 0 0 0 0 0 0 0 0 127 0" result="hardAlpha"/>
<feOffset dy="4"/>
<feGaussianBlur stdDeviation="2"/>
<feComposite in2="hardAlpha" operator="out"/>
<feColorMatrix type="matrix" values="0 0 0 0 0 0 0 0 0 0 0 0 0 0 0 0 0 0 0.25 0"/>
<feBlend mode="normal" in2="BackgroundImageFix" result="effect1_dropShadow_104_40"/>
<feBlend mode="normal" in="SourceGraphic" in2="effect1_dropShadow_104_40" result="shape"/>
</filter>
</defs>
</svg>
