<svg width="840" height="386" viewBox="0 0 840 386" fill="none" xmlns="http://www.w3.org/2000/svg">
<path d="M668.6 189V187H682.6V189H668.6ZM684.2 189V187H698.2V189H684.2ZM699.8 189V187H713.8V189H699.8ZM715.4 189V187H729.4V189H715.4ZM594.6 215V211H598.6V215H594.6ZM608.2 209V207H620.2V209H608.2ZM623.8 209V207H635.8V209H623.8ZM639.4 209V207H651.4V209H639.4ZM657 215V201H665V203H661V213H665V215H657ZM672.6 215V201H680.6V203H676.6V213H680.6V215H672.6ZM684.2 217V215H698.2V217H684.2ZM699.8 217V215H713.8V217H699.8ZM717.4 215V213H721.4V203H717.4V201H725.4V215H717.4ZM733 215V213H737V203H733V201H741V215H733ZM748.6 209V207H760.6V209H748.6ZM764.2 209V207H776.2V209H764.2ZM779.8 209V207H791.8V209H779.8ZM795.4 209V207H807.4V209H795.4ZM813 215V211H817V215H813ZM579 235V231H583V235H579ZM577 243V241H579V237H583V241H581V243H577ZM592.6 237V235H604.6V237H592.6ZM608.2 237V235H620.2V237H608.2ZM623.8 237V235H635.8V237H623.8ZM639.4 237V235H651.4V237H639.4ZM655 237V235H667V237H655ZM670.6 237V235H682.6V237H670.6ZM686.2 237V235H698.2V237H686.2ZM701.8 237V235H713.8V237H701.8ZM717.4 237V235H729.4V237H717.4ZM733 237V235H745V237H733ZM748.6 237V235H760.6V237H748.6ZM764.2 237V235H776.2V237H764.2ZM779.8 237V235H791.8V237H779.8ZM797.4 243V239H801.4V243H797.4ZM815 243V229H819V243H815ZM581 271V257H585V271H581ZM668.6 273V271H682.6V273H668.6ZM690.2 271V257H694.2V271H690.2ZM699.8 273V271H713.8V273H699.8ZM799.4 271V257H803.4V271H799.4ZM815 271V257H819V271H815ZM581 299V285H585V299H581ZM667 285V287H665V285H667ZM663 287H665V289H663V287ZM661 289H663V291H661V289ZM659 291H661V293H659V291ZM657 293H659V295H657V293ZM655 295H657V297H655V295ZM653 297H655V299H653V297ZM690.2 299V285H694.2V299H690.2ZM699.8 301V299H713.8V301H699.8ZM717.4 299V297H719.4V295H721.4V289H719.4V287H717.4V285H721.4V287H723.4V289H725.4V295H723.4V297H721.4V299H717.4ZM799.4 299V285H803.4V299H799.4ZM815 299V285H819V299H815ZM581 327V313H585V327H581ZM655 313V315H653V313H655ZM657 315V317H655V315H657ZM659 317V319H657V317H659ZM661 319V321H659V319H661ZM663 321V323H661V321H663ZM665 323V325H663V323H665ZM667 325V327H665V325H667ZM668.6 329V327H682.6V329H668.6ZM690.2 327V313H694.2V327H690.2ZM717.4 313V315H715.4V313H717.4ZM719.4 315V317H717.4V315H719.4ZM721.4 317V319H719.4V317H721.4ZM723.4 319V321H721.4V319H723.4ZM725.4 321V323H723.4V321H725.4ZM727.4 323V325H725.4V323H727.4ZM729.4 325V327H727.4V325H729.4ZM799.4 327V313H803.4V327H799.4ZM815 327V313H819V327H815ZM581 355V341H585V355H581ZM661 355V353H659V351H657V345H659V343H661V341H665V343H663V345H661V351H663V353H665V355H661ZM668.6 357V355H682.6V357H668.6ZM690.2 355V341H694.2V355H690.2ZM699.8 357V355H713.8V357H699.8ZM729.4 341V343H727.4V341H729.4ZM725.4 343H727.4V345H725.4V343ZM723.4 345H725.4V347H723.4V345ZM721.4 347H723.4V349H721.4V347ZM719.4 349H721.4V351H719.4V349ZM717.4 351H719.4V353H717.4V351ZM715.4 353H717.4V355H715.4V353ZM799.4 355V341H803.4V355H799.4ZM815 355V341H819V355H815ZM581 383V369H585V383H581ZM590.6 385V383H604.6V385H590.6ZM606.2 385V383H620.2V385H606.2ZM621.8 385V383H635.8V385H621.8ZM637.4 385V383H651.4V385H637.4ZM653 385V383H667V385H653ZM668.6 385V383H682.6V385H668.6ZM684.2 385V383H698.2V385H684.2ZM699.8 385V383H713.8V385H699.8ZM715.4 385V383H729.4V385H715.4ZM731 385V383H745V385H731ZM746.6 385V383H760.6V385H746.6ZM762.2 385V383H776.2V385H762.2ZM777.8 385V383H791.8V385H777.8ZM799.4 383V369H803.4V383H799.4ZM823 369V371H821V369H823ZM819 371H821V373H819V371ZM817 373H819V375H817V373ZM815 375H817V377H815V375ZM813 377H815V379H813V377ZM811 379H813V381H811V379ZM809 381H811V383H809V381Z" fill="#FFDC83"/>
<path d="M113.2 20V16H117.2V20H113.2ZM126.8 14V12H138.8V14H126.8ZM142.4 14V12H154.4V14H142.4ZM160 20V16H164V20H160ZM115.2 48V34H119.2V48H115.2ZM124.8 50V48H138.8V50H124.8ZM140.4 50V48H154.4V50H140.4ZM162 48V34H166V48H162ZM191.2 48V44H195.2V48H191.2ZM204.8 42V40H216.8V42H204.8ZM220.4 42V40H232.4V42H220.4ZM236 42V40H248V42H236ZM251.6 42V40H263.6V42H251.6ZM267.2 42V40H279.2V42H267.2ZM282.8 42V40H294.8V42H282.8ZM298.4 42V40H310.4V42H298.4ZM316 48V44H320V48H316ZM115.2 76V62H119.2V76H115.2ZM124.8 68V66H138.8V68H124.8ZM124.8 72V70H138.8V72H124.8ZM144.4 76V72H148.4V76H144.4ZM162 76V62H166V76H162ZM193.2 76V62H197.2V76H193.2ZM206.8 76V72H210.8V76H206.8ZM220.4 70V68H232.4V70H220.4ZM236 70V68H248V70H236ZM251.6 70V68H263.6V70H251.6ZM267.2 70V68H279.2V70H267.2ZM282.8 70V68H294.8V70H282.8ZM300.4 76V72H304.4V76H300.4ZM318 76V62H322V76H318ZM115.2 104V90H119.2V104H115.2ZM126.8 98V96H138.8V98H126.8ZM142.4 98V96H154.4V98H142.4ZM162 104V90H166V104H162ZM193.2 104V90H197.2V104H193.2ZM208.8 104V90H212.8V104H208.8ZM242 92V90H246V92H242ZM236 106V104H242V96H240V94H246V104H244V106H236ZM251.6 104V102H249.6V96H251.6V94H261.6V96H263.6V102H261.6V104H251.6ZM253.6 102H259.6V96H253.6V102ZM267.2 104V102H265.2V90H269.2V94H277.2V96H279.2V102H277.2V104H267.2ZM269.2 102H275.2V96H269.2V102ZM302.4 104V90H306.4V104H302.4ZM318 104V90H322V104H318ZM31.2 134V132H45.2V134H31.2ZM46.8 134V132H60.8V134H46.8ZM62.4 134V132H76.4V134H62.4ZM78 134V132H92V134H78ZM93.6 134V132H107.6V134H93.6ZM115.2 132V118H119.2V132H115.2ZM162 132V118H166V132H162ZM193.2 132V118H197.2V132H193.2ZM206.8 124V118H210.8V124H206.8ZM220.4 126V124H232.4V126H220.4ZM236 126V124H248V126H236ZM251.6 126V124H263.6V126H251.6ZM267.2 126V124H279.2V126H267.2ZM282.8 126V124H294.8V126H282.8ZM300.4 124V118H304.4V124H300.4ZM318 132V118H322V132H318ZM327.6 134V132H341.6V134H327.6ZM343.2 134V132H357.2V134H343.2ZM358.8 134V132H372.8V134H358.8ZM374.4 134V132H388.4V134H374.4ZM390 134V132H404V134H390ZM405.6 134V132H419.6V134H405.6ZM421.2 134V132H435.2V134H421.2ZM436.8 134V132H450.8V134H436.8ZM452.4 134V132H466.4V134H452.4ZM468 134V132H482V134H468ZM483.6 134V132H497.6V134H483.6ZM29.6 146V148H27.6V146H29.6ZM25.6 148H27.6V150H25.6V148ZM23.6 150H25.6V152H23.6V150ZM21.6 152H23.6V154H21.6V152ZM19.6 154H21.6V156H19.6V154ZM17.6 156H19.6V158H17.6V156ZM15.6 158H17.6V160H15.6V158ZM115.2 160V146H119.2V160H115.2ZM124.8 162V160H138.8V162H124.8ZM140.4 162V160H154.4V162H140.4ZM162 160V146H166V160H162ZM181.6 154H183.6V156H177.6V154H175.6V152H173.6V150H179.6V152H181.6V154ZM171.6 152H173.6V154H171.6V152ZM185.6 152V154H183.6V152H185.6ZM191.2 152V146H195.2V152H191.2ZM204.8 160V158H206.8V156H208.8V150H206.8V148H204.8V146H208.8V148H210.8V150H212.8V156H210.8V158H208.8V160H204.8ZM218.4 162V160H232.4V162H218.4ZM234 162V160H248V162H234ZM249.6 162V160H263.6V162H249.6ZM265.2 162V160H279.2V162H265.2ZM280.8 162V160H294.8V162H280.8ZM304.4 160V158H302.4V156H300.4V150H302.4V148H304.4V146H308.4V148H306.4V150H304.4V156H306.4V158H308.4V160H304.4ZM316 152V146H320V152H316ZM501.2 146V148H499.2V146H501.2ZM503.2 148V150H501.2V148H503.2ZM505.2 150V152H503.2V150H505.2ZM507.2 152V154H505.2V152H507.2ZM509.2 154V156H507.2V154H509.2ZM511.2 156V158H509.2V156H511.2ZM513.2 158V160H511.2V158H513.2ZM14 174V176H12V174H14ZM10 176H12V178H10V176ZM8 178H10V180H8V178ZM6 180H8V182H6V180ZM4 182H6V184H4V182ZM2 184H4V186H2V184ZM0 186H2V188H0V186ZM15.6 190V188H29.6V190H15.6ZM31.2 190V188H45.2V190H31.2ZM46.8 190V188H60.8V190H46.8ZM62.4 190V188H76.4V190H62.4ZM78 190V188H92V190H78ZM93.6 190V188H107.6V190H93.6ZM109.2 190V188H123.2V190H109.2ZM124.8 190V188H138.8V190H124.8ZM140.4 190V188H154.4V190H140.4ZM156 190V188H170V190H156ZM171.6 190V188H185.6V190H171.6ZM187.2 190V188H201.2V190H187.2ZM202.8 190V188H216.8V190H202.8ZM218.4 190V188H232.4V190H218.4ZM234 190V188H248V190H234ZM249.6 190V188H263.6V190H249.6ZM265.2 190V188H279.2V190H265.2ZM280.8 190V188H294.8V190H280.8ZM296.4 190V188H310.4V190H296.4ZM312 190V188H326V190H312ZM327.6 190V188H341.6V190H327.6ZM343.2 190V188H357.2V190H343.2ZM358.8 190V188H372.8V190H358.8ZM374.4 190V188H388.4V190H374.4ZM390 190V188H404V190H390ZM405.6 190V188H419.6V190H405.6ZM421.2 190V188H435.2V190H421.2ZM436.8 190V188H450.8V190H436.8ZM452.4 190V188H466.4V190H452.4ZM468 190V188H482V190H468ZM483.6 190V188H497.6V190H483.6ZM499.2 190V188H513.2V190H499.2ZM516.8 174V176H514.8V174H516.8ZM518.8 176V178H516.8V176H518.8ZM520.8 178V180H518.8V178H520.8ZM522.8 180V182H520.8V180H522.8ZM524.8 182V184H522.8V182H524.8ZM526.8 184V186H524.8V184H526.8ZM528.8 186V188H526.8V186H528.8ZM4 216V202H12V204H8V214H12V216H4ZM15.6 218V216H29.6V218H15.6ZM31.2 218V216H45.2V218H31.2ZM46.8 218V216H60.8V218H46.8ZM62.4 218V216H76.4V218H62.4ZM78 218V216H92V218H78ZM93.6 218V216H107.6V218H93.6ZM109.2 218V216H123.2V218H109.2ZM124.8 218V216H138.8V218H124.8ZM140.4 218V216H154.4V218H140.4ZM156 218V216H170V218H156ZM171.6 218V216H185.6V218H171.6ZM187.2 218V216H201.2V218H187.2ZM202.8 218V216H216.8V218H202.8ZM218.4 218V216H232.4V218H218.4ZM234 218V216H248V218H234ZM249.6 218V216H263.6V218H249.6ZM265.2 218V216H279.2V218H265.2ZM280.8 218V216H294.8V218H280.8ZM296.4 218V216H310.4V218H296.4ZM312 218V216H326V218H312ZM327.6 218V216H341.6V218H327.6ZM343.2 218V216H357.2V218H343.2ZM358.8 218V216H372.8V218H358.8ZM374.4 218V216H388.4V218H374.4ZM390 218V216H404V218H390ZM405.6 218V216H419.6V218H405.6ZM421.2 218V216H435.2V218H421.2ZM436.8 218V216H450.8V218H436.8ZM452.4 218V216H466.4V218H452.4ZM468 218V216H482V218H468ZM483.6 218V216H497.6V218H483.6ZM499.2 218V216H513.2V218H499.2ZM516.8 216V214H520.8V204H516.8V202H524.8V216H516.8ZM48.8 230V232H46.8V230H48.8ZM50.8 232V234H48.8V232H50.8ZM52.8 234V236H50.8V234H52.8ZM54.8 236V238H52.8V236H54.8ZM56.8 238V240H54.8V238H56.8ZM58.8 240V242H56.8V240H58.8ZM60.8 242V244H58.8V242H60.8ZM80 230V232H78V230H80ZM82 232V234H80V232H82ZM84 234V236H82V234H84ZM86 236V238H84V236H86ZM88 238V240H86V238H88ZM90 240V242H88V240H90ZM92 242V244H90V242H92ZM138.8 230V232H136.8V230H138.8ZM134.8 232H136.8V234H134.8V232ZM132.8 234H134.8V236H132.8V234ZM130.8 236H132.8V238H130.8V236ZM128.8 238H130.8V240H128.8V238ZM126.8 240H128.8V242H126.8V240ZM124.8 242H126.8V244H124.8V242ZM170 230V232H168V230H170ZM166 232H168V234H166V232ZM164 234H166V236H164V234ZM162 236H164V238H162V236ZM160 238H162V240H160V238ZM158 240H160V242H158V240ZM156 242H158V244H156V242ZM360.8 230V232H358.8V230H360.8ZM362.8 232V234H360.8V232H362.8ZM364.8 234V236H362.8V234H364.8ZM366.8 236V238H364.8V236H366.8ZM368.8 238V240H366.8V238H368.8ZM370.8 240V242H368.8V240H370.8ZM372.8 242V244H370.8V242H372.8ZM392 230V232H390V230H392ZM394 232V234H392V232H394ZM396 234V236H394V234H396ZM398 236V238H396V236H398ZM400 238V240H398V238H400ZM402 240V242H400V240H402ZM404 242V244H402V242H404ZM450.8 230V232H448.8V230H450.8ZM446.8 232H448.8V234H446.8V232ZM444.8 234H446.8V236H444.8V234ZM442.8 236H444.8V238H442.8V236ZM440.8 238H442.8V240H440.8V238ZM438.8 240H440.8V242H438.8V240ZM436.8 242H438.8V244H436.8V242ZM482 230V232H480V230H482ZM478 232H480V234H478V232ZM476 234H478V236H476V234ZM474 236H476V238H474V236ZM472 238H474V240H472V238ZM470 240H472V242H470V240ZM468 242H470V244H468V242ZM64.4 258V260H62.4V258H64.4ZM66.4 260V262H64.4V260H66.4ZM68.4 262V264H66.4V262H68.4ZM70.4 264V266H68.4V264H70.4ZM72.4 266V268H70.4V266H72.4ZM74.4 268V270H72.4V268H74.4ZM76.4 270V272H74.4V270H76.4ZM95.6 258V260H93.6V258H95.6ZM97.6 260V262H95.6V260H97.6ZM99.6 262V264H97.6V262H99.6ZM101.6 264V266H99.6V264H101.6ZM103.6 266V268H101.6V266H103.6ZM105.6 268V270H103.6V268H105.6ZM107.6 270V272H105.6V270H107.6ZM123.2 258V260H121.2V258H123.2ZM119.2 260H121.2V262H119.2V260ZM117.2 262H119.2V264H117.2V262ZM115.2 264H117.2V266H115.2V264ZM113.2 266H115.2V268H113.2V266ZM111.2 268H113.2V270H111.2V268ZM109.2 270H111.2V272H109.2V270ZM154.4 258V260H152.4V258H154.4ZM150.4 260H152.4V262H150.4V260ZM148.4 262H150.4V264H148.4V262ZM146.4 264H148.4V266H146.4V264ZM144.4 266H146.4V268H144.4V266ZM142.4 268H144.4V270H142.4V268ZM140.4 270H142.4V272H140.4V270ZM376.4 258V260H374.4V258H376.4ZM378.4 260V262H376.4V260H378.4ZM380.4 262V264H378.4V262H380.4ZM382.4 264V266H380.4V264H382.4ZM384.4 266V268H382.4V266H384.4ZM386.4 268V270H384.4V268H386.4ZM388.4 270V272H386.4V270H388.4ZM407.6 258V260H405.6V258H407.6ZM409.6 260V262H407.6V260H409.6ZM411.6 262V264H409.6V262H411.6ZM413.6 264V266H411.6V264H413.6ZM415.6 266V268H413.6V266H415.6ZM417.6 268V270H415.6V268H417.6ZM419.6 270V272H417.6V270H419.6ZM435.2 258V260H433.2V258H435.2ZM431.2 260H433.2V262H431.2V260ZM429.2 262H431.2V264H429.2V262ZM427.2 264H429.2V266H427.2V264ZM425.2 266H427.2V268H425.2V266ZM423.2 268H425.2V270H423.2V268ZM421.2 270H423.2V272H421.2V270ZM466.4 258V260H464.4V258H466.4ZM462.4 260H464.4V262H462.4V260ZM460.4 262H462.4V264H460.4V262ZM458.4 264H460.4V266H458.4V264ZM456.4 266H458.4V268H456.4V266ZM454.4 268H456.4V270H454.4V268ZM452.4 270H454.4V272H452.4V270ZM62.4 302V300H76.4V302H62.4ZM80 286V288H78V286H80ZM82 288V290H80V288H82ZM84 290V292H82V290H84ZM86 292V294H84V292H86ZM88 294V296H86V294H88ZM90 296V298H88V296H90ZM92 298V300H90V298H92ZM107.6 286V288H105.6V286H107.6ZM103.6 288H105.6V290H103.6V288ZM101.6 290H103.6V292H101.6V290ZM99.6 292H101.6V294H99.6V292ZM97.6 294H99.6V296H97.6V294ZM95.6 296H97.6V298H95.6V296ZM93.6 298H95.6V300H93.6V298ZM138.8 286V288H136.8V286H138.8ZM134.8 288H136.8V290H134.8V288ZM132.8 290H134.8V292H132.8V290ZM130.8 292H132.8V294H130.8V292ZM128.8 294H130.8V296H128.8V294ZM126.8 296H128.8V298H126.8V296ZM124.8 298H126.8V300H124.8V298ZM140.4 302V300H154.4V302H140.4ZM156 302V300H170V302H156ZM171.6 302V300H185.6V302H171.6ZM187.2 302V300H201.2V302H187.2ZM202.8 302V300H216.8V302H202.8ZM218.4 302V300H232.4V302H218.4ZM234 302V300H248V302H234ZM249.6 302V300H263.6V302H249.6ZM265.2 302V300H279.2V302H265.2ZM280.8 302V300H294.8V302H280.8ZM296.4 302V300H310.4V302H296.4ZM312 302V300H326V302H312ZM327.6 302V300H341.6V302H327.6ZM343.2 302V300H357.2V302H343.2ZM358.8 302V300H372.8V302H358.8ZM374.4 302V300H388.4V302H374.4ZM392 286V288H390V286H392ZM394 288V290H392V288H394ZM396 290V292H394V290H396ZM398 292V294H396V292H398ZM400 294V296H398V294H400ZM402 296V298H400V296H402ZM404 298V300H402V298H404ZM423.2 286V288H421.2V286H423.2ZM425.2 288V290H423.2V288H425.2ZM427.2 290V292H425.2V290H427.2ZM429.2 292V294H427.2V292H429.2ZM431.2 294V296H429.2V294H431.2ZM433.2 296V298H431.2V296H433.2ZM435.2 298V300H433.2V298H435.2ZM450.8 286V288H448.8V286H450.8ZM446.8 288H448.8V290H446.8V288ZM444.8 290H446.8V292H444.8V290ZM442.8 292H444.8V294H442.8V292ZM440.8 294H442.8V296H440.8V294ZM438.8 296H440.8V298H438.8V296ZM436.8 298H438.8V300H436.8V298ZM452.4 302V300H466.4V302H452.4ZM50.8 328V314H58.8V316H54.8V326H58.8V328H50.8ZM62.4 330V328H76.4V330H62.4ZM92 314V316H90V314H92ZM88 316H90V318H88V316ZM86 318H88V320H86V318ZM84 320H86V322H84V320ZM82 322H84V324H82V322ZM80 324H82V326H80V324ZM78 326H80V328H78V326ZM95.6 328V326H93.6V320H95.6V318H105.6V320H107.6V326H105.6V328H95.6ZM97.6 326H103.6V320H97.6V326ZM123.2 314V316H121.2V314H123.2ZM119.2 316H121.2V318H119.2V316ZM117.2 318H119.2V320H117.2V318ZM115.2 320H117.2V322H115.2V320ZM113.2 322H115.2V324H113.2V322ZM111.2 324H113.2V326H111.2V324ZM109.2 326H111.2V328H109.2V326ZM124.8 330V328H138.8V330H124.8ZM140.4 330V328H154.4V330H140.4ZM156 330V328H170V330H156ZM171.6 330V328H185.6V330H171.6ZM187.2 330V328H201.2V330H187.2ZM202.8 330V328H216.8V330H202.8ZM218.4 330V328H232.4V330H218.4ZM234 330V328H248V330H234ZM249.6 330V328H263.6V330H249.6ZM265.2 330V328H279.2V330H265.2ZM280.8 330V328H294.8V330H280.8ZM296.4 330V328H310.4V330H296.4ZM312 330V328H326V330H312ZM327.6 330V328H341.6V330H327.6ZM343.2 330V328H357.2V330H343.2ZM358.8 330V328H372.8V330H358.8ZM374.4 330V328H388.4V330H374.4ZM390 330V328H404V330H390ZM407.6 314V316H405.6V314H407.6ZM409.6 316V318H407.6V316H409.6ZM411.6 318V320H409.6V318H411.6ZM413.6 320V322H411.6V320H413.6ZM415.6 322V324H413.6V322H415.6ZM417.6 324V326H415.6V324H417.6ZM419.6 326V328H417.6V326H419.6ZM423.2 328V326H421.2V320H423.2V318H433.2V320H435.2V326H433.2V328H423.2ZM425.2 326H431.2V320H425.2V326ZM438.8 314V316H436.8V314H438.8ZM440.8 316V318H438.8V316H440.8ZM442.8 318V320H440.8V318H442.8ZM444.8 320V322H442.8V320H444.8ZM446.8 322V324H444.8V322H446.8ZM448.8 324V326H446.8V324H448.8ZM450.8 326V328H448.8V326H450.8ZM452.4 330V328H466.4V330H452.4ZM470 328V326H474V316H470V314H478V328H470ZM76.4 342V344H74.4V342H76.4ZM72.4 344H74.4V346H72.4V344ZM70.4 346H72.4V348H70.4V346ZM68.4 348H70.4V350H68.4V348ZM66.4 350H68.4V352H66.4V350ZM64.4 352H66.4V354H64.4V352ZM62.4 354H64.4V356H62.4V354ZM107.6 342V344H105.6V342H107.6ZM103.6 344H105.6V346H103.6V344ZM101.6 346H103.6V348H101.6V346ZM99.6 348H101.6V350H99.6V348ZM97.6 350H99.6V352H97.6V350ZM95.6 352H97.6V354H95.6V352ZM93.6 354H95.6V356H93.6V354ZM111.2 342V344H109.2V342H111.2ZM113.2 344V346H111.2V344H113.2ZM115.2 346V348H113.2V346H115.2ZM117.2 348V350H115.2V348H117.2ZM119.2 350V352H117.2V350H119.2ZM121.2 352V354H119.2V352H121.2ZM123.2 354V356H121.2V354H123.2ZM142.4 342V344H140.4V342H142.4ZM144.4 344V346H142.4V344H144.4ZM146.4 346V348H144.4V346H146.4ZM148.4 348V350H146.4V348H148.4ZM150.4 350V352H148.4V350H150.4ZM152.4 352V354H150.4V352H152.4ZM154.4 354V356H152.4V354H154.4ZM388.4 342V344H386.4V342H388.4ZM384.4 344H386.4V346H384.4V344ZM382.4 346H384.4V348H382.4V346ZM380.4 348H382.4V350H380.4V348ZM378.4 350H380.4V352H378.4V350ZM376.4 352H378.4V354H376.4V352ZM374.4 354H376.4V356H374.4V354ZM419.6 342V344H417.6V342H419.6ZM415.6 344H417.6V346H415.6V344ZM413.6 346H415.6V348H413.6V346ZM411.6 348H413.6V350H411.6V348ZM409.6 350H411.6V352H409.6V350ZM407.6 352H409.6V354H407.6V352ZM405.6 354H407.6V356H405.6V354ZM423.2 342V344H421.2V342H423.2ZM425.2 344V346H423.2V344H425.2ZM427.2 346V348H425.2V346H427.2ZM429.2 348V350H427.2V348H429.2ZM431.2 350V352H429.2V350H431.2ZM433.2 352V354H431.2V352H433.2ZM435.2 354V356H433.2V354H435.2ZM454.4 342V344H452.4V342H454.4ZM456.4 344V346H454.4V344H456.4ZM458.4 346V348H456.4V346H458.4ZM460.4 348V350H458.4V348H460.4ZM462.4 350V352H460.4V350H462.4ZM464.4 352V354H462.4V352H464.4ZM466.4 354V356H464.4V354H466.4ZM60.8 370V372H58.8V370H60.8ZM56.8 372H58.8V374H56.8V372ZM54.8 374H56.8V376H54.8V374ZM52.8 376H54.8V378H52.8V376ZM50.8 378H52.8V380H50.8V378ZM48.8 380H50.8V382H48.8V380ZM46.8 382H48.8V384H46.8V382ZM62.4 386V384H76.4V386H62.4ZM92 370V372H90V370H92ZM88 372H90V374H88V372ZM86 374H88V376H86V374ZM84 376H86V378H84V376ZM82 378H84V380H82V378ZM80 380H82V382H80V380ZM78 382H80V384H78V382ZM126.8 370V372H124.8V370H126.8ZM128.8 372V374H126.8V372H128.8ZM130.8 374V376H128.8V374H130.8ZM132.8 376V378H130.8V376H132.8ZM134.8 378V380H132.8V378H134.8ZM136.8 380V382H134.8V380H136.8ZM138.8 382V384H136.8V382H138.8ZM140.4 386V384H154.4V386H140.4ZM158 370V372H156V370H158ZM160 372V374H158V372H160ZM162 374V376H160V374H162ZM164 376V378H162V376H164ZM166 378V380H164V378H166ZM168 380V382H166V380H168ZM170 382V384H168V382H170ZM372.8 370V372H370.8V370H372.8ZM368.8 372H370.8V374H368.8V372ZM366.8 374H368.8V376H366.8V374ZM364.8 376H366.8V378H364.8V376ZM362.8 378H364.8V380H362.8V378ZM360.8 380H362.8V382H360.8V380ZM358.8 382H360.8V384H358.8V382ZM374.4 386V384H388.4V386H374.4ZM404 370V372H402V370H404ZM400 372H402V374H400V372ZM398 374H400V376H398V374ZM396 376H398V378H396V376ZM394 378H396V380H394V378ZM392 380H394V382H392V380ZM390 382H392V384H390V382ZM438.8 370V372H436.8V370H438.8ZM440.8 372V374H438.8V372H440.8ZM442.8 374V376H440.8V374H442.8ZM444.8 376V378H442.8V376H444.8ZM446.8 378V380H444.8V378H446.8ZM448.8 380V382H446.8V380H448.8ZM450.8 382V384H448.8V382H450.8ZM452.4 386V384H466.4V386H452.4ZM470 370V372H468V370H470ZM472 372V374H470V372H472ZM474 374V376H472V374H474ZM476 376V378H474V376H476ZM478 378V380H476V378H478ZM480 380V382H478V380H480ZM482 382V384H480V382H482Z" fill="#FFDC83"/>
</svg>
